<svg width="183" height="55" viewBox="0 0 183 55" fill="none" xmlns="http://www.w3.org/2000/svg">
<path d="M7 5L119.5 4L112.5 50H7V5Z" fill="#A1A1A1"/>
<path fill-rule="evenodd" clip-rule="evenodd" d="M5.22866 1.44066C3.9327 2.23067 2.22692 3.93645 1.43691 5.23241C0.0954083 7.43186 0 8.90274 0 27.4647C0 46.0267 0.0954083 47.4976 1.43691 49.697C2.22692 50.993 3.9327 52.6988 5.22866 53.4888C7.5228 54.8881 8.97488 54.9257 61.1943 54.9278L114.804 54.9307L115.199 52.9431C116.1 48.4141 123.597 1.03646 123.597 0.00070585C123.597 0.00070585 117.61 -0.00130841 65.5881 0.00158275C8.98427 0.00375112 7.52714 0.0384486 5.22866 1.44066ZM28.6095 8.3621C29.3055 9.23812 31.8107 27.4611 31.8013 31.5781C31.7926 35.3373 33.2722 33.3302 36.8507 24.7297C43.2633 9.31618 43.8921 8.15827 46.3034 7.31766C48.9126 6.40767 51.6123 7.25333 52.7225 9.32774C53.4633 10.7112 53.1402 39.9408 52.3401 43.8973C51.9484 45.8344 48.8953 46.8275 47.3283 45.5265C46.4523 44.8001 46.2456 42.2075 46.2094 31.5326L46.1653 18.4298L44.4162 22.0438C43.4534 24.0315 41.0371 29.3693 39.0458 33.9048C34.2342 44.8681 33.7608 45.5345 30.7843 45.5345C27.607 45.5345 27.1321 44.2609 25.659 31.8015C23.7957 16.036 24.1332 16.0858 19.8312 30.95C17.7271 38.2213 15.6159 44.6404 15.1396 45.2143C14.012 46.5731 11.2575 46.5507 10.1147 45.1738C9.07029 43.9154 9.11294 43.7239 14.0785 27.4647C19.3072 10.3433 20.0155 8.6982 22.6595 7.55474C25.1198 6.49079 27.3634 6.79509 28.6095 8.3621ZM81.4331 8.62736C85.4771 10.4632 87.055 13.0248 86.9878 17.6456C86.857 26.7123 80.4314 32.5242 70.5392 32.5242C65.372 32.5242 65.5303 32.3681 64.6933 38.3066C63.7768 44.8124 62.0067 46.9959 58.5409 45.8959C56.601 45.28 56.6646 43.9631 59.5391 25.3578C62.4433 6.56018 61.9966 7.21864 71.8121 7.2425C76.7256 7.25406 79.1903 7.60895 81.4331 8.62736ZM114.051 8.09394C115.252 9.29449 115.135 11.2431 113.783 12.5962C113.034 13.345 111.332 13.7317 108.781 13.7317C104.258 13.7317 105.037 11.7679 102.192 30.3559C101.128 37.3127 99.8079 43.7362 99.2586 44.631C98.0942 46.529 95.2955 46.7849 93.9128 45.1196C93.1286 44.1742 93.3071 41.7507 94.9645 30.8445C96.0624 23.6187 97.1357 16.813 97.3504 15.7194C97.7378 13.7418 97.7198 13.7317 93.7061 13.7317C90.5938 13.7317 89.5233 13.4426 89.021 12.4668C88.2346 10.9381 88.6683 9.34798 90.2035 8.13008C91.7698 6.8876 112.813 6.8558 114.051 8.09394ZM68.4077 14.9966C68.2162 15.6926 67.8505 17.8877 67.5953 19.8754C67.3409 21.8631 66.9658 24.0582 66.7634 24.7543C66.441 25.8587 66.9405 26.0191 70.7033 26.0191C74.4604 26.0191 75.2995 25.751 77.2569 23.9223C80.1336 21.235 80.4566 16.6511 77.8951 14.8571C75.559 13.2207 68.8718 13.319 68.4077 14.9966Z" fill="#262626"/>
<path fill-rule="evenodd" clip-rule="evenodd" d="M130.061 0.179746C130.041 0.279491 127.988 12.6385 125.499 27.6458L120.973 54.9311L147.399 54.9296C176.491 54.9289 176.977 54.861 180.28 50.3623C181.697 48.4318 181.788 47.2384 181.988 27.9277C182.199 7.64761 182.191 7.51895 180.528 5.03111C177.269 0.153001 176.408 0.00121592 151.962 0.000493127C139.936 -0.000229663 130.081 0.0800008 130.061 0.179746ZM158.611 10.4795C158.592 12.0696 158.31 15.5658 157.985 18.2495L157.395 23.1283H163.925C171.844 23.1283 172.742 23.4218 172.742 26.0086C172.742 29.2149 171.089 29.9587 163.08 30.3562L155.799 30.7176L154.895 37.4851C153.891 45.0065 153.24 46.2576 150.335 46.2576C147.102 46.2576 146.774 45.151 147.87 37.9455C148.413 34.3677 148.866 31.1961 148.874 30.8983C148.882 30.6005 145.881 30.3512 142.204 30.3454C138.526 30.3389 135.071 30.0505 134.524 29.7043C133.284 28.9193 133.23 25.6639 134.432 24.2147C135.127 23.3777 137.031 23.1283 142.732 23.1283H150.13L151.036 16.4425C152.206 7.81169 152.602 7.08528 155.984 7.36717C158.579 7.58256 158.647 7.66207 158.611 10.4795Z" fill="#A1A1A1"/>
</svg>
