<svg width="688" height="159" fill="none" xmlns="http://www.w3.org/2000/svg"><path d="M233.202 26.04h6.346v42.3h24.994v-42.3h6.38v42.3h4.384v18.975h-5.627V74h-36.477V26.04zM282.896 74V26.04h34.677v5.66h-28.331v14.689h26.532v5.627h-26.532V68.34h29.444V74h-35.79zm44.753 0V26.04h6.347v19.694h24.929V26.04h6.346V74h-6.346V51.394h-24.929V74h-6.347zm60.425 0V31.7h-15.802v-5.66h38.015v5.66H394.42V74h-6.346zm28.756 0V26.04h18.091c3.185 0 5.616.153 7.296.458 2.355.393 4.329 1.145 5.921 2.258 1.592 1.09 2.868 2.628 3.828 4.612.981 1.985 1.472 4.166 1.472 6.543 0 4.079-1.298 7.536-3.893 10.37-2.595 2.814-7.285 4.221-14.067 4.221h-12.301V74h-6.347zm6.347-25.158h12.399c4.1 0 7.012-.763 8.735-2.29 1.723-1.526 2.584-3.675 2.584-6.444 0-2.007-.513-3.719-1.538-5.137-1.003-1.44-2.333-2.388-3.991-2.846-1.068-.283-3.042-.425-5.921-.425h-12.268v17.142zM232.973 151v-47.96h9.552l11.352 33.958c1.047 3.163 1.811 5.529 2.29 7.099.546-1.745 1.396-4.307 2.552-7.688l11.483-33.369h8.539V151h-6.118v-40.141L258.687 151h-5.726l-13.871-40.828V151h-6.117zm56.138 0v-47.96h34.678v5.66h-28.331v14.689h26.532v5.627h-26.532v16.324h29.443V151h-35.79zm56.761 0v-42.3H330.07v-5.66h38.015v5.66h-15.867V151h-6.346zm28.756 0v-47.96h18.091c3.184 0 5.616.153 7.296.458 2.355.393 4.329 1.145 5.921 2.257 1.592 1.091 2.868 2.629 3.828 4.613.981 1.985 1.472 4.166 1.472 6.543 0 4.079-1.298 7.536-3.893 10.371-2.596 2.813-7.285 4.22-14.068 4.22h-12.3V151h-6.347zm6.347-25.158h12.399c4.1 0 7.011-.763 8.734-2.29 1.723-1.526 2.585-3.675 2.585-6.444 0-2.007-.513-3.719-1.538-5.137-1.003-1.439-2.333-2.388-3.991-2.846-1.069-.283-3.042-.425-5.921-.425h-12.268v17.142zm34.906 1.8c0-7.961 2.138-14.188 6.412-18.68 4.275-4.515 9.793-6.772 16.554-6.772 4.428 0 8.419 1.057 11.974 3.173 3.555 2.115 6.259 5.071 8.113 8.866 1.876 3.773 2.814 8.058 2.814 12.857 0 4.863-.982 9.214-2.945 13.053-1.963 3.838-4.743 6.75-8.342 8.735-3.599 1.963-7.481 2.944-11.647 2.944-4.514 0-8.549-1.091-12.104-3.271-3.555-2.181-6.249-5.159-8.081-8.932a27.065 27.065 0 01-2.748-11.973zm6.543.098c0 5.779 1.549 10.338 4.646 13.675 3.119 3.315 7.023 4.972 11.712 4.972 4.776 0 8.702-1.679 11.777-5.038 3.097-3.358 4.646-8.124 4.646-14.296 0-3.904-.666-7.306-1.996-10.207-1.309-2.923-3.239-5.18-5.791-6.772-2.529-1.614-5.376-2.421-8.538-2.421-4.493 0-8.364 1.548-11.614 4.645-3.228 3.076-4.842 8.223-4.842 15.442zm50.25-24.7h30.033V151h-6.347v-42.3h-17.339v24.7c0 5.016-.24 8.691-.72 11.024-.458 2.334-1.439 4.155-2.944 5.464-1.505 1.287-3.413 1.93-5.725 1.93-1.396 0-3.075-.262-5.038-.785l1.079-5.627c1.047.436 1.941.654 2.683.654 1.439 0 2.519-.534 3.239-1.603.719-1.09 1.079-3.642 1.079-7.655V103.04zm38.538 24.602c0-7.961 2.138-14.188 6.413-18.68 4.274-4.515 9.792-6.772 16.553-6.772 4.428 0 8.419 1.057 11.974 3.173 3.555 2.115 6.259 5.071 8.113 8.866 1.876 3.773 2.814 8.058 2.814 12.857 0 4.863-.982 9.214-2.945 13.053-1.963 3.838-4.743 6.75-8.342 8.735-3.599 1.963-7.481 2.944-11.646 2.944-4.515 0-8.55-1.091-12.105-3.271-3.555-2.181-6.248-5.159-8.081-8.932a27.065 27.065 0 01-2.748-11.973zm6.543.098c0 5.779 1.549 10.338 4.646 13.675 3.119 3.315 7.023 4.972 11.712 4.972 4.776 0 8.702-1.679 11.777-5.038 3.097-3.358 4.646-8.124 4.646-14.296 0-3.904-.666-7.306-1.996-10.207-1.309-2.923-3.239-5.18-5.79-6.772-2.53-1.614-5.377-2.421-8.539-2.421-4.493 0-8.364 1.548-11.614 4.645-3.228 3.076-4.842 8.223-4.842 15.442zm47.633-24.7h31.014v5.66h-24.667V151h-6.347v-47.96zm36.314 0h5.758v37.982l25.517-37.982h6.379V151h-5.757v-37.884L608.048 151h-6.346v-47.96zm48.156 0h5.758v37.982l25.517-37.982h6.38V151h-5.758v-37.884L656.205 151h-6.347v-47.96z" fill="#000"/><path d="M1.105 110.524a95.998 95.998 0 0021.807 47.719l25.974-22.12a61.883 61.883 0 01-14.057-30.761l-33.724 5.162z" fill="#1963AC"/><path d="M21.316 35.682A96 96 0 00.76 83.952l33.847 4.282a61.884 61.884 0 0113.251-31.116l-26.54-21.436z" fill="#2279E3"/><path d="M83.511.816a96 96 0 00-48.175 20.78l21.559 26.442a61.883 61.883 0 0131.054-13.396L83.511.816z" fill="#5FA0FA"/><path d="M156.864 21.76A96 96 0 00108.745.85l-4.529 33.814a61.882 61.882 0 0131.018 13.48l21.63-26.384z" fill="#94BCF7"/><path d="M191.551 86.727a95.996 95.996 0 00-19.145-48.849l-27.153 20.656a61.88 61.88 0 0112.341 31.488l33.957-3.295z" fill="#C6DDFF"/><path d="M170.728 156.264a96.006 96.006 0 0020.522-48.286l-33.85-4.256a61.89 61.89 0 01-13.229 31.126l26.557 21.416z" fill="#DFF0F8"/><path fill-rule="evenodd" clip-rule="evenodd" d="M98.897 58.43c3.198 4.024 5.221 6.649 7.369 9.563 7.811 10.6 13.684 20.283 16.976 27.99 2.627 6.149 3.274 10.44 2.378 15.772-.649 3.866-1.925 7.383-3.832 10.563-1.356 2.261-2.51 3.705-4.728 5.92-2.429 2.424-3.976 3.605-6.529 4.984-3.592 1.939-7.122 3.075-11.09 3.568-1.615.2-5.127.198-6.766-.004-5.526-.682-10.587-2.768-14.897-6.139-4.72-3.691-8.225-8.645-10.051-14.207-1.41-4.294-1.855-8.433-1.302-12.124.345-2.309 1.39-5.797 2.483-8.292.772-1.76 3.325-6.86 4.474-8.936 3.758-6.79 9.515-15.27 16.459-24.24 2.023-2.614 6.164-7.819 6.244-7.848.036-.013 1.302 1.53 2.812 3.43zm15.228 34.386c.511 2.181.807 3.813 1.005 5.532.394 3.439.295 7.385-.256 10.102-.427 2.108-.768 3.298-1.427 4.978-1.449 3.694-3.609 6.93-6.534 9.791-1.451 1.418-2.593 2.333-4.51 3.611-.859.573-1.562 1.051-1.562 1.062 0 .021.021.02 1.542-.114 4.574-.403 8.784-2.343 11.92-5.492 2.131-2.139 3.712-4.865 4.455-7.682.891-3.377 1.062-7.62.454-11.243-.492-2.928-1.619-6.333-2.885-8.718-.694-1.306-2.569-4.059-2.634-3.865-.014.045.18.962.432 2.038z" fill="#197AEB"/></svg>