<svg width="284" height="65" viewBox="0 0 284 65" fill="none" xmlns="http://www.w3.org/2000/svg">
<g opacity="0.6">
<path d="M96.1243 10.4148H98.7489V27.8801H109.085V10.4148H111.723V27.8801H113.536V35.7146H111.209V30.217H96.1243V10.4148Z" fill="white"/>
<path d="M116.675 30.217V10.4148H131.015V12.7516H119.299V18.8165H130.271V21.1398H119.299V27.8801H131.475V30.217H116.675Z" fill="white"/>
<path d="M135.182 30.217V10.4148H137.807V18.5464H148.116V10.4148H150.74V30.217H148.116V20.8832H137.807V30.217H135.182Z" fill="white"/>
<path d="M160.17 30.217V12.7516H153.636V10.4148H169.356V12.7516H162.795V30.217H160.17Z" fill="white"/>
<path d="M172.062 30.217V10.4148H179.543C180.86 10.4148 181.866 10.4778 182.56 10.6039C183.534 10.766 184.351 11.0767 185.009 11.5359C185.668 11.9862 186.195 12.6211 186.592 13.4405C186.998 14.26 187.201 15.1605 187.201 16.142C187.201 17.826 186.664 19.2533 185.591 20.4239C184.518 21.5856 182.578 22.1664 179.773 22.1664H174.687V30.217H172.062ZM174.687 19.8296H179.814C181.51 19.8296 182.714 19.5144 183.426 18.8841C184.139 18.2537 184.495 17.3667 184.495 16.2231C184.495 15.3946 184.283 14.6877 183.859 14.1024C183.444 13.5081 182.894 13.1163 182.209 12.9272C181.767 12.8102 180.95 12.7516 179.76 12.7516H174.687V19.8296Z" fill="white"/>
<path d="M96.0296 62.0094V42.2073H99.98L104.675 56.2282C105.107 57.5339 105.423 58.5109 105.622 59.1593C105.847 58.4389 106.199 57.3808 106.677 55.985L111.425 42.2073H114.957V62.0094H112.427V45.4356L106.663 62.0094H104.296L98.5595 45.1519V62.0094H96.0296Z" fill="white"/>
<path d="M119.245 62.0094V42.2073H133.586V44.5441H121.87V50.609H132.842V52.9323H121.87V59.6726H134.046V62.0094H119.245Z" fill="white"/>
<path d="M142.718 62.0094V44.5441H136.183V42.2073H151.904V44.5441H145.342V62.0094H142.718Z" fill="white"/>
<path d="M154.61 62.0094V42.2073H162.091C163.408 42.2073 164.414 42.2703 165.108 42.3964C166.082 42.5585 166.898 42.8691 167.557 43.3284C168.215 43.7787 168.743 44.4135 169.14 45.233C169.546 46.0524 169.749 46.9529 169.749 47.9345C169.749 49.6184 169.212 51.0457 168.139 52.2164C167.065 53.3781 165.126 53.9589 162.321 53.9589H157.234V62.0094H154.61ZM157.234 51.6221H162.362C164.057 51.6221 165.261 51.3069 165.974 50.6765C166.686 50.0462 167.043 49.1592 167.043 48.0155C167.043 47.1871 166.831 46.4802 166.407 45.8948C165.992 45.3005 165.442 44.9088 164.756 44.7197C164.314 44.6026 163.498 44.5441 162.308 44.5441H157.234V51.6221Z" fill="white"/>
<path d="M171.67 52.365C171.67 49.0781 172.554 46.5072 174.321 44.6521C176.089 42.7881 178.371 41.8561 181.167 41.8561C182.998 41.8561 184.648 42.2928 186.118 43.1663C187.589 44.0398 188.707 45.26 189.474 46.8269C190.249 48.3847 190.637 50.1542 190.637 52.1354C190.637 54.1435 190.231 55.94 189.42 57.5249C188.608 59.1098 187.458 60.312 185.97 61.1314C184.481 61.9419 182.876 62.3471 181.153 62.3471C179.286 62.3471 177.618 61.8969 176.148 60.9963C174.678 60.0958 173.564 58.8666 172.806 57.3088C172.048 55.7509 171.67 54.103 171.67 52.365ZM174.375 52.4055C174.375 54.7919 175.016 56.6739 176.297 58.0517C177.586 59.4205 179.201 60.1048 181.14 60.1048C183.115 60.1048 184.739 59.4115 186.01 58.0247C187.291 56.6379 187.931 54.6703 187.931 52.1219C187.931 50.5099 187.656 49.1052 187.106 47.9075C186.565 46.7008 185.767 45.7688 184.711 45.1114C183.665 44.445 182.488 44.1118 181.18 44.1118C179.322 44.1118 177.722 44.7512 176.378 46.0299C175.043 47.2996 174.375 49.4248 174.375 52.4055Z" fill="white"/>
<path d="M195.156 42.2073H207.575V62.0094H204.951V44.5441H197.78V54.7423C197.78 56.8135 197.681 58.3308 197.483 59.2944C197.293 60.2579 196.887 61.0099 196.265 61.5502C195.643 62.0815 194.854 62.3471 193.898 62.3471C193.32 62.3471 192.626 62.239 191.814 62.0229L192.261 59.6996C192.694 59.8797 193.063 59.9698 193.37 59.9698C193.965 59.9698 194.412 59.7491 194.709 59.3079C195.007 58.8576 195.156 57.8041 195.156 56.1471V42.2073Z" fill="white"/>
<path d="M211.093 52.365C211.093 49.0781 211.977 46.5072 213.744 44.6521C215.512 42.7881 217.794 41.8561 220.59 41.8561C222.421 41.8561 224.072 42.2928 225.542 43.1663C227.012 44.0398 228.13 45.26 228.897 46.8269C229.672 48.3847 230.06 50.1542 230.06 52.1354C230.06 54.1435 229.654 55.94 228.843 57.5249C228.031 59.1098 226.881 60.312 225.393 61.1314C223.905 61.9419 222.299 62.3471 220.577 62.3471C218.71 62.3471 217.041 61.8969 215.571 60.9963C214.101 60.0958 212.987 58.8666 212.229 57.3088C211.472 55.7509 211.093 54.103 211.093 52.365ZM213.799 52.4055C213.799 54.7919 214.439 56.6739 215.72 58.0517C217.009 59.4205 218.624 60.1048 220.563 60.1048C222.538 60.1048 224.162 59.4115 225.433 58.0247C226.714 56.6379 227.355 54.6703 227.355 52.1219C227.355 50.5099 227.079 49.1052 226.529 47.9075C225.988 46.7008 225.19 45.7688 224.135 45.1114C223.088 44.445 221.911 44.1118 220.604 44.1118C218.746 44.1118 217.145 44.7512 215.801 46.0299C214.466 47.2996 213.799 49.4248 213.799 52.4055Z" fill="white"/>
<path d="M233.497 42.2073H246.322V44.5441H236.121V62.0094H233.497V42.2073Z" fill="white"/>
<path d="M248.514 42.2073H250.895V57.8896L261.447 42.2073H264.085V62.0094H261.704V46.3676L251.138 62.0094H248.514V42.2073Z" fill="white"/>
<path d="M268.428 42.2073H270.809V57.8896L281.362 42.2073H284V62.0094H281.619V46.3676L271.053 62.0094H268.428V42.2073Z" fill="white"/>
<path d="M0.143113 45.2972C1.2585 52.5735 4.38121 59.3959 9.16133 65L19.9025 55.8669C16.8212 52.2544 14.8082 47.8565 14.0892 43.1661L0.143113 45.2972Z" fill="#434343"/>
<path d="M8.50121 14.3957C3.86889 20.1222 0.925211 27.0235 0 34.3263L13.9969 36.094C14.5934 31.3865 16.4909 26.9378 19.477 23.2463L8.50121 14.3957Z" fill="#767676"/>
<path d="M34.2214 0C26.9115 0.957593 20.013 3.9286 14.299 8.58012L23.2144 19.4975C26.8978 16.499 31.3446 14.5839 36.0568 13.9666L34.2214 0Z" fill="#969696"/>
<path d="M64.5557 8.64765C58.8542 3.98079 51.9638 0.991258 44.6565 0.0140223L42.7834 13.9756C47.4939 14.6056 51.9356 16.5327 55.6109 19.541L64.5557 8.64765Z" fill="#A7A7A7"/>
<path d="M78.9001 35.4717C78.188 28.1451 75.4465 21.1613 70.9829 15.3027L59.754 23.831C62.6313 27.6076 64.3985 32.1095 64.8576 36.8324L78.9001 35.4717Z" fill="#CBCBCB"/>
<path d="M70.2888 64.183C74.917 58.4531 77.8556 51.5497 78.7755 44.2462L64.7773 42.4886C64.1843 47.1966 62.29 51.6467 59.3066 55.3403L70.2888 64.183Z" fill="white"/>
<path fill-rule="evenodd" clip-rule="evenodd" d="M40.5841 23.7886C41.9067 25.4496 42.7432 26.5334 43.6315 27.7369C46.8615 32.1134 49.2903 36.1115 50.6515 39.2932C51.7378 41.8323 52.0054 43.6039 51.6351 45.8054C51.3666 47.4019 50.8391 48.854 50.0505 50.1667C49.4896 51.1004 49.0125 51.6968 48.0949 52.6114C47.0908 53.6121 46.4509 54.0998 45.3952 54.6688C43.9096 55.4696 42.4499 55.9385 40.8087 56.142C40.1409 56.2248 38.6889 56.224 38.0108 56.1405C35.7258 55.859 33.6326 54.9978 31.8503 53.606C29.8984 52.0817 28.4491 50.0363 27.6939 47.7401C27.1108 45.9669 26.927 44.2581 27.1554 42.7339C27.2982 41.7807 27.7303 40.3407 28.1825 39.3104C28.5014 38.5839 29.5573 36.478 30.0324 35.621C31.5864 32.8174 33.9675 29.3161 36.8389 25.6122C37.6754 24.5332 39.3882 22.3841 39.4211 22.3721C39.4361 22.3666 39.9594 23.004 40.5841 23.7886ZM46.8814 37.9859C47.0927 38.8866 47.2152 39.56 47.2968 40.2701C47.4601 41.6899 47.4189 43.3191 47.1912 44.4408C47.0146 45.3112 46.8735 45.8026 46.601 46.4964C46.0019 48.0214 45.1087 49.3578 43.8988 50.539C43.2991 51.1246 42.8267 51.5022 42.034 52.0299C41.6786 52.2664 41.3879 52.4637 41.3879 52.4683C41.3879 52.4771 41.3966 52.4765 42.0254 52.4212C43.9172 52.2547 45.6583 51.4539 46.9552 50.1537C47.8364 49.2704 48.49 48.145 48.7973 46.982C49.1658 45.5876 49.2366 43.8357 48.985 42.3396C48.7816 41.1307 48.3157 39.725 47.7921 38.7404C47.5052 38.2009 46.7296 37.0644 46.7029 37.1445C46.6968 37.1628 46.7771 37.5415 46.8814 37.9859Z" fill="#E0E0E0"/>
</g>
</svg>
