<svg id="Слой_1" data-name="Слой 1" xmlns="http://www.w3.org/2000/svg" viewBox="0 0 153 113"><defs><style>.cls-1{fill:#11b7eb;}.cls-1,.cls-2{fill-rule:evenodd;isolation:isolate;opacity:0.6;}.cls-2{fill:#06568a;}</style></defs><path class="cls-1" d="M420.53-6.88C404.4,9.29,391.21,22.72,391.21,23c0,.52,3.5,4,4,4a66.29,66.29,0,0,0,5.86-5.61l5.5-5.61v61h6.15v-67L431.44-9.1l18.7-18.79L464-13.95,477.92,0l6.34-.11,6.33-.11.1-8.58.1-8.58h7.29v17H522.3V-6.6H504.23v-17h-19.6V-6.21h-4.28l-14.93-15c-8.22-8.27-15.08-15-15.26-15S436.65-23.06,420.53-6.88Z" transform="translate(-391.21 36.29)"/><path class="cls-2" d="M502.8,11.11c1.29-1.06,2.56-3.6,2.05-4.1a6.62,6.62,0,0,0-2-.5c-1.54-.23-1.8-.16-2.32.64-1.1,1.68-3.67,1.52-4.23-.25-.13-.42-.36-.75-.5-.72L494,6.49a7.3,7.3,0,0,0-1.77.43c-.41.49.7,2.83,1.9,4A6.6,6.6,0,0,0,502.8,11.11Z" transform="translate(-391.21 36.29)"/><path class="cls-2" d="M464.76,39.72a13.52,13.52,0,0,0,8.75-.07,12.45,12.45,0,0,0,8.14-7.22c1.07-2.27,1.14-2.66,1-6-.2-4.23-1.19-6.54-3.89-9s-4.84-3.35-9.1-3.45a22.23,22.23,0,0,0-4.81.26,15,15,0,0,0-8.33,7.24c-.74,1.51-.89,2.44-.89,5.48,0,3.2.13,3.94,1,5.79A12.41,12.41,0,0,0,464.76,39.72Zm.41-18.2c1.85-1.46,5.19-1.71,7-.51a5.73,5.73,0,0,1,2.72,3c2,4.86-.94,9.85-5.83,9.85A7.07,7.07,0,0,1,464.63,32C461.87,29.38,462.16,23.9,465.17,21.52Z" transform="translate(-391.21 36.29)"/><path class="cls-2" d="M444.07,14.24,442,17.8c-3,5-3.63,6-3.85,6A49.36,49.36,0,0,1,435,19.05l-2.88-4.8h-7.5V39.68h6.9l.11-7,.1-7,3,4.66A42.49,42.49,0,0,0,438.08,35,38.28,38.28,0,0,0,441,30.8c1.48-2.32,2.9-4.53,3.16-4.9.37-.55.47.75.48,6.55v7.23h6.92V14.23h-7.5Z" transform="translate(-391.21 36.29)"/><path class="cls-2" d="M493.36,39.68l1.52-2.22c.83-1.22,2.79-4.12,4.36-6.46s3.08-4.47,3.35-4.75.49.82.49,6.46v7H510V14.23h-3.46c-1.9,0-3.46.14-3.46.32a3,3,0,0,1-.67,1.13c-.37.44-2.14,3-3.94,5.7s-3.65,5.36-4.12,5.92l-.86,1V14.23h-6.92V39.68h6.81Z" transform="translate(-391.21 36.29)"/><path class="cls-2" d="M497.24,45.54A13.61,13.61,0,0,0,487,53.18a10.54,10.54,0,0,0-1,5.4c0,2.8.14,3.6,1.05,5.52a13.74,13.74,0,0,0,16,7.43,13,13,0,0,0,9.82-9.85,12.29,12.29,0,0,0-2.33-11.12C507.62,46.62,502.85,44.82,497.24,45.54Zm5.17,19.21a5.17,5.17,0,0,1-5,.17c-3.34-1.4-4.82-4.52-3.93-8.27a5.31,5.31,0,0,1,2-3.26,8,8,0,0,1,2.36-1.5,8.31,8.31,0,0,1,5,.9c2.22,1.38,3.08,3,3.07,5.79C506,61.68,504.85,63.59,502.41,64.75Z" transform="translate(-391.21 36.29)"/><path class="cls-2" d="M481.17,65.14V45.85H461.71l-.44,6.46c-.41,5.95-.93,9-2,11.77a1.35,1.35,0,0,1-1.56,1.06h-1.16V76.71h6.48l.21-1.64c.12-.9.26-2.08.32-2.61l.1-1,6.63-.11,6.63-.1v5.42h6l.47-4c.26-2.17.47-4.77.47-5.78V65.14h-2.69Zm-7.31-6.56v6.56h-3.67c-3.32,0-3.66-.07-3.49-.68a44.62,44.62,0,0,0,1.66-9L468.6,52h5.26Z" transform="translate(-391.21 36.29)"/><path class="cls-2" d="M540.4,45.85h-3.82l-1.82,3c-2.57,4.21-4.12,6.65-4.21,6.65s-1-1.51-2.1-3.37-2.46-4-3-4.82l-1-1.45h-7.58V71.31h6.9l.11-7.22.1-7.22,2.19,3.46c1.21,1.9,2.66,4.13,3.24,5,1.24,1.78.84,2.12,4.95-4.26l2.69-4.19.11,7.24.1,7.23h6.9V45.85Z" transform="translate(-391.21 36.29)"/></svg>