<svg width="242" height="59" viewBox="0 0 242 59" fill="none" xmlns="http://www.w3.org/2000/svg">
<g opacity="0.6">
<path d="M144.606 39.1082V22.9512L147.495 20.0512H153.355V39.1082H150.466V22.2883H149.475L147.495 24.2769V39.1082H144.606Z" fill="#D0D0D0"/>
<path fill-rule="evenodd" clip-rule="evenodd" d="M102.099 20.2169H107.711L110.518 22.6198V36.2911L107.711 39.1082H104.905V48.3881H102.099V20.2169ZM104.74 36.7053V22.5369H106.391L107.711 23.4483V35.2968L106.391 36.7053H104.74Z" fill="#D0D0D0"/>
<path fill-rule="evenodd" clip-rule="evenodd" d="M70.322 14.5827V17.2341H72.3854L70.8172 19.3884V29.5797L73.5409 32.314H77.2551V36.7882L74.6139 37.2025V39.0253H82.7851V37.2025L80.1439 36.7882V32.314H83.6105L86.3342 29.414V18.7255L83.1978 14.5827H70.322ZM77.2551 17.2341H74.9441L73.706 18.9741V28.5026L75.5218 30.3254H77.2551V17.2341ZM79.8963 17.2341H82.2074L83.4454 18.9741V28.5026L81.6296 30.3254H79.8963V17.2341Z" fill="#D0D0D0"/>
<path fill-rule="evenodd" clip-rule="evenodd" d="M90.0484 22.8683V36.5396L92.442 39.1082H95.826L98.4673 36.5396V22.8683L95.826 20.2169H92.442L90.0484 22.8683ZM93.6801 22.8683L92.7722 23.7798V36.0425L93.6801 36.9539H94.8356L95.826 36.0425V23.7798L94.8356 22.8683H93.6801Z" fill="#D0D0D0"/>
<path d="M39.0645 33.0013C41.2403 28.2639 46.8298 26.1942 51.5489 28.3784C55.9199 30.4015 58.0112 35.3643 56.5671 39.8499C56.4233 40.2376 56.2716 40.6214 56.1122 41.0011C51.6721 51.5764 41.2495 59 29.0996 59C21.3579 59 14.3175 55.986 9.07913 51.0632C10.2554 51.2823 11.3954 51.4693 12.5 51.6205C20.5518 52.886 26.1644 51.8926 30.5397 48.4764C33.824 45.9121 36.3664 41.8303 38.2708 35.7792C38.3884 34.8413 38.6493 33.9054 39.0645 33.0013Z" fill="#8D8D8D"/>
<path d="M19.6071 25.9987C17.4313 30.7361 11.8418 32.8058 7.12264 30.6216C2.7517 28.5985 0.660425 23.6357 2.10443 19.1501C2.24825 18.7624 2.39999 18.3786 2.55943 17.9988C6.99946 7.42357 17.4221 -5.33139e-07 29.572 0C37.3137 3.39707e-07 44.3541 3.01399 49.5925 7.93685C48.4162 7.71765 47.2762 7.53067 46.1716 7.37952C38.1197 6.11401 32.5072 7.10744 28.1319 10.5236C24.8476 13.0879 22.3052 17.1697 20.4008 23.2208C20.2832 24.1587 20.0223 25.0946 19.6071 25.9987Z" fill="#989898"/>
<path d="M25.8986 39.7125C30.6178 41.8967 32.6796 47.5078 30.5038 52.2452C28.4885 56.633 23.5448 58.7323 19.0765 57.2828C18.6903 57.1384 18.3079 56.9861 17.9296 56.826C7.39501 52.3688 0 41.9059 0 29.7091C0 21.9375 3.00239 14.8699 7.90631 9.61133C7.68796 10.7921 7.50169 11.9366 7.35113 13.0454C6.09049 21.1284 7.08009 26.7626 10.4831 31.1548C13.0376 34.4518 17.1036 37.004 23.1315 38.9158C24.0657 39.0338 24.998 39.2957 25.8986 39.7125Z" fill="#D3D3D3"/>
<path d="M32.8744 19.1857C28.1552 17.0015 26.0934 11.3904 28.2692 6.65303C30.2845 2.26521 35.2282 0.16586 39.6965 1.61545C40.0827 1.75982 40.4651 1.91214 40.8434 2.0722C51.378 6.52938 58.773 16.9923 58.773 29.1891C58.773 36.9607 55.7706 44.0283 50.8667 49.2869C51.085 48.1061 51.2713 46.9617 51.4219 45.8528C52.6825 37.7699 51.6929 32.1356 48.2899 27.7434C45.7354 24.4464 41.6693 21.8942 35.6415 19.9825C34.7073 19.8645 33.775 19.6025 32.8744 19.1857Z" fill="#4A4A4A"/>
<path d="M114.067 39.0253V20.0512H117.451L120.752 23.6969H122.156L125.787 20.0512H128.841V39.0253H126.2V23.6969L122.981 26.6797V39.0253H119.927V26.6797L116.956 23.6969V39.0253H114.067Z" fill="#D0D0D0"/>
<path d="M203.042 39.0253V20.0512H206.426L209.728 23.6969H211.131L214.763 20.0512H217.816V39.0253H215.175V23.6969L211.956 26.6797V39.0253H208.902V26.6797L205.931 23.6969V39.0253H203.042Z" fill="#D0D0D0"/>
<path d="M132.555 20.2169H135.362V35.2968L136.269 36.7882H138.085V20.2169H140.974V45.2395L138.085 48.3052H135.362L132.555 45.571V41.7596H134.949V44.2453L136.269 45.571H137.508L138.58 44.2453V39.191H135.362L132.555 36.7882V20.2169Z" fill="#D0D0D0"/>
<path fill-rule="evenodd" clip-rule="evenodd" d="M158.967 24.9397H156.656V22.5369L159.132 20.0512H163.094L165.57 22.5369V37.451H167.138V38.9425L163.754 39.0253H159.132L156.656 36.7053V29.7454L159.462 26.9283H163.094V24.1112L162.021 23.0341H159.628L158.967 24.9397ZM163.094 29.3311H160.866L159.132 31.154V35.1311L160.453 36.2911H162.021L163.094 35.1311V29.3311Z" fill="#D0D0D0"/>
<path fill-rule="evenodd" clip-rule="evenodd" d="M192.147 24.9397H189.836V22.5369L192.312 20.0512H196.274L198.75 22.5369V37.451H200.319V38.9425L196.935 39.0253H192.312L189.836 36.7053V29.7454L192.643 26.9283H196.274V24.1112L195.201 23.0341H192.808L192.147 24.9397ZM196.274 29.3311H194.046L192.312 31.154V35.1311L193.633 36.2911H195.201L196.274 35.1311V29.3311Z" fill="#D0D0D0"/>
<path d="M176.63 17.3998V15.0798H181.335V17.3998H180.344V23.0341H182.078L183.151 21.9569V17.3998H182.408V15.0798H187.195V17.3998H186.122V22.5369L183.976 24.2769V25.0226L186.122 26.8454V36.7882H187.195V39.0253H182.408V36.7882H183.563V28.5026L181.335 25.8512H180.344V36.7882H181.335V39.0253H176.63V36.7882H177.703V19.4712L179.354 17.3998H176.63Z" fill="#D0D0D0"/>
<path d="M221.531 20.2169H224.254V28.4197H227.226V20.2169H230.032V39.1082H227.226V30.7397H224.254V39.1082H221.531V20.2169Z" fill="#D0D0D0"/>
<path fill-rule="evenodd" clip-rule="evenodd" d="M236.387 39.1082H233.581V32.1482L235.48 30.574V30.0768L233.581 28.5854V22.7855L236.387 20.2169H242V39.1082H239.524V31.6511H237.626L236.387 32.7282V39.1082ZM237.626 28.834L235.975 27.674V23.6969L237.626 22.2883H239.111L239.524 23.1998V28.834H237.626Z" fill="#D0D0D0"/>
</g>
</svg>
