<svg width="245" height="60" viewBox="0 0 245 60" fill="none" xmlns="http://www.w3.org/2000/svg">
<g opacity="0.6">
<path fill-rule="evenodd" clip-rule="evenodd" d="M155.363 3.86593C155.18 4.49606 154.99 5.14715 154.718 5.75643C154.647 5.91711 154.799 6.11698 154.979 6.09923C155.665 6.03341 156.368 6.05516 157.047 6.07636C158.425 6.11909 159.727 6.15935 160.705 5.46954C162.075 4.50364 162.371 2.64674 161.367 1.32933C160.363 0.0119091 158.434 -0.273943 157.064 0.691971C156.087 1.38175 155.735 2.58845 155.363 3.86593ZM206.084 32.7876C205.9 33.4202 205.711 34.0739 205.439 34.6855C205.367 34.8468 205.52 35.0474 205.7 35.0296C206.386 34.9635 207.089 34.9854 207.768 35.0067C209.146 35.0495 210.448 35.09 211.426 34.3975C212.795 33.4278 213.092 31.5637 212.088 30.2412C211.084 28.9187 209.154 28.6317 207.786 29.6014C206.808 30.2938 206.456 31.5052 206.084 32.7876ZM218.346 35.5441H216.481C213.364 35.5441 211.67 36.1611 209.706 39.0323L202.096 50.4455V35.5441H197.04V57.3269H202.858L213.29 41.8797V57.3269H218.346V35.5441ZM239.264 35.559H244.326V57.3269H239.264V48.5773H228.083V57.3269H223.02V35.559H228.083V44.0005H239.264V35.559ZM172.022 43.565V49.2973C172.022 57.1279 172.71 57.3269 180.264 57.3269H192.847V52.7553H180.021C177.412 52.7553 177.046 52.3289 177.046 49.5578V48.5867H189.751V44.0624H177.046V43.3281C177.046 40.5568 177.412 40.1304 180.021 40.1304H192.71V35.5589H179.078C172.641 35.5589 172.022 36.4881 172.022 43.565ZM134.16 6.75621H128.621C122.2 6.75621 120.337 8.50023 120.337 14.7221V20.4255C120.337 26.6003 122.837 28.3915 129.258 28.3915H133.547C140.017 28.3915 142.468 26.6003 142.468 20.4255V14.7221C142.468 8.50023 140.655 6.75621 134.16 6.75621ZM137.42 20.4255C137.42 23.183 136.807 23.8429 134.184 23.8429H128.646C126.023 23.8429 125.41 23.183 125.41 20.4255V14.7221C125.41 11.9647 126.023 11.3048 128.646 11.3048H134.184C136.807 11.3048 137.42 11.9647 137.42 14.7221V20.4255ZM142.444 35.5589H128.596C122.176 35.5589 120.313 37.3137 120.337 43.5737V49.3121C120.337 55.5246 122.2 57.3269 128.621 57.3269H142.468V52.7504H128.621C125.999 52.7504 125.386 52.0864 125.386 49.3121V43.5737C125.386 40.7994 125.999 40.1354 128.621 40.1354H137.468V42.3946H141.987C142.446 40.862 142.446 40.4888 142.444 38.6547V38.6461C142.444 38.5248 142.444 38.3971 142.444 38.2621V35.5589ZM153.889 35.5589H167.737V38.2621C167.737 38.4002 167.737 38.5308 167.737 38.6546C167.738 40.4888 167.739 40.862 167.28 42.3946H162.761V40.1354H153.914C151.292 40.1354 150.679 40.7994 150.679 43.5737V49.3121C150.679 52.0864 151.292 52.7504 153.914 52.7504H167.761V57.3269H153.914C147.493 57.3269 145.63 55.5246 145.63 49.3121V43.5737C145.605 37.3137 147.468 35.5589 153.889 35.5589ZM94.907 43.5737C94.907 37.2425 96.8359 35.5589 103.16 35.5589H116.076V57.3269H111.046V50.0236H99.9367V57.3269H94.907V43.5737ZM99.9367 45.5183H111.046V40.1591H103.16C100.254 40.1591 99.9367 41.1313 99.9367 43.5975V45.5183ZM89.9735 40.2066V35.5589H69.6142V57.3269H76.4822H83.3507C88.3302 57.3269 90.7833 54.8607 90.7833 50.8059C90.7833 50.1419 90.6602 49.478 90.4889 48.8377C89.8263 46.4903 87.5696 44.9253 85.0432 44.9253H74.6671V40.2066H89.9735ZM83.3999 48.5297H74.6671V52.7504H83.3999C85.0924 52.7504 85.7053 51.8492 85.7053 50.5688C85.7053 49.3121 85.0924 48.5297 83.3999 48.5297ZM115.458 12.5068C115.458 14.7928 114.477 16.2776 113.299 16.9611C114.869 17.6209 116.464 19.2236 116.488 21.9103C116.488 25.9404 114.035 28.3915 109.056 28.3915H95.3194V6.75621H108.541C113.716 6.75621 115.483 9.58434 115.458 12.5068ZM107.977 11.3755H100.372V15.2642H107.977C109.718 15.2642 110.405 14.5572 110.405 13.2374C110.405 11.9647 109.718 11.3755 107.977 11.3755ZM100.372 23.8429H109.105C110.798 23.8429 111.41 22.9473 111.41 21.6746C111.41 20.4255 110.798 19.6478 109.105 19.6478H100.372V23.8429ZM167.761 6.69287H165.896C162.778 6.69287 161.085 7.28377 159.12 10.1675L151.511 21.5368V6.69287H146.455V28.3915H152.272L162.705 13.0039V28.3915H167.761V6.69287ZM90.7833 6.75621V11.4698L82.5827 11.3519V28.3915H77.54V11.3519L69.3394 11.4698V6.75621H90.7833Z" fill="white"/>
<path fill-rule="evenodd" clip-rule="evenodd" d="M14.79 3.92236C6.81725 3.92236 0.354004 10.3854 0.354004 18.3579V45.3999C0.354004 53.3726 6.81725 59.8355 14.79 59.8355H40.8441C48.8169 59.8355 55.2802 53.3726 55.2802 45.3999V18.3579C55.2802 10.3854 48.8169 3.92236 40.8441 3.92236H14.79ZM15.4327 10.5469C10.6818 10.5469 6.83045 14.3981 6.83045 19.1489V44.6089C6.83045 49.3598 10.6818 53.211 15.4327 53.211H40.2014C44.9524 53.211 48.8037 49.3598 48.8037 44.6089V19.1489C48.8037 14.3981 44.9524 10.5469 40.2014 10.5469H15.4327Z" fill="white"/>
<path d="M28.8306 14.6742C31.8399 14.6742 34.854 14.6041 37.8587 14.7069C39.7793 14.7723 41.3822 15.6416 42.6158 17.1511C45.0644 20.1514 44.2794 24.5959 41.1298 26.7456C39.8774 27.6008 38.4849 27.942 36.9989 27.8298C35.0643 27.6803 33.4568 26.8204 32.3119 25.2594C30.2558 22.4554 29.8025 17.9035 28.8306 14.6742Z" fill="#929292"/>
</g>
</svg>
