<svg width="236" height="56" viewBox="0 0 236 56" fill="none" xmlns="http://www.w3.org/2000/svg">
<g opacity="0.6">
<path d="M1.11333 22.742V34.215C11.4527 34.215 18.6452 30.4477 25.498 26.2416V55.3782H36.5668V26.2416C43.3697 29.9945 49.6632 34.215 60.452 34.215V22.742C45.7214 22.742 36.5668 11.6321 36.5668 0.984427H25.498C25.498 11.7146 16.3433 22.742 1.11333 22.742Z" fill="#414141"/>
<path fill-rule="evenodd" clip-rule="evenodd" d="M25.0981 0.584473H36.9668V0.984427C36.9668 11.4092 45.9403 22.342 60.452 22.342H60.852V34.615H60.452C50.6388 34.615 44.4858 31.1511 38.4124 27.7319C37.9307 27.4607 37.4494 27.1897 36.9668 26.9208V55.7782H25.0981V26.9546C18.4034 31.0222 11.2566 34.615 1.11333 34.615H0.713379V22.342H1.11333C16.1311 22.342 25.0981 11.4852 25.0981 0.984427V0.584473ZM25.8938 1.38438C25.6718 12.1198 16.5302 22.9503 1.51329 23.1394V33.8131C11.5267 33.7176 18.5449 30.0401 25.2888 25.9008L25.898 25.5269V54.9783H36.1669V25.5642L36.76 25.8914C37.4457 26.2697 38.1251 26.6519 38.8033 27.0335C44.79 30.4018 50.6894 33.721 60.0521 33.8131V23.1392C45.5182 22.9424 36.3946 12.0326 36.1711 1.38438H25.8938Z" fill="#414141"/>
<path d="M78.5831 5.92974V15.3168H94.5166C96.8561 15.3579 97.9035 15.5937 97.9856 18.3948V50.4338H106.978V18.3948C106.978 17.0557 106.978 15.3168 110.042 15.3168H126.384V5.92974H97.9856H78.5831Z" fill="#AAADB1"/>
<path fill-rule="evenodd" clip-rule="evenodd" d="M78.1831 5.52979H126.784V15.7167H110.042C108.581 15.7167 107.979 16.1276 107.699 16.5683C107.389 17.0548 107.378 17.6987 107.378 18.3948V50.8337H97.5857V18.4007C97.5447 17.0284 97.2665 16.4408 96.861 16.1433C96.648 15.987 96.3629 15.8817 95.9681 15.8156C95.5722 15.7494 95.0951 15.727 94.5131 15.7167H78.1831V5.52979ZM78.983 14.9168H94.5236C95.1097 14.9271 95.6398 14.9497 96.1 15.0267C96.5622 15.104 96.9827 15.2404 97.3342 15.4983C98.0573 16.0288 98.3436 16.9584 98.3854 18.383L98.3856 18.3889V50.0338H106.578V18.3948C106.578 18.38 106.578 18.3652 106.578 18.3502C106.578 17.7109 106.578 16.8403 107.024 16.139C107.509 15.3755 108.438 14.9168 110.042 14.9168H125.984V6.32969H78.983V14.9168Z" fill="#AAADB1"/>
<path d="M235.171 5.92974V15.2776L197.578 15.2776C195.498 15.2776 194.874 16.0905 194.874 17.3098V39.0537C194.874 40.273 195.914 41.2891 197.578 41.2891L235.171 41.2891V50.4337L199.034 50.4338C191.13 50.4338 185.722 46.1663 185.722 39.0537V17.3098C185.722 10.8069 191.13 5.92976 199.034 5.92976L235.171 5.92974Z" fill="#AAADB1"/>
<path fill-rule="evenodd" clip-rule="evenodd" d="M235.571 5.52979V15.6776L197.578 15.6776C196.577 15.6776 196.016 15.8756 195.706 16.1405C195.411 16.3924 195.274 16.7663 195.274 17.3098V39.0537C195.274 40.001 196.08 40.8892 197.578 40.8892L235.571 40.8891V50.8337L199.034 50.8337C195.014 50.8337 191.587 49.7483 189.158 47.7178C186.721 45.6806 185.322 42.72 185.322 39.0537V17.3098C185.322 10.5349 190.964 5.52981 199.034 5.52981L235.571 5.52979ZM234.771 6.32969L199.034 6.32972C191.296 6.32972 186.122 11.0789 186.122 17.3098V39.0537C186.122 42.5 187.428 45.2294 189.671 47.1041C191.922 48.9854 195.151 50.0338 199.034 50.0338L234.771 50.0338V41.689L197.578 41.6891C195.748 41.6891 194.474 40.545 194.474 39.0537V17.3098C194.474 16.6339 194.649 15.9918 195.186 15.5325C195.708 15.0861 196.499 14.8777 197.578 14.8777L234.771 14.8777V6.32969Z" fill="#AAADB1"/>
<path d="M143.884 5.92974H132.977L132.977 17.8787C132.977 10.7824 132.993 5.92974 143.884 5.92974Z" fill="#AAADB1"/>
<path fill-rule="evenodd" clip-rule="evenodd" d="M132.977 38.678L141.742 39.7637L141.744 35.1513C141.744 33.8077 142.631 32.4642 143.922 32.4642H168.223C169.69 32.4642 170.171 33.6398 170.171 34.8154L170.168 39.7637C170.168 41.6357 169.389 42.1972 168.22 42.1972H143.884C142.715 42.1972 141.742 41.2613 141.742 39.7637L132.977 38.678C132.977 45.7914 132.977 50.4338 139.794 50.4338H168.22C174.453 50.4338 179.13 46.0705 179.13 38.9572C179.13 34.7225 178.228 31.0361 176.371 28.4328C178.227 25.8297 179.127 22.1439 179.127 17.9102C179.127 10.7968 174.453 5.92974 168.221 5.92974L143.884 5.92974C132.993 5.92974 132.977 10.7824 132.977 17.8787V17.9102L132.977 38.678ZM168.221 14.1663C169.389 14.1663 170.168 14.7279 170.168 16.5998L170.168 22.052C170.168 23.2275 169.688 24.4031 168.221 24.4031L143.884 24.4031C142.593 24.4031 141.742 23.0596 141.742 21.7161V16.5998C141.742 15.1022 142.715 14.1663 143.884 14.1663H168.221Z" fill="#AAADB1"/>
<path d="M139.794 50.4338C132.977 50.4338 132.977 45.7914 132.977 38.678V50.4338H139.794Z" fill="#AAADB1"/>
<path fill-rule="evenodd" clip-rule="evenodd" d="M176.858 28.4328C178.67 31.1106 179.53 34.7961 179.53 38.9572C179.53 42.6038 178.329 45.5786 176.297 47.6435C174.266 49.7079 171.432 50.8337 168.22 50.8337H132.577V5.52979L168.221 5.52979C174.703 5.52979 179.527 10.6059 179.527 17.9102C179.527 22.0702 178.669 25.7551 176.858 28.4328ZM137.713 6.3297H133.377V10.2745C133.549 9.83369 133.757 9.41619 134.011 9.02512C134.792 7.82456 135.97 6.91826 137.713 6.3297ZM143.884 6.3297C138.476 6.3297 135.933 7.53754 134.682 9.46111C134.046 10.4388 133.715 11.6423 133.547 13.0649C133.379 14.4898 133.377 16.0985 133.377 17.8787L133.377 38.3245L141.342 39.3112L141.344 35.1513C141.344 34.3967 141.592 33.6388 142.03 33.0619C142.472 32.4816 143.125 32.0643 143.922 32.0643H168.223C169.081 32.0643 169.694 32.4175 170.076 32.9721C170.443 33.5045 170.571 34.183 170.571 34.8154L170.568 39.7637C170.568 40.7433 170.366 41.4708 169.928 41.9517C169.482 42.442 168.864 42.5972 168.22 42.5972H143.884C142.568 42.5972 141.505 41.6109 141.359 40.1193L133.377 39.1306C133.378 40.7335 133.386 42.1894 133.483 43.4862C133.588 44.9053 133.797 46.103 134.199 47.0699C134.597 48.0268 135.182 48.7542 136.051 49.2498C136.929 49.7502 138.131 50.0338 139.794 50.0338H168.22C171.241 50.0338 173.862 48.978 175.727 47.0825C177.592 45.1874 178.73 42.424 178.73 38.9572C178.73 34.7706 177.837 31.1766 176.045 28.6651L175.88 28.4329L176.045 28.2007C177.836 25.6892 178.727 22.0959 178.727 17.9102C178.727 10.9877 174.203 6.32969 168.221 6.32969L143.884 6.3297ZM135.818 50.0338C135.763 50.0049 135.709 49.9752 135.655 49.9447C134.607 49.3476 133.914 48.4698 133.46 47.3769C133.432 47.3083 133.404 47.2388 133.377 47.1685V50.0338H135.818ZM169.418 33.4258C169.192 33.0988 168.832 32.8642 168.223 32.8642H143.922C143.428 32.8642 142.992 33.1186 142.667 33.546C142.34 33.9766 142.144 34.5623 142.144 35.1513L142.142 39.7637C142.142 41.0703 142.965 41.7973 143.884 41.7973H168.22C168.746 41.7973 169.101 41.6716 169.337 41.4132C169.581 41.1454 169.768 40.656 169.768 39.7637L169.771 34.8154C169.771 34.2722 169.658 33.7751 169.418 33.4258ZM170.568 16.5998L170.568 22.052C170.568 22.6843 170.44 23.3629 170.074 23.8952C169.692 24.4493 169.08 24.8024 168.223 24.8031L141.744 24.8031V24.0032H142.171C142.114 23.9387 142.059 23.8714 142.007 23.8019C141.578 23.2238 141.342 22.4669 141.342 21.7161V16.5998C141.342 14.9114 142.466 13.7663 143.884 13.7663H168.221C168.864 13.7663 169.482 13.9215 169.928 14.4118C170.366 14.8927 170.568 15.6201 170.568 16.5998ZM143.884 24.0032C143.391 24.0032 142.965 23.7503 142.65 23.325C142.331 22.8954 142.142 22.3088 142.142 21.7161V16.5998C142.142 15.2931 142.965 14.5662 143.884 14.5662H168.221C168.746 14.5662 169.102 14.6919 169.337 14.9503C169.581 15.2181 169.768 15.7075 169.768 16.5998L169.768 22.052C169.768 22.5952 169.656 23.0922 169.415 23.4416C169.19 23.7686 168.829 24.0032 168.221 24.0032H143.884Z" fill="#AAADB1"/>
</g>
</svg>
