<svg width="264" height="50" viewBox="0 0 264 50" fill="none" xmlns="http://www.w3.org/2000/svg">
<g opacity="0.6">
<path d="M42.9031 38.1109H38.8838V37.1014H48.0151V38.1109H43.9762V47.2938H42.9031V38.1109Z" fill="#CBD3D9"/>
<path d="M50.1424 42.2073C50.1424 40.7189 50.6627 39.4764 51.7033 38.4798C52.7309 37.4703 54.0446 36.9655 55.6446 36.9655C57.2315 36.9655 58.5387 37.4573 59.5663 38.441C60.6199 39.4375 61.1467 40.693 61.1467 42.2073C61.1467 43.7086 60.6199 44.9576 59.5663 45.9542C58.5257 46.9508 57.2185 47.4491 55.6446 47.4491C54.0446 47.4491 52.7309 46.9573 51.7033 45.9736C50.6627 44.977 50.1424 43.7216 50.1424 42.2073ZM51.274 42.2073C51.274 43.411 51.6903 44.4205 52.5228 45.2359C53.3683 46.0383 54.4089 46.4396 55.6446 46.4396C56.9323 46.4396 57.9794 46.0383 58.7859 45.2359C59.6054 44.4334 60.0151 43.4239 60.0151 42.2073C60.0151 40.9907 59.5923 39.9811 58.7469 39.1787C57.9014 38.3762 56.8673 37.975 55.6446 37.975C54.4089 37.975 53.3683 38.3762 52.5228 39.1787C51.6903 39.9682 51.274 40.9777 51.274 42.2073Z" fill="#CBD3D9"/>
<path d="M65.3883 47.2744V37.1208C66.8321 37.069 67.8792 37.0431 68.5296 37.0431C70.897 37.0431 72.0807 37.8844 72.0807 39.567C72.0807 40.1882 71.8856 40.7189 71.4953 41.1589C71.1051 41.586 70.5913 41.8578 69.9539 41.9743V41.9937C70.7734 42.0843 71.3978 42.3367 71.827 42.7509C72.2693 43.1521 72.4904 43.7022 72.4904 44.4011C72.4904 45.3847 72.1262 46.1225 71.3978 46.6143C70.6694 47.1061 69.7003 47.352 68.4906 47.352C67.1898 47.352 66.1558 47.3261 65.3883 47.2744ZM68.6272 42.5762H66.4614V46.2648C67.437 46.3166 68.1329 46.3425 68.5491 46.3425C70.4612 46.3425 71.4173 45.6824 71.4173 44.3622C71.4173 43.7928 71.1766 43.3527 70.6954 43.0421C70.2141 42.7315 69.5247 42.5762 68.6272 42.5762ZM68.5101 38.0527C68.0028 38.0527 67.3199 38.0721 66.4614 38.1109V41.6249H68.6467C69.3231 41.6249 69.8824 41.4566 70.3247 41.1201C70.7799 40.7836 71.0075 40.35 71.0075 39.8194C71.0075 38.6416 70.1751 38.0527 68.5101 38.0527Z" fill="#CBD3D9"/>
<path d="M76.7189 47.2938H75.6262L80.4455 37.0237H81.343L86.1623 47.2938H85.0111L83.5088 44.0516H78.2212L76.7189 47.2938ZM83.0405 43.0615L80.8552 38.3439L78.67 43.0615H83.0405Z" fill="#CBD3D9"/>
<path d="M90.9664 43.4886V47.2938H89.8932V37.1014C90.3225 37.1014 90.7777 37.0949 91.259 37.082C91.7403 37.069 92.2151 37.0626 92.6833 37.0626C94.0621 37.0626 95.0767 37.3538 95.7271 37.9362C96.3775 38.5057 96.7027 39.2887 96.7027 40.2853C96.7027 41.256 96.358 42.0455 95.6686 42.6538C94.9792 43.2492 94.0036 43.5469 92.7419 43.5469C92.1565 43.5469 91.5647 43.5274 90.9664 43.4886ZM92.7809 38.0721C92.3777 38.0721 91.7728 38.085 90.9664 38.1109V42.4597C91.6557 42.5114 92.2281 42.5373 92.6833 42.5373C93.6069 42.5373 94.3158 42.3367 94.8101 41.9355C95.3174 41.5343 95.571 40.9842 95.571 40.2853C95.571 38.8098 94.641 38.0721 92.7809 38.0721Z" fill="#CBD3D9"/>
<path d="M110.779 47.2938H109.706V37.1014H110.779V47.2938ZM103.56 41.9161C103.131 41.9161 102.617 41.9355 102.018 41.9743V46.2842C102.851 46.3101 103.345 46.3231 103.501 46.3231C105.569 46.3231 106.604 45.5595 106.604 44.0322C106.604 43.3462 106.343 42.8221 105.823 42.4597C105.303 42.0973 104.548 41.9161 103.56 41.9161ZM100.945 37.1014H102.018V40.9648C102.669 40.926 103.202 40.9065 103.618 40.9065C104.971 40.9065 105.992 41.1783 106.682 41.7219C107.384 42.2526 107.735 43.0162 107.735 44.0128C107.735 45.0612 107.351 45.8765 106.584 46.459C105.817 47.0414 104.75 47.3326 103.384 47.3326C102.864 47.3326 102.422 47.3261 102.057 47.3132C101.693 47.3002 101.323 47.2938 100.945 47.2938V37.1014Z" fill="#CBD3D9"/>
<path d="M121.686 49.2158H120.671V46.2842H121.881C122.284 45.8054 122.668 44.9382 123.032 43.6828C123.409 42.4273 123.65 40.913 123.754 39.1399L123.871 37.1014H130.251V46.2842H131.753V49.2158H130.739V47.2938H121.686V49.2158ZM124.905 38.1109L124.768 39.8388C124.625 41.6249 124.385 43.055 124.046 44.1293C123.695 45.2294 123.37 45.9477 123.071 46.2842H129.178V38.1109H124.905Z" fill="#CBD3D9"/>
<path d="M143.627 47.2938H142.554V38.1109H138.106L137.93 40.0329C137.631 43.2168 137.13 45.2812 136.428 46.226C136.089 46.679 135.751 46.9831 135.413 47.1385C135.075 47.2808 134.678 47.3326 134.223 47.2938L134.242 46.2648C134.672 46.2907 135.049 46.1095 135.374 45.7212C135.621 45.4365 135.829 45.0612 135.998 44.5952C136.428 43.508 136.746 41.6896 136.954 39.1399L137.11 37.1014H143.627V47.2938Z" fill="#CBD3D9"/>
<path d="M155.291 47.2938H154.218V43.4886H151.721L148.736 47.2938H147.467L150.609 43.3139C149.945 43.068 149.399 42.6926 148.97 42.1879C148.554 41.6702 148.345 41.0813 148.345 40.4212C148.345 39.4117 148.71 38.5963 149.438 37.975C150.18 37.3538 151.214 37.0431 152.54 37.0431C152.683 37.0431 153.184 37.0561 154.043 37.082C154.472 37.0949 154.888 37.1014 155.291 37.1014V47.2938ZM151.604 42.4791H154.218V38.1109C153.36 38.0721 152.761 38.0527 152.423 38.0527C151.487 38.0527 150.758 38.2662 150.238 38.6933C149.731 39.1205 149.477 39.677 149.477 40.363C149.477 40.8936 149.692 41.3595 150.121 41.7608C150.537 42.162 151.032 42.4014 151.604 42.4791Z" fill="#CBD3D9"/>
<path d="M166.667 47.2938V37.1014H173.047V38.1109H167.74V41.2366C168.208 41.1848 168.846 41.1589 169.652 41.1589C170.953 41.1589 171.948 41.4178 172.637 41.9355C173.327 42.4532 173.672 43.1845 173.672 44.1293C173.672 45.1776 173.301 45.9801 172.559 46.5366C171.831 47.0802 170.784 47.352 169.418 47.352C169.249 47.352 168.735 47.3391 167.877 47.3132C167.46 47.3002 167.057 47.2938 166.667 47.2938ZM169.555 42.149C168.852 42.149 168.247 42.1749 167.74 42.2267V46.3037C168.026 46.3037 168.299 46.3101 168.56 46.3231C168.833 46.336 169.158 46.3425 169.535 46.3425C171.577 46.3425 172.598 45.6177 172.598 44.1681C172.598 42.8221 171.584 42.149 169.555 42.149Z" fill="#CBD3D9"/>
<path d="M177.902 47.2938H176.81L181.629 37.0237H182.526L187.346 47.2938H186.195L184.692 44.0516H179.405L177.902 47.2938ZM184.224 43.0615L182.039 38.3439L179.853 43.0615H184.224Z" fill="#CBD3D9"/>
<path d="M198.402 45.5077L198.832 46.3231C198.455 46.6725 197.947 46.9508 197.31 47.1579C196.686 47.352 196.035 47.4491 195.359 47.4491C193.668 47.4491 192.321 46.9767 191.32 46.0319C190.305 45.087 189.798 43.8122 189.798 42.2073C189.798 40.7059 190.286 39.4634 191.261 38.4798C192.25 37.4703 193.577 36.9655 195.242 36.9655C196.581 36.9655 197.707 37.2891 198.617 37.9362L198.11 38.7322C197.316 38.2274 196.36 37.975 195.242 37.975C193.954 37.975 192.913 38.3698 192.12 39.1593C191.326 39.9488 190.93 40.9648 190.93 42.2073C190.93 43.4757 191.339 44.4981 192.159 45.2747C192.991 46.0513 194.084 46.4396 195.437 46.4396C196.581 46.4396 197.57 46.1289 198.402 45.5077Z" fill="#CBD3D9"/>
<path d="M210.083 45.5077L210.513 46.3231C210.135 46.6725 209.628 46.9508 208.991 47.1579C208.366 47.352 207.716 47.4491 207.04 47.4491C205.349 47.4491 204.002 46.9767 203.001 46.0319C201.986 45.087 201.479 43.8122 201.479 42.2073C201.479 40.7059 201.967 39.4634 202.942 38.4798C203.931 37.4703 205.258 36.9655 206.923 36.9655C208.262 36.9655 209.387 37.2891 210.298 37.9362L209.791 38.7322C208.997 38.2274 208.041 37.975 206.923 37.975C205.635 37.975 204.594 38.3698 203.801 39.1593C203.007 39.9488 202.611 40.9648 202.611 42.2073C202.611 43.4757 203.02 44.4981 203.84 45.2747C204.672 46.0513 205.765 46.4396 207.118 46.4396C208.262 46.4396 209.251 46.1289 210.083 45.5077Z" fill="#CBD3D9"/>
<path d="M220.954 47.2938H214.476V37.1014H220.798V38.1109H215.55V41.6249H220.33V42.6344H215.55V46.2842H220.954V47.2938Z" fill="#CBD3D9"/>
<path d="M233.665 38.7904L226.485 47.2938H225.528V37.1014H226.602V45.6047L233.782 37.1014H234.738V47.2938H233.665V38.7904ZM227.363 34.4028H228.319C228.319 34.8688 228.475 35.2312 228.787 35.49C229.099 35.7359 229.535 35.8589 230.094 35.8589C230.614 35.8589 231.024 35.7359 231.323 35.49C231.635 35.2312 231.792 34.8688 231.792 34.4028H232.748C232.748 35.1017 232.507 35.6518 232.026 36.053C231.557 36.4413 230.914 36.6354 230.094 36.6354C229.223 36.6354 228.546 36.4413 228.065 36.053C227.597 35.6647 227.363 35.1147 227.363 34.4028Z" fill="#CBD3D9"/>
<path d="M248.755 47.2938H247.681V42.5956H240.95V47.2938H239.877V37.1014H240.95V41.586H247.681V37.1014H248.755V47.2938Z" fill="#CBD3D9"/>
<path d="M253.57 47.2938H252.477L257.297 37.0237H258.194L263.014 47.2938H261.862L260.36 44.0516H255.072L253.57 47.2938ZM259.892 43.0615L257.707 38.3439L255.521 43.0615H259.892Z" fill="#CBD3D9"/>
<path d="M42.6205 2.27979C40.43 2.27979 39.3887 3.10572 39.3887 6.01444V26.6269C39.3887 27.1655 39.6759 27.4169 40.2146 27.4169H43.9851C44.5237 27.4169 44.7751 27.1655 44.7751 26.6269V7.88177C44.7751 7.6304 44.8469 7.52267 45.0623 7.52267H45.3855C45.601 7.52267 45.7087 7.59449 45.8523 7.77404L59.2465 25.2982C60.6829 27.2014 61.2215 27.4169 63.412 27.4169H66.5001C68.6906 27.4169 69.732 26.591 69.732 23.6822V3.06981C69.732 2.53116 69.4806 2.27979 68.942 2.27979H65.1715C64.6329 2.27979 64.3815 2.53116 64.3815 3.06981V21.8149C64.3815 22.0663 64.2738 22.174 64.0942 22.174H63.771C63.5556 22.174 63.412 22.1022 63.3042 21.9226L49.946 4.39848C48.5814 2.56707 48.0787 2.27979 45.7805 2.27979H42.6205Z" fill="white"/>
<path d="M82.6068 7.70222C76.1432 7.70222 74.0604 9.78501 74.0604 14.992V20.163C74.0604 25.37 76.1432 27.4169 82.6068 27.4169H92.7692C99.2328 27.4169 101.316 25.37 101.316 20.163V14.992C101.316 9.78501 99.2328 7.70222 92.7692 7.70222H82.6068ZM79.1955 15.8538C79.1955 12.8374 80.0214 11.9396 83.1096 11.9396H92.2664C95.3905 11.9396 96.2165 12.8374 96.2165 15.8538V19.2653C96.2165 22.2817 95.3905 23.2154 92.2664 23.2154H83.1096C80.0214 23.2154 79.1955 22.2817 79.1955 19.2653V15.8538Z" fill="white"/>
<path d="M103.357 7.70222C102.854 7.70222 102.639 8.13314 102.89 8.59997L112.729 25.8009C113.411 26.986 114.13 27.4169 115.71 27.4169H118.654C120.27 27.4169 120.988 26.986 121.67 25.8009L131.51 8.59997C131.761 8.13314 131.546 7.70222 131.043 7.70222H127.057C126.59 7.70222 126.375 7.88177 126.195 8.20496L117.72 23.0359C117.613 23.2154 117.505 23.2513 117.325 23.2513H117.182C117.002 23.2513 116.895 23.2154 116.787 23.0359L108.348 8.20496C108.169 7.84586 107.917 7.70222 107.486 7.70222H103.357Z" fill="white"/>
<path d="M140.609 7.70222C134.145 7.70222 132.062 9.78501 132.062 14.992V20.163C132.062 25.37 134.145 27.4169 140.609 27.4169H150.771C157.235 27.4169 159.317 25.37 159.317 20.163V14.992C159.317 9.78501 157.235 7.70222 150.771 7.70222H140.609ZM137.197 15.8538C137.197 12.8374 138.023 11.9396 141.111 11.9396H150.268C153.392 11.9396 154.218 12.8374 154.218 15.8538V19.2653C154.218 22.2817 153.392 23.2154 150.268 23.2154H141.111C138.023 23.2154 137.197 22.2817 137.197 19.2653V15.8538Z" fill="white"/>
<path d="M165.113 2.28037C164.395 2.28037 164.036 2.63947 164.036 3.35768V26.6274C164.036 27.1661 164.323 27.4175 164.862 27.4175H168.74C169.279 27.4175 169.53 27.1661 169.53 26.6274V19.7327H184.397C189.891 19.7327 192.117 17.1831 192.117 12.3352V9.67786C192.117 4.82999 189.891 2.28037 184.397 2.28037H165.113ZM169.53 7.66689C169.53 7.3437 169.674 7.23597 169.997 7.23597H183.283C185.725 7.23597 186.623 8.27736 186.623 10.432V11.7966C186.623 13.9512 185.725 14.9926 183.283 14.9926H169.53V7.66689Z" fill="#5F5F5F"/>
<path d="M203.783 7.7028C197.319 7.7028 195.236 9.78559 195.236 14.9926V20.1636C195.236 25.3706 197.319 27.4175 203.783 27.4175H213.945C220.409 27.4175 222.491 25.3706 222.491 20.1636V14.9926C222.491 9.78559 220.409 7.7028 213.945 7.7028H203.783ZM200.371 15.8544C200.371 12.838 201.197 11.9402 204.285 11.9402H213.442C216.566 11.9402 217.392 12.838 217.392 15.8544V19.2659C217.392 22.2823 216.566 23.216 213.442 23.216H204.285C201.197 23.216 200.371 22.2823 200.371 19.2659V15.8544Z" fill="#5F5F5F"/>
<path d="M234.958 7.7028C228.494 7.7028 226.411 9.78559 226.411 14.9926V20.1636C226.411 25.3706 228.494 27.4175 234.958 27.4175H245.12C251.584 27.4175 253.666 25.3706 253.666 20.1636V14.9926C253.666 9.78559 251.584 7.7028 245.12 7.7028H234.958ZM231.546 15.8544C231.546 12.838 232.372 11.9402 235.46 11.9402H244.617C247.741 11.9402 248.567 12.838 248.567 15.8544V19.2659C248.567 22.2823 247.741 23.216 244.617 23.216H235.46C232.372 23.216 231.546 22.2823 231.546 19.2659V15.8544Z" fill="#5F5F5F"/>
<path d="M258.736 0.484863C258.197 0.484863 257.946 0.736235 257.946 1.27489V26.6274C257.946 27.1661 258.197 27.4175 258.736 27.4175H262.255C262.793 27.4175 263.045 27.1661 263.045 26.6274V1.27489C263.045 0.736235 262.793 0.484863 262.255 0.484863H258.736Z" fill="#5F5F5F"/>
<path fill-rule="evenodd" clip-rule="evenodd" d="M0.0839844 10.0914V33.3167C0.0839844 35.1976 2.13151 36.3648 3.75222 35.4079L23.129 23.9665C23.8692 23.5294 24.3233 22.7332 24.3233 21.8742V11.6869V3.50501C24.3233 1.84067 22.686 0.669009 21.109 1.20508L1.73215 7.79173C0.746675 8.12671 0.0839844 9.05135 0.0839844 10.0914ZM12.3742 20.8103C12.6902 20.6286 12.8006 20.2264 12.6214 19.9091C12.4401 19.5879 12.0315 19.4761 11.7117 19.66L4.76331 23.6546C4.44727 23.8363 4.33693 24.2386 4.51609 24.5559C4.69742 24.877 5.10599 24.9889 5.42585 24.805L12.3742 20.8103ZM10.2066 25.9622C10.518 25.7838 10.631 25.3904 10.4618 25.074C10.2853 24.744 9.87063 24.625 9.54573 24.8112L4.76471 27.5514C4.45332 27.7299 4.34027 28.1233 4.50946 28.4396C4.68599 28.7697 5.10066 28.8886 5.42556 28.7024L10.2066 25.9622Z" fill="#5F5F5F"/>
</g>
</svg>
