<svg id="Слой_1" data-name="Слой 1" xmlns="http://www.w3.org/2000/svg" viewBox="0 0 224 84.99"><defs><style>.cls-1{fill:#393c97;}</style></defs><path class="cls-1" d="M-82.46,389.78a40.81,40.81,0,0,0-25.81,12,40,40,0,0,0-11,21.08c-.93,4.88-.51,7.62,1.38,8.76,2.52,1.54,8.11-.21,14.58-4.61,2.93-2,5.18-3,6.38-2.86l1,.09.15,2.77c.15,2.56.24,2.86,1,3.61s1,.84,3,.81a8.71,8.71,0,0,0,3.92-.81c1-.45,1.8-.81,1.86-.81a38.71,38.71,0,0,1,1.92,6.68,28.15,28.15,0,0,1,0,8.1c-1,5.36-5.57,9.51-12.43,11.29a29.64,29.64,0,0,1-12.25-.15c-2.9-.75-3.83-.63-4.22.57-.3,1,1,2.71,4.46,6.17a40,40,0,0,0,16.32,10.09c5.3,1.78,8.65,2.23,15,2,7.43-.24,11.35-1.2,17.67-4.34,11.5-5.69,19.37-16.17,22.22-29.6a50,50,0,0,0,0-16.77A43,43,0,0,0-63.2,392.66,44.83,44.83,0,0,0-82.46,389.78Zm-15.09,10.78a10.71,10.71,0,0,0-1.53,4.55c-.12,1.66-.06,1.81.66,2.29,1.08.72,2.61.45,8.26-1.54,6.23-2.2,9.85-3.13,12.16-3.13,3.14,0,4.13.87,3.47,3.07s-.66,2.59-.18,3.07c.69.72,2.34.57,5.51-.45,11.56-3.76,21.26,2.08,24.73,14.93l.39,1.51-.75-.9c-5.6-6.62-10.39-8.88-18.86-8.88-3.65,0-6.71.63-12.67,2.56s-7.19,2.17-8.38,1.66-1.62-1.66-1.41-4.28c.21-2.32.12-2.65-.93-3.22-1.83-1-5.42.06-10.66,3-6.74,3.79-8.26,4.52-9.91,4.7-1.86.18-2.4-.18-2.87-2.08-.84-3.1,2.16-8.76,7.4-13.85a83.3,83.3,0,0,1,6.89-5.84A22.2,22.2,0,0,1-97.55,400.56ZM-67,423.26c1.5,2.35,2.43,10.57,1.71,15.21a23.21,23.21,0,0,1-7,13.73,23.72,23.72,0,0,1-16.11,7.32l-3.14.12,2-.57c7.13-2,11.65-6.56,13.77-13.94,1.35-4.67,1-12.77-.66-17.22a10.44,10.44,0,0,1-.57-2c0-.63,3-1.93,6-2.71C-68,422.45-67.49,422.48-67,423.26Zm13.3.85c3,1.35,6.83,5.21,8.62,8.7a5.63,5.63,0,0,1,.78,3.31c-.15,3.37-1.71,8.73-3.8,13-6.14,12.53-17.07,19.27-31.29,19.3a40.47,40.47,0,0,1-17.31-3.73c-2.37-1.08-5.24-2.68-5.06-2.86a12.17,12.17,0,0,1,2.46.48c9.4,2.41,19.4,1.81,26.68-1.63A30.42,30.42,0,0,0-57,443.23a37.27,37.27,0,0,0,1.08-18.76c-.15-.81-.12-1,.36-1A6.12,6.12,0,0,1-53.68,424.11Z" transform="translate(119.8 -389.65)"/><path class="cls-1" d="M-23,410.59A4.68,4.68,0,0,0-24,412c-.15.42-.27,6.23-.27,13.37,0,10.63.06,12.8.45,13.52a3.07,3.07,0,0,0,5,.93l1-.87.09-9,.09-9,3.65,3.64a22.12,22.12,0,0,0,4.46,3.82c1.38.3,2.37-.33,6-4L0,421v8.64c0,9.3.09,9.91,1.53,10.66A3.23,3.23,0,0,0,5.9,439c.27-.57.36-4.4.36-14V411.7l-.87-.87A2.59,2.59,0,0,0,3.08,410H1.65l-5.33,5.33L-9,420.65l-5.33-5.36-5.3-5.33H-21A2.72,2.72,0,0,0-23,410.59Z" transform="translate(119.8 -389.65)"/><path class="cls-1" d="M21.66,410.53A15.64,15.64,0,0,0,11.3,427.27a15,15,0,0,0,2.87,7.2,14.65,14.65,0,0,0,12.16,6.2,14.26,14.26,0,0,0,10.78-4.52,15.37,15.37,0,0,0,.42-21.35C34.3,411.28,31.18,410,26.27,410A14.87,14.87,0,0,0,21.66,410.53Zm8.86,6.83a10.09,10.09,0,0,1,4.22,4.85,12.42,12.42,0,0,1-.12,6.47,11,11,0,0,1-1.86,2.62,8.72,8.72,0,0,1-14.16-1.75c-.72-1.23-.81-1.69-.81-4.25,0-3.43.51-4.61,2.84-6.71a7.33,7.33,0,0,1,6.17-2.2A7.17,7.17,0,0,1,30.52,417.36Z" transform="translate(119.8 -389.65)"/><path class="cls-1" d="M47.62,410.59a4.68,4.68,0,0,0-1,1.39c-.15.42-.27,6.23-.27,13.37,0,13.58,0,13.76,1.56,14.84a3.55,3.55,0,0,0,3.5,0c1.08-.78,1.53-2.23,1.53-5.06V432.6l5.78-.12c5.63-.09,5.78-.12,7.64-1a12.27,12.27,0,0,0,5.78-6.11,10.72,10.72,0,0,0,.66-4.34,8.28,8.28,0,0,0-.93-4.58,11.64,11.64,0,0,0-5.54-5.66L64.51,410H56.4C48.58,410,48.28,410,47.62,410.59Zm16.65,6.47c3,2.29,2.93,6.5-.21,8.37-.93.54-1.65.63-6.05.75l-5,.09v-10l5.21.09C63,416.43,63.49,416.49,64.27,417.06Z" transform="translate(119.8 -389.65)"/><path class="cls-1" d="M78.82,410.68l-.84.72-.09,13.34c-.09,14.39-.06,14.69,1.47,15.48,1.26.66,22.07.66,23.33,0s1.5-1.29,1.5-2.86a2.51,2.51,0,0,0-.87-2.14l-.87-.87H84.13v-5.72h6.59c7.52,0,8.35-.18,9.16-1.9a3.33,3.33,0,0,0-.66-3.85c-.75-.72-.84-.72-7.94-.81L84.12,422v-5.69H93c7.73,0,9-.06,9.7-.51a3.2,3.2,0,0,0,.63-4.94l-.87-.87H79.66Z" transform="translate(119.8 -389.65)"/><path class="cls-1" d="M-23.2,448.83c-1.05.84-1,1.48.12,1.48a3,3,0,0,0,1.47-.36c.63-.39,1.65-.12,1.47.42a3.34,3.34,0,0,1-1.59.72c-1.65.42-2.55,1.29-2.55,2.53s.93,1.9,2.46,1.69a8.26,8.26,0,0,1,3.62-.09l1.11.24v-1.08q0-1-.36-1c-.27.06-.45-.54-.54-2-.12-1.72-.27-2.17-.87-2.65A4.05,4.05,0,0,0-23.2,448.83Zm3.05,3.94a2,2,0,0,1-.87.75c-.87.45-1.44,0-.87-.66S-20,452.23-20.15,452.77Z" transform="translate(119.8 -389.65)"/><path class="cls-1" d="M-10.2,451.66v3.46h.9c.87,0,.9-.06.9-1.35,0-1,.12-1.35.42-1.35s.78.6,1.2,1.35c.75,1.23.9,1.35,2,1.35H-3.6l-1.08-1.63-1.08-1.63.78-1.17a4.41,4.41,0,0,0,.78-1.81c0-.6-.15-.69-1-.69s-1,.12-1,.54c0,.66-1,1.87-1.65,1.87-.33,0-.45-.36-.45-1.2,0-1.14-.06-1.2-.9-1.2h-.9Z" transform="translate(119.8 -389.65)"/><path class="cls-1" d="M3.27,451.63v3.49H5.85a12.38,12.38,0,0,0,3.14-.3c.72-.39.78-2.17.12-2.71-.33-.27-.39-.48-.15-.72a2.45,2.45,0,0,0,.3-1.29c0-1.29-.66-1.63-3.62-1.81l-2.37-.18Zm4-1.18c0,.15-.45.33-1,.39-.75.09-1,0-1-.39s.24-.48,1-.39C6.86,450.12,7.31,450.27,7.31,450.45Zm0,2.56c0,.3-.36.48-1,.54-.84.09-1,0-1-.54s.15-.63,1-.54C7,452.53,7.31,452.71,7.31,453Z" transform="translate(119.8 -389.65)"/><path class="cls-1" d="M17,449.16l-1,1,1.2.09c.66.06,1.23,0,1.29-.21.15-.48,1.47-.39,1.65.12s.09.6-1.32.87c-1.65.3-2.67,1.23-2.67,2.41a2.23,2.23,0,0,0,.54,1.48,3.12,3.12,0,0,0,3.23.09c.3-.24.69-.33.87-.18a5.31,5.31,0,0,0,1.44.42l1.11.21v-1.08q0-1-.36-1c-.27.06-.42-.48-.48-1.78-.12-2.47-1-3.4-3.11-3.4A2.6,2.6,0,0,0,17,449.16Zm3.39,3.55c0,.15-.42.51-.9.75-.84.42-.93.42-1.11,0a.65.65,0,0,1,.24-.75C19.14,452.32,20.34,452.35,20.34,452.71Z" transform="translate(119.8 -389.65)"/><path class="cls-1" d="M30.85,448.62c-1,.57-1.5,1.63-1.53,3.28a2.7,2.7,0,0,0,1,2.5,2.62,2.62,0,0,0,2.37,1,2.93,2.93,0,0,0,3-1.81c.12-.51,0-.6-.87-.6a3.37,3.37,0,0,0-1.59.36c-1,.63-1.53.12-1.53-1.57s.51-2.2,1.53-1.57a3,3,0,0,0,1.47.36c1.14,0,1.2-.66.12-1.66A3.78,3.78,0,0,0,30.85,448.62Z" transform="translate(119.8 -389.65)"/><path class="cls-1" d="M43.4,449.25c0,1,.06,1.05,1.05,1.05h1v4.82h1.8V450.3h1.05c1,0,1-.06,1-1.05V448.2h-6Z" transform="translate(119.8 -389.65)"/><path class="cls-1" d="M57.89,451c.57,1.54,1.11,3,1.23,3.31.24.6-.63,1.14-1.77,1.14-.57,0-.78.15-.78.6s.21.6,1.77.6a3.5,3.5,0,0,0,2.07-.39c.27-.3,3.05-7.59,3.05-8a2.67,2.67,0,0,0-1-.09c-1,0-1.38.42-1.86,2.5-.24,1.05-.45.87-1-.93-.42-1.29-.54-1.42-1.56-1.51l-1.11-.09Z" transform="translate(119.8 -389.65)"/><path class="cls-1" d="M71.75,448.41a14.47,14.47,0,0,0-.48,1.75c-.78,3.07-1,3.46-1.56,3.46s-.57.21-.57,1.35,0,1.35.9,1.35c.69,0,.9-.12.9-.6s.21-.6,2-.6,2,.09,2.13.6.42.6,1,.6c.84,0,.87-.06.87-1.35s-.09-1.35-.6-1.35-.6-.21-.6-2.71V448.2H73.82A5.24,5.24,0,0,0,71.75,448.41Zm2.19,3.4c0,1.72,0,1.81-.75,1.81-.87,0-.87,0-.42-2.11C73.25,449.28,73.94,449.46,73.94,451.81Z" transform="translate(119.8 -389.65)"/><path class="cls-1" d="M83.22,451.66v3.46l1,0c.81,0,1.17-.27,2.31-1.72l1.35-1.72.09,1.72.09,1.75h2.07V448.2H89.07c-.63,0-1,.15-1,.36a6.87,6.87,0,0,1-1.35,1.9L85.35,452l0-1.9V448.2h-2.1Z" transform="translate(119.8 -389.65)"/><path class="cls-1" d="M97.59,449.31a2,2,0,0,0,.33,2.86l.63.54-.63,1c-.84,1.32-.81,1.39.42,1.39.9,0,1.11-.15,1.65-1.2.33-.66.75-1.2.9-1.2s.3.54.3,1.2c0,1.17,0,1.2,1,1.2h1.05V448.5h-2.52C98.37,448.5,98.19,448.53,97.59,449.31Zm3.6,1.47c0,.33-.24.42-.81.36-1.17-.12-1.26-.84-.12-.84C100.89,450.3,101.19,450.45,101.19,450.78Z" transform="translate(119.8 -389.65)"/></svg>