<svg width="225" height="86" viewBox="0 0 225 86" fill="none" xmlns="http://www.w3.org/2000/svg">
<path opacity="0.6" fill-rule="evenodd" clip-rule="evenodd" d="M38.1277 0.935739C28.0528 1.84978 19.1571 5.97105 12.3091 12.8972C6.51475 18.7577 2.78753 25.8529 1.25915 33.9327C-0.318041 42.2701 2.10868 44.7324 9.43287 42.226C11.6952 41.4519 15.3811 39.4607 17.8659 37.6708C19.9207 36.1904 22.4711 35.0986 23.6156 35.2091L24.5945 35.3037L24.7484 38.0786C24.8885 40.6069 24.9757 40.927 25.73 41.6819C26.4882 42.4407 26.7394 42.5079 28.7203 42.4803C30.3726 42.4575 31.2979 42.2626 32.6418 41.6545C33.6094 41.217 34.4457 40.8588 34.5005 40.8588C34.7206 40.8588 36.1265 45.7641 36.4122 47.5291C36.8036 49.9478 36.8063 53.54 36.4185 55.6065C35.415 60.9514 30.849 65.091 23.9956 66.8689C20.8664 67.6809 14.8966 67.6076 11.7296 66.7182C9.05167 65.9663 8.10781 66.0618 7.62091 67.1338C7.14928 68.1712 8.20274 69.6951 11.986 73.4477C16.8358 78.2587 21.8887 81.3707 28.3013 83.4973C32.9646 85.0434 36.5059 85.5998 41.6861 85.5998C49.0531 85.5998 54.6054 84.3281 60.9564 81.1867C72.4692 75.4913 80.327 65.052 83.1751 51.6687C84.1294 47.1844 84.1363 39.3598 83.1898 34.947C79.4149 17.3455 65.6676 4.02737 48.5503 1.38945C44.7937 0.81052 41.2219 0.654981 38.1277 0.935739ZM23.0353 11.6634C21.965 13.7707 21.6099 14.8271 21.5111 16.1954C21.3916 17.8544 21.4374 18.0157 22.1645 18.4934C23.2593 19.2126 24.7819 18.9279 30.4202 16.9506C36.6583 14.7628 40.2822 13.8341 42.5799 13.8341C45.7352 13.8341 46.7252 14.7051 46.0604 16.896C45.4288 18.9766 45.3983 19.4885 45.8765 19.9681C46.5796 20.6731 48.2236 20.5356 51.395 19.506C62.945 15.7564 72.5938 21.5469 76.1045 34.335L76.4983 35.7686L73.8623 32.9838C69.9308 28.8304 66.7693 27.1759 61.3523 26.4375C55.7259 25.6709 51.1722 26.3342 42.9243 29.1226C38.6736 30.5597 37.0237 30.8476 35.8453 30.3582C34.6044 29.8426 34.2358 28.7064 34.4604 26.0916C34.6604 23.7645 34.5646 23.4371 33.5228 22.8873C31.6941 21.922 28.11 22.9276 22.8544 25.8808C16.107 29.6721 14.5885 30.39 12.961 30.5585C11.0951 30.7515 10.5615 30.3726 10.0581 28.498C9.22086 25.3802 12.2411 19.7393 17.456 14.6805C19.0376 13.1464 24.2537 8.74258 24.363 8.84918C24.4001 8.88581 23.8028 10.1521 23.0353 11.6634ZM97.548 21.67C97.1776 22.0163 96.7478 22.633 96.5933 23.0408C96.4343 23.46 96.3122 29.2598 96.3122 36.3892C96.3122 46.9865 96.3834 49.1344 96.7595 49.8638C97.7941 51.8696 100.094 52.296 101.772 50.7928L102.75 49.9172L102.842 40.9804L102.934 32.0436L106.585 35.6656C108.749 37.8113 110.563 39.3631 111.039 39.473C112.421 39.7928 113.425 39.1322 117.049 35.5187L120.567 32.01V40.6243C120.567 49.9088 120.651 50.4853 122.108 51.2408C123.737 52.0858 125.824 51.5081 126.498 50.0256C126.758 49.4533 126.856 45.6281 126.856 36.0172V22.7961L125.981 21.9184C125.258 21.1938 124.856 21.0407 123.679 21.0407H122.252L116.914 26.3636L111.576 31.6863L106.262 26.3636L100.948 21.0407H99.5845C98.6149 21.0407 98.0274 21.2223 97.548 21.67ZM142.255 21.6028C135.305 23.9813 130.794 31.2464 131.888 38.2996C132.547 42.5548 134.285 45.683 137.444 48.3005C141.885 51.9801 147.995 52.7251 153.508 50.2589C156.704 48.8293 160.114 45.0356 161.343 41.5443C162.13 39.3055 162.377 35.7103 161.907 33.2913C160.883 28.0061 156.85 23.3777 151.778 21.6643C149.384 20.8554 144.53 20.8242 142.255 21.6028ZM168.218 21.67C167.847 22.0163 167.417 22.633 167.263 23.0408C167.104 23.46 166.982 29.2598 166.982 36.3892C166.982 49.9397 167 50.116 168.544 51.2C169.412 51.8095 171.155 51.799 172.037 51.179C173.124 50.416 173.57 48.9512 173.57 46.1464V43.6072L179.334 43.509C184.965 43.4136 185.142 43.391 186.979 42.5401C189.4 41.4188 191.82 38.8638 192.755 36.4403C193.26 35.1287 193.425 34.0708 193.428 32.1202C193.431 29.8579 193.316 29.2913 192.506 27.556C191.348 25.0739 189.374 23.0696 186.961 21.9247L185.098 21.0413L176.995 21.041C169.182 21.0407 168.867 21.0632 168.218 21.67ZM199.414 21.7652L198.573 22.4895L198.489 35.7938C198.399 50.1394 198.428 50.4439 199.948 51.2324C201.218 51.8912 222.01 51.8759 223.284 51.2153C224.399 50.6367 224.775 49.9181 224.775 48.3624C224.775 47.3877 224.586 46.9283 223.9 46.2406L223.025 45.3629H213.868H204.712V42.5103V39.6577H211.31C218.807 39.6577 219.648 39.4829 220.47 37.7561C221.1 36.4301 220.834 34.8947 219.806 33.9255C219.045 33.2081 218.975 33.2009 211.875 33.1114L204.712 33.0213V30.1837V27.3464H213.575C221.305 27.3464 222.545 27.2825 223.281 26.8465C225.013 25.8201 225.324 23.3468 223.9 21.9184L223.025 21.0407H211.639H200.254L199.414 21.7652ZM151.108 28.4238C152.879 29.3895 154.737 31.5145 155.347 33.2727C155.884 34.8221 155.816 38.3455 155.222 39.7265C154.957 40.3423 154.121 41.5101 153.364 42.3215C149.2 46.7859 142.336 45.9482 139.197 40.5925C138.467 39.3481 138.385 38.9169 138.385 36.3547C138.386 34.0008 138.5 33.2922 139.034 32.301C139.971 30.5663 142.088 28.6238 143.794 27.9347C145.967 27.057 148.969 27.2579 151.108 28.4238ZM184.853 28.1247C187.911 30.4002 187.808 34.6272 184.648 36.4886C183.729 37.0303 182.99 37.1183 178.585 37.2108L173.57 37.3162V32.3118V27.3077L178.789 27.4023C183.532 27.4879 184.086 27.5539 184.853 28.1247ZM53.6151 34.3278C55.1214 36.6544 56.0458 44.8498 55.3244 49.4782C54.4695 54.9636 52.2509 59.317 48.3482 63.1684C43.6483 67.8061 38.3454 70.2023 32.2304 70.4518L29.0862 70.58L31.0536 70.0293C38.1879 68.0316 42.7027 63.4737 44.83 56.1215C46.1772 51.4645 45.8765 43.3862 44.1906 38.9383C43.8711 38.0954 43.6097 37.1843 43.6097 36.9141C43.6094 36.3084 46.5817 34.9929 49.6654 34.2332C52.5799 33.5153 53.0974 33.5276 53.6151 34.3278ZM66.907 35.1524C69.9084 36.5183 73.7191 40.3622 75.5251 43.8451C76.5295 45.7818 76.5603 47.4408 75.662 51.2378C74.0234 58.1631 70.8705 64.2343 66.3354 69.1976C60.9268 75.1163 52.5428 78.8295 43.1602 79.4616C37.8983 79.8162 31.082 78.5956 25.4563 76.2913C22.5699 75.1091 18.6139 73.03 18.8328 72.8102C18.9005 72.7426 20.0174 72.9594 21.3152 73.2921C30.7098 75.7015 40.717 75.0878 47.9924 71.6559C55.2471 68.234 60.9483 61.8745 63.6227 54.2211C65.5071 48.8287 65.9281 41.2969 64.6755 35.3788C64.4587 34.3543 65.0265 34.2966 66.907 35.1524ZM97.4007 59.7981C96.3283 60.6436 96.3771 61.2775 97.5141 61.2775C98.0103 61.2775 98.6661 61.1211 98.9715 60.9298C99.6046 60.5334 100.612 60.8037 100.439 61.3235C100.376 61.5135 99.663 61.8375 98.8548 62.0435C97.2033 62.4639 96.3122 63.3485 96.3122 64.5673C96.3122 65.8546 97.2285 66.4855 98.7676 66.2573C100.818 65.9531 101.187 65.9456 102.376 66.184L103.499 66.4095V65.3447C103.499 64.6532 103.368 64.3067 103.125 64.3553C102.866 64.4073 102.704 63.7986 102.601 62.3768C102.477 60.6851 102.326 60.2221 101.744 59.7494C100.752 58.9447 98.4496 58.9705 97.4007 59.7981ZM110.386 62.6288V66.0819H111.285C112.15 66.0819 112.183 66.0318 112.183 64.7307C112.183 63.7704 112.304 63.3794 112.604 63.3794C112.835 63.3794 113.38 63.9875 113.814 64.7307C114.54 65.972 114.7 66.0819 115.792 66.0819H116.98L115.902 64.4541L114.824 62.826L115.6 61.6817C116.026 61.0526 116.375 60.2311 116.375 59.8566C116.375 59.2786 116.217 59.1756 115.327 59.1756C114.515 59.1756 114.279 59.2981 114.279 59.7194C114.279 60.3878 113.217 61.5778 112.62 61.5778C112.31 61.5778 112.183 61.2298 112.183 60.3767C112.183 59.2423 112.133 59.1756 111.285 59.1756H110.386V62.6288ZM123.861 62.5858V66.0819H126.426C127.837 66.0819 129.252 65.942 129.571 65.7711C130.287 65.3868 130.363 63.6305 129.688 63.0687C129.368 62.802 129.321 62.5885 129.538 62.3711C129.71 62.1991 129.85 61.6171 129.85 61.0778C129.85 59.787 129.193 59.4564 126.219 59.2519L123.861 59.0897V62.5858ZM137.538 60.1515L136.588 61.1274L137.778 61.2247C138.445 61.279 139.016 61.1802 139.076 60.9995C139.236 60.5172 140.541 60.6103 140.735 61.1178C140.939 61.6496 140.797 61.742 139.388 61.9967C137.761 62.2906 136.738 63.2212 136.738 64.4058C136.738 64.9763 136.967 65.5967 137.285 65.8852C137.956 66.4942 139.711 66.5332 140.497 65.9567C140.817 65.7225 141.213 65.6372 141.378 65.7672C141.543 65.8973 142.184 66.0948 142.801 66.2065L143.924 66.4095V65.3447C143.924 64.6532 143.793 64.3067 143.55 64.3553C143.29 64.4073 143.149 63.8644 143.087 62.581C142.968 60.0938 142.127 59.1756 139.968 59.1756C138.693 59.1756 138.357 59.3107 137.538 60.1515ZM151.358 59.6897C150.327 60.3314 149.913 61.2709 149.913 62.9732C149.913 64.1277 150.072 64.4992 150.931 65.3613C151.785 66.2173 152.165 66.3822 153.287 66.3822C154.752 66.3822 156.016 65.6261 156.286 64.5877C156.423 64.065 156.302 63.98 155.421 63.98C154.858 63.98 154.147 64.1364 153.842 64.3277C152.823 64.9655 152.309 64.446 152.309 62.7789C152.309 61.1118 152.823 60.5923 153.842 61.2301C154.147 61.4214 154.803 61.5778 155.299 61.5778C156.445 61.5778 156.489 60.9157 155.409 59.9119C154.458 59.0282 152.587 58.9255 151.358 59.6897ZM163.987 60.2266C163.987 61.2274 164.037 61.2775 165.035 61.2775H166.083V63.6797V66.0819H166.982H167.88V63.6797V61.2775H168.928C169.926 61.2775 169.976 61.2274 169.976 60.2266V59.1756H166.982H163.987V60.2266ZM178.48 61.9348C179.04 63.4725 179.59 64.9568 179.702 65.233C179.942 65.8288 179.09 66.3822 177.931 66.3822C177.363 66.3822 177.163 66.5383 177.163 66.9827C177.163 67.5151 177.363 67.5833 178.923 67.5833C179.992 67.5833 180.808 67.4317 181.002 67.1971C181.259 66.8867 184.05 59.6314 184.05 59.2738C184.05 59.2197 183.595 59.1756 183.038 59.1756C181.979 59.1756 181.662 59.5999 181.18 61.667C180.938 62.7047 180.738 62.5261 180.133 60.7307C179.696 59.432 179.577 59.3188 178.56 59.2323L177.46 59.1393L178.48 61.9348ZM192.349 59.4008C192.282 59.5248 192.058 60.3016 191.851 61.1274C191.082 64.1938 190.91 64.5805 190.315 64.5805C189.833 64.5805 189.74 64.7988 189.74 65.9318C189.74 67.2329 189.773 67.283 190.638 67.283C191.337 67.283 191.536 67.1497 191.536 66.6825C191.536 66.1426 191.736 66.0819 193.511 66.0819C195.233 66.0819 195.505 66.1585 195.642 66.6825C195.753 67.108 196.05 67.283 196.662 67.283C197.486 67.283 197.525 67.2209 197.525 65.9318C197.525 64.7808 197.437 64.5805 196.926 64.5805C196.372 64.5805 196.328 64.3803 196.328 61.8781V59.1756H194.399C193.338 59.1756 192.416 59.2768 192.349 59.4008ZM203.814 62.6288V66.0819L204.787 66.0651C205.605 66.051 205.975 65.7753 207.108 64.3385L208.455 62.6288L208.545 64.3553L208.635 66.0819H209.668H210.701V62.6288V59.1756H209.653C209.018 59.1756 208.603 59.3233 208.599 59.5509C208.595 59.7575 207.994 60.6019 207.263 61.4277L205.933 62.929L205.921 61.0523L205.91 59.1756H204.862H203.814V62.6288ZM218.192 60.2887C217.448 61.2373 217.577 62.3435 218.527 63.1494L219.14 63.6701L218.514 64.6862C217.691 66.0219 217.709 66.0819 218.93 66.0819C219.844 66.0819 220.047 65.9345 220.583 64.8808C220.919 64.2202 221.326 63.6797 221.487 63.6797C221.649 63.6797 221.781 64.2202 221.781 64.8808C221.781 66.0534 221.805 66.0819 222.829 66.0819H223.877V62.7789V59.4759H221.353C218.967 59.4759 218.795 59.52 218.192 60.2887ZM127.904 61.4277C127.904 61.5928 127.466 61.7703 126.931 61.8219C126.193 61.8934 125.957 61.7979 125.957 61.4277C125.957 61.0574 126.193 60.9619 126.931 61.0334C127.466 61.085 127.904 61.2625 127.904 61.4277ZM194.531 62.7789C194.531 64.5004 194.498 64.5805 193.782 64.5805C192.927 64.5805 192.92 64.5427 193.358 62.4933C193.834 60.2674 194.531 60.4367 194.531 62.7789ZM221.781 61.7478C221.781 62.0814 221.547 62.1907 220.98 62.1231C219.814 61.985 219.712 61.2775 220.857 61.2775C221.496 61.2775 221.781 61.4226 221.781 61.7478ZM100.431 63.7548C100.363 63.9614 99.9828 64.2938 99.5857 64.4938C98.7056 64.9373 98.1364 64.5202 98.6973 63.8425C99.1614 63.2816 100.611 63.2083 100.431 63.7548ZM127.904 63.98C127.904 64.2686 127.554 64.4643 126.931 64.5244C126.108 64.604 125.957 64.5196 125.957 63.98C125.957 63.4404 126.108 63.356 126.931 63.4356C127.554 63.4957 127.904 63.6914 127.904 63.98ZM140.93 63.6719C140.93 63.8329 140.523 64.1755 140.026 64.4331C139.2 64.8616 139.106 64.8595 138.934 64.4106C138.829 64.1349 138.93 63.8028 139.164 63.6539C139.728 63.296 140.93 63.3083 140.93 63.6719Z" fill="white"/>
</svg>
