<svg width="263" height="89" viewBox="0 0 263 89" fill="none" xmlns="http://www.w3.org/2000/svg">
<g opacity="0.6">
<path d="M41.7948 31.9866C38.9263 29.4093 35.0333 28.1206 30.1158 28.1206C25.1984 28.1206 21.3092 29.4093 18.4485 31.9866C17.0384 33.2338 15.9213 34.7778 15.1774 36.5079C14.4336 38.238 14.0812 40.1115 14.1457 41.994C14.0864 43.8706 14.4412 45.7373 15.185 47.461C15.9287 49.1848 17.043 50.7231 18.4485 51.9665C21.3092 54.5438 25.1984 55.8325 30.1158 55.8325C35.0333 55.8325 38.9263 54.5438 41.7948 51.9665C43.2003 50.7231 44.3146 49.1848 45.0583 47.461C45.802 45.7373 46.1569 43.8706 46.0976 41.994C46.1621 40.1115 45.8097 38.238 45.0658 36.5079C44.3219 34.7778 43.2049 33.2338 41.7948 31.9866ZM38.791 51.1655C37.7048 52.3752 36.3619 53.3263 34.8609 53.949C33.3598 54.5718 31.7385 54.8504 30.1158 54.7644C28.4987 54.8476 26.8834 54.5676 25.3883 53.9448C23.8933 53.3221 22.5563 52.3725 21.4755 51.1655C19.3204 48.6078 18.1956 45.3376 18.3209 41.994C18.213 38.6459 19.3354 35.3745 21.4755 32.7992C22.5507 31.5752 23.8884 30.6105 25.3887 29.9772C26.889 29.3439 28.513 29.0585 30.139 29.1422C31.7666 29.0601 33.3918 29.3462 34.8937 29.9794C36.3956 30.6125 37.7356 31.5763 38.8142 32.7992C40.9376 35.3811 42.0433 38.6519 41.9224 41.994C42.0541 45.3345 40.9377 48.6044 38.791 51.1655Z" fill="white"/>
<path d="M64.3875 29.2237L62.3811 29.0147C60.3051 28.8174 58.2175 28.7129 56.1183 28.7129H49.7163L49.8439 30.7446V53.1625L49.7163 55.1942H53.9495C56.7794 55.1942 59.6015 55.0781 62.4159 54.8459L64.3875 54.6833C72.7534 52.9884 76.9325 48.7315 76.9247 41.9129C76.917 35.0942 72.7379 30.8645 64.3875 29.2237ZM53.532 53.9868V29.7926C66.6375 29.7926 73.2482 33.6934 73.2482 41.9593C73.2482 50.2253 66.6375 53.9868 53.532 53.9868Z" fill="white"/>
<path d="M84.1035 53.8128V41.9944H98.7283V41.2281H84.1035V29.7928H94.4256C96.3972 29.7928 100.224 30.0134 101.199 30.4778V28.7363H80.2646L80.3458 29.7464C80.3922 30.4352 80.4154 31.1201 80.4154 31.8012V52.1295C80.4154 52.8183 80.3922 53.5033 80.3458 54.1843L80.2646 55.1944H102.011V53.1627C101.094 53.7316 97.3714 53.8128 95.3766 53.8128H84.1035Z" fill="white"/>
<path d="M130.274 28.7246L125.252 39.0803L119.28 50.8987L108.459 28.6201L104.272 28.7246L117.099 55.1943H118.039C118.746 53.8592 119.442 52.5241 120.149 51.2006C125.855 39.1499 129.555 31.6579 131.248 28.7246H130.274Z" fill="white"/>
<path d="M138.857 28.7363C138.15 30.0714 137.454 31.3949 136.746 32.7068C131.052 44.6994 127.271 52.2688 125.566 55.1944H126.563L131.666 44.7458L137.639 32.9854L148.437 55.1712H152.728L139.773 28.7363H138.857Z" fill="white"/>
<path d="M251.587 51.8855C251.517 51.7344 251.39 51.617 251.234 51.5584C251.078 51.4998 250.905 51.5047 250.752 51.572C249.013 52.3731 244.107 54.161 242.367 52.8491C242.271 52.7836 242.191 52.6975 242.133 52.597C242.075 52.4966 242.04 52.3844 242.031 52.2686C241.903 51.1077 243.701 49.0063 244.466 48.124C245.058 47.4391 245.359 47.1024 245.023 46.6496C244.923 46.5169 244.778 46.4258 244.616 46.3936C244.453 46.3615 244.284 46.3906 244.142 46.4755C242.703 47.1488 242.124 46.3826 242.077 46.3013C242.021 46.2133 241.944 46.1406 241.853 46.09C241.762 46.0393 241.66 46.0122 241.555 46.0111C241.452 46.0053 241.349 46.0257 241.256 46.0704C241.163 46.115 241.082 46.1825 241.022 46.2665C237.426 51.2121 235.084 52.257 233.808 52.2106C233.417 52.189 233.037 52.0719 232.701 51.8695C232.366 51.6672 232.085 51.3857 231.883 51.0496C231.732 50.7964 231.497 50.6048 231.219 50.5091C230.941 50.4134 230.637 50.4198 230.363 50.5272C230.004 50.6665 229.575 50.8755 229.076 51.1193C229.238 50.9567 229.378 50.7826 229.517 50.6201C230.677 49.2269 230.99 47.8222 230.491 46.9398C230.271 46.6117 229.952 46.3619 229.581 46.2263C229.21 46.0907 228.806 46.0763 228.427 46.1852C224.715 46.7309 220.239 49.5868 219.705 51.7578C219.653 52.0028 219.653 52.2558 219.705 52.5008C215.831 53.2554 210.612 53.6037 209.673 52.2222C209.638 52.1666 209.606 52.1084 209.58 52.048C213.141 50.562 215.147 49.018 215.159 47.6945C215.147 47.4257 215.05 47.1677 214.881 46.9586C214.711 46.7496 214.48 46.6005 214.219 46.5335C212.932 46.1388 210.74 47.0559 209.197 49.285C208.778 49.8706 208.479 50.5335 208.316 51.2354C207.295 51.6301 206.101 52.0364 204.709 52.466C201.763 53.3715 199.084 53.1277 197.205 51.7694C206.878 41.3209 205.846 36.0618 204.953 34.2623C204.572 33.489 203.955 32.8566 203.193 32.4561C202.43 32.0555 201.56 31.9075 200.708 32.0333C198.388 32.2654 195.164 34.2971 193.854 39.2079C192.392 44.734 192.949 49.2037 195.408 51.8507C184.726 63.1119 177.651 66.3045 174.532 65.4802C174.119 65.392 173.742 65.1842 173.447 64.8828C173.152 64.5813 172.953 64.1996 172.873 63.7852C172.432 61.8697 176.039 55.2058 178.672 50.3414C182.047 44.1187 182.836 42.447 182.244 41.6575C182.178 41.5714 182.094 41.5008 181.998 41.4506C181.902 41.4005 181.796 41.372 181.687 41.3673C180.528 41.3673 177.245 44.7224 164.708 58.6887L159.953 64.0522L162.76 60.3488C172.537 47.4391 180.632 36.5377 180.632 33.8908C180.639 33.638 180.58 33.3878 180.463 33.1642C180.345 32.9406 180.171 32.751 179.959 32.6137C177.709 31.1045 169.44 34.3319 159.663 38.4185L159.13 38.6391V31.1974L159.199 28.6665H155.639L155.766 31.1974V39.9277L154.711 40.3224C152.832 40.9494 151.893 40.752 151.429 40.4618C151.29 40.3829 151.169 40.2763 151.073 40.1484C150.977 40.0206 150.909 39.8743 150.872 39.7187C150.851 39.5525 150.764 39.4016 150.631 39.2993C150.499 39.1969 150.331 39.1515 150.165 39.1731C149.998 39.1947 149.848 39.2814 149.746 39.4142C149.643 39.547 149.598 39.715 149.62 39.8813C149.678 40.2236 149.813 40.5483 150.014 40.8316C150.214 41.1149 150.476 41.3496 150.779 41.5182C151.777 42.1567 153.25 42.1567 155.152 41.5182L155.813 41.2744V52.6517L155.732 55.1826H159.211L159.141 52.6517V39.8813L160.15 39.4517C165.752 37.1298 177.396 32.3003 179.275 33.5541C179.313 33.5784 179.343 33.6133 179.362 33.6546C179.38 33.6958 179.387 33.7416 179.379 33.7863C179.379 36.2243 168.35 50.7826 161.762 59.4781C154.479 69.0792 154.305 69.4391 154.456 69.9963C154.485 70.0925 154.534 70.1815 154.6 70.2575C154.666 70.3335 154.747 70.3948 154.839 70.4375C154.923 70.4732 155.014 70.4928 155.105 70.4955C155.708 70.4955 156.961 69.2069 165.682 59.4897C170.82 53.7662 178.243 45.5583 180.922 43.2364C180.319 44.7224 178.846 47.4507 177.593 49.7493C173.801 56.715 171.145 61.8697 171.667 64.0871C171.8 64.7234 172.112 65.3083 172.566 65.7731C173.02 66.2379 173.598 66.5632 174.23 66.7108C176.376 67.2913 182.789 67.0243 196.324 52.7098C197.513 53.5236 198.873 54.0517 200.3 54.2531C201.726 54.4545 203.179 54.3236 204.547 53.8707H204.628L205.011 53.7546L205.266 53.685C206.368 53.3367 207.411 52.9884 208.351 52.6401C208.406 52.7884 208.48 52.9289 208.571 53.0581C210.346 55.6818 218.336 54.219 220.528 53.743C223.277 55.4612 227.22 53.5457 229.598 52.3847C229.968 52.1812 230.356 52.014 230.758 51.8855C231.075 52.3835 231.51 52.7962 232.023 53.0876C232.537 53.379 233.114 53.5402 233.704 53.5573H233.762C235.977 53.5573 238.586 51.572 241.532 47.6712C241.917 47.9215 242.361 48.0656 242.819 48.0892C241.787 49.3198 240.5 51.0496 240.685 52.4892C240.713 52.7779 240.804 53.0572 240.95 53.3077C241.096 53.5582 241.295 53.774 241.532 53.9404C242.306 54.4549 243.226 54.7035 244.153 54.6486C246.591 54.465 248.975 53.8437 251.193 52.8143C251.288 52.7915 251.377 52.7467 251.452 52.6834C251.527 52.62 251.586 52.5399 251.625 52.4496C251.663 52.3592 251.68 52.2611 251.673 52.1631C251.667 52.0651 251.637 51.97 251.587 51.8855ZM210.23 50.0048C210.57 49.4464 211.019 48.9629 211.552 48.5838C212.084 48.2046 212.688 47.9376 213.326 47.799H213.57C213.779 47.799 213.871 47.799 213.871 47.799C213.871 48.0892 213.129 49.1805 209.87 50.6433C209.986 50.3763 210.102 50.1905 210.23 50.0048ZM196.254 50.9219C194.155 48.6 193.738 44.5715 195.094 39.533C196.15 35.5161 198.748 33.5077 200.893 33.2871H201.276C201.814 33.2688 202.346 33.4072 202.807 33.6854C203.268 33.9636 203.639 34.3696 203.874 34.8544C205.045 37.3504 203.723 42.8881 196.254 50.9219ZM220.958 52.4428C220.888 52.3731 220.865 52.2918 220.9 52.1293C221.236 50.7594 225.075 48.0195 228.577 47.4855C228.983 47.4855 229.273 47.4855 229.354 47.6248C229.436 47.7641 229.354 48.7858 228.485 49.8771C227.624 51.0019 226.45 51.846 225.11 52.3027C223.77 52.7594 222.325 52.8082 220.958 52.4428Z" fill="white"/>
</g>
</svg>
