<svg width="159" height="26" viewBox="0 0 159 26" fill="none" xmlns="http://www.w3.org/2000/svg">
<path d="M26.0902 0.964533C26.4352 1.14894 26.4642 1.39379 26.4615 4.10236C26.4598 5.7182 26.376 7.17067 26.2752 7.32998C26.1173 7.57926 24.8337 7.62754 17.0482 7.67697C10.9625 7.71559 7.92231 7.80229 7.75379 7.9421C7.43396 8.20683 7.42815 9.47451 7.74489 9.89276C7.96101 10.1782 8.76687 10.2181 15.3391 10.2681C22.3014 10.321 22.7441 10.3456 23.6844 10.7308C25.1677 11.3383 25.9559 12.0325 26.679 13.3683L27.33 14.5711L27.398 17.7572C27.4593 20.6276 27.4254 21.0509 27.0574 22.0287C26.5499 23.3765 25.5585 24.4167 24.1556 25.0735L23.0784 25.5777L12.0499 25.6327C5.98419 25.6628 0.825535 25.6394 0.586003 25.5807C0.15705 25.4753 0.150665 25.4278 0.150665 22.383V19.2923L0.64695 19.1041C0.944334 18.9913 4.86218 18.9158 10.4241 18.9158H19.7049L19.8631 18.4892C20.0284 18.0436 19.9767 16.7085 19.7823 16.3943C19.7153 16.2862 16.9547 16.2124 12.9734 16.2124C8.99421 16.2124 5.78374 16.1267 5.06127 16.0012C2.80023 15.6082 0.928469 14.0206 0.342215 11.9985C-0.00334655 10.8069 -0.116729 7.36242 0.13983 5.84757C0.631471 2.943 2.41268 1.3681 5.66494 0.962405C7.52412 0.730303 25.6555 0.73243 26.0902 0.964533Z" fill="#C2C6CB"/>
<path d="M26.0902 0.964533C26.4352 1.14894 26.4642 1.39379 26.4615 4.10236C26.4598 5.7182 26.376 7.17067 26.2752 7.32998C26.1173 7.57926 24.8337 7.62754 17.0482 7.67697C10.9625 7.71559 7.92231 7.80229 7.75379 7.9421C7.43396 8.20683 7.42815 9.47451 7.74489 9.89276C7.96101 10.1782 8.76687 10.2181 15.3391 10.2681C22.3014 10.321 22.7441 10.3456 23.6844 10.7308C25.1677 11.3383 25.9559 12.0325 26.679 13.3683L27.33 14.5711L27.398 17.7572C27.4593 20.6276 27.4254 21.0509 27.0574 22.0287C26.5499 23.3765 25.5585 24.4167 24.1556 25.0735L23.0784 25.5777L12.0499 25.6327C5.98419 25.6628 0.825535 25.6394 0.586003 25.5807C0.15705 25.4753 0.150665 25.4278 0.150665 22.383V19.2923L0.64695 19.1041C0.944334 18.9913 4.86218 18.9158 10.4241 18.9158H19.7049L19.8631 18.4892C20.0284 18.0436 19.9767 16.7085 19.7823 16.3943C19.7153 16.2862 16.9547 16.2124 12.9734 16.2124C8.99421 16.2124 5.78374 16.1267 5.06127 16.0012C2.80023 15.6082 0.928469 14.0206 0.342215 11.9985C-0.00334655 10.8069 -0.116729 7.36242 0.13983 5.84757C0.631471 2.943 2.41268 1.3681 5.66494 0.962405C7.52412 0.730303 25.6555 0.73243 26.0902 0.964533Z" fill="#282828"/>
<path fill-rule="evenodd" clip-rule="evenodd" d="M49.6369 1.3208C50.9184 1.97327 51.9162 3.33383 53.6805 6.83526C54.5938 8.64728 55.4043 10.2168 55.4821 10.323C55.5597 10.4292 56.8241 12.8622 58.2918 15.7297C59.7598 18.5972 61.4268 21.8333 61.9967 22.921C63.5542 25.8943 63.768 25.692 59.1356 25.63L55.2383 25.5777L54.1608 23.5019L53.0831 21.4261H45.9967H38.9104L37.9229 23.5501L36.9353 25.6742H32.9575C29.0567 25.6742 28.9797 25.6665 28.9797 25.2722C28.9797 24.9163 36.7101 9.28238 38.9971 5.01281C41.0383 1.20243 41.9046 0.716981 46.4197 0.853694C48.3969 0.913554 49.0126 1.00296 49.6369 1.3208ZM41.7496 15.7558C41.7496 15.717 42.6199 13.8856 43.6835 11.6862C45.2155 8.51829 45.6877 7.70053 45.9569 7.75015C46.1798 7.79128 46.9748 9.13949 48.2708 11.6747C49.3566 13.7987 50.2489 15.6017 50.254 15.6814C50.2588 15.7612 48.3474 15.8262 46.0062 15.8262C43.6651 15.8262 41.7496 15.7946 41.7496 15.7558Z" fill="#C2C6CB"/>
<path fill-rule="evenodd" clip-rule="evenodd" d="M49.6369 1.3208C50.9184 1.97327 51.9162 3.33383 53.6805 6.83526C54.5938 8.64728 55.4043 10.2168 55.4821 10.323C55.5597 10.4292 56.8241 12.8622 58.2918 15.7297C59.7598 18.5972 61.4268 21.8333 61.9967 22.921C63.5542 25.8943 63.768 25.692 59.1356 25.63L55.2383 25.5777L54.1608 23.5019L53.0831 21.4261H45.9967H38.9104L37.9229 23.5501L36.9353 25.6742H32.9575C29.0567 25.6742 28.9797 25.6665 28.9797 25.2722C28.9797 24.9163 36.7101 9.28238 38.9971 5.01281C41.0383 1.20243 41.9046 0.716981 46.4197 0.853694C48.3969 0.913554 49.0126 1.00296 49.6369 1.3208ZM41.7496 15.7558C41.7496 15.717 42.6199 13.8856 43.6835 11.6862C45.2155 8.51829 45.6877 7.70053 45.9569 7.75015C46.1798 7.79128 46.9748 9.13949 48.2708 11.6747C49.3566 13.7987 50.2489 15.6017 50.254 15.6814C50.2588 15.7612 48.3474 15.8262 46.0062 15.8262C43.6651 15.8262 41.7496 15.7946 41.7496 15.7558Z" fill="#282828"/>
<path d="M64.7826 0.962405C65.0028 1.08 66.9102 4.70945 69.4887 9.91651C71.8734 14.7327 73.9135 18.7281 74.0222 18.7951C74.131 18.8621 74.3434 18.8696 74.4945 18.8119C74.6456 18.754 75.7146 16.7334 76.8703 14.3218C82.2557 3.08223 83.3212 1.0101 83.7775 0.888067C84.3521 0.734362 90.5763 0.729146 90.9752 0.881885C91.1436 0.94638 91.2813 1.16767 91.2813 1.3739C91.2813 1.71587 86.3125 11.7542 82.0247 20.0744C79.2442 25.4701 78.9739 25.6748 74.629 25.673C71.446 25.6719 70.6523 25.5105 69.6913 24.6682C68.6664 23.7701 68.1696 22.9436 65.3629 17.4676C62.5384 11.957 59.6257 6.30077 58.1676 3.49488C57.1563 1.54865 57.0375 1.03578 57.5669 0.897719C58.2688 0.714663 64.4222 0.769694 64.7826 0.962405Z" fill="#C2C6CB"/>
<path d="M64.7826 0.962405C65.0028 1.08 66.9102 4.70945 69.4887 9.91651C71.8734 14.7327 73.9135 18.7281 74.0222 18.7951C74.131 18.8621 74.3434 18.8696 74.4945 18.8119C74.6456 18.754 75.7146 16.7334 76.8703 14.3218C82.2557 3.08223 83.3212 1.0101 83.7775 0.888067C84.3521 0.734362 90.5763 0.729146 90.9752 0.881885C91.1436 0.94638 91.2813 1.16767 91.2813 1.3739C91.2813 1.71587 86.3125 11.7542 82.0247 20.0744C79.2442 25.4701 78.9739 25.6748 74.629 25.673C71.446 25.6719 70.6523 25.5105 69.6913 24.6682C68.6664 23.7701 68.1696 22.9436 65.3629 17.4676C62.5384 11.957 59.6257 6.30077 58.1676 3.49488C57.1563 1.54865 57.0375 1.03578 57.5669 0.897719C58.2688 0.714663 64.4222 0.769694 64.7826 0.962405Z" fill="#282828"/>
<path fill-rule="evenodd" clip-rule="evenodd" d="M117.832 1.21595C119.694 1.64366 120.744 2.15903 121.701 3.11467C123.641 5.05201 124.053 7.1 123.928 14.1826C123.831 19.6413 123.713 20.3974 122.671 22.2506C121.965 23.508 120.643 24.5336 118.97 25.1225C117.714 25.5647 117.535 25.5738 108.878 25.634C101.572 25.6848 99.8242 25.6452 98.6569 25.4023C95.9027 24.8292 94.2585 23.6928 93.3206 21.7142C92.4447 19.8664 92.3453 18.9965 92.3499 13.2194C92.3538 8.66486 92.4082 7.61557 92.6957 6.56241C93.6523 3.0579 95.8715 1.41252 100.254 0.95874C101.119 0.869143 105.135 0.823186 109.179 0.856399C114.957 0.904094 116.81 0.980946 117.832 1.21595ZM99.9966 9.02517C100.107 8.6301 100.387 8.174 100.619 8.01141C100.98 7.75942 102.083 7.71617 108.147 7.71617H115.252L115.795 8.18211L116.337 8.64825V13.316V17.9837L115.795 18.4499L115.252 18.9158L108.249 18.9129C100.533 18.9098 100.441 18.8969 100.047 17.7522C99.7563 16.9064 99.7162 10.0329 99.9966 9.02517Z" fill="#C2C6CB"/>
<path fill-rule="evenodd" clip-rule="evenodd" d="M117.832 1.21595C119.694 1.64366 120.744 2.15903 121.701 3.11467C123.641 5.05201 124.053 7.1 123.928 14.1826C123.831 19.6413 123.713 20.3974 122.671 22.2506C121.965 23.508 120.643 24.5336 118.97 25.1225C117.714 25.5647 117.535 25.5738 108.878 25.634C101.572 25.6848 99.8242 25.6452 98.6569 25.4023C95.9027 24.8292 94.2585 23.6928 93.3206 21.7142C92.4447 19.8664 92.3453 18.9965 92.3499 13.2194C92.3538 8.66486 92.4082 7.61557 92.6957 6.56241C93.6523 3.0579 95.8715 1.41252 100.254 0.95874C101.119 0.869143 105.135 0.823186 109.179 0.856399C114.957 0.904094 116.81 0.980946 117.832 1.21595ZM99.9966 9.02517C100.107 8.6301 100.387 8.174 100.619 8.01141C100.98 7.75942 102.083 7.71617 108.147 7.71617H115.252L115.795 8.18211L116.337 8.64825V13.316V17.9837L115.795 18.4499L115.252 18.9158L108.249 18.9129C100.533 18.9098 100.441 18.8969 100.047 17.7522C99.7563 16.9064 99.7162 10.0329 99.9966 9.02517Z" fill="#282828"/>
<path d="M132.641 1.01879C132.775 1.1053 134.839 5.11727 137.229 9.93389C139.619 14.7507 141.656 18.7424 141.756 18.8044C142.172 19.0608 142.541 18.6041 143.43 16.7344C143.945 15.6509 145.362 12.7222 146.579 10.2264C147.796 7.73065 149.296 4.63067 149.913 3.3375L151.035 0.986354L151.874 0.861031C152.335 0.792095 154.087 0.763902 155.767 0.798466C158.191 0.848285 158.858 0.919538 158.997 1.14392C159.216 1.49922 148.649 22.5698 147.565 23.9388C146.371 25.4463 145.666 25.6742 142.197 25.6742C138.954 25.6742 138.451 25.5566 137.272 24.5231C136.336 23.7033 135.777 22.7401 132.396 16.1159C130.824 13.036 129.474 10.4292 129.397 10.323C128.983 9.75547 124.947 1.57375 124.947 1.30361C124.947 1.12808 125.143 0.943481 125.383 0.893276C126.107 0.741309 132.379 0.849641 132.641 1.01879Z" fill="#C2C6CB"/>
<path d="M132.641 1.01879C132.775 1.1053 134.839 5.11727 137.229 9.93389C139.619 14.7507 141.656 18.7424 141.756 18.8044C142.172 19.0608 142.541 18.6041 143.43 16.7344C143.945 15.6509 145.362 12.7222 146.579 10.2264C147.796 7.73065 149.296 4.63067 149.913 3.3375L151.035 0.986354L151.874 0.861031C152.335 0.792095 154.087 0.763902 155.767 0.798466C158.191 0.848285 158.858 0.919538 158.997 1.14392C159.216 1.49922 148.649 22.5698 147.565 23.9388C146.371 25.4463 145.666 25.6742 142.197 25.6742C138.954 25.6742 138.451 25.5566 137.272 24.5231C136.336 23.7033 135.777 22.7401 132.396 16.1159C130.824 13.036 129.474 10.4292 129.397 10.323C128.983 9.75547 124.947 1.57375 124.947 1.30361C124.947 1.12808 125.143 0.943481 125.383 0.893276C126.107 0.741309 132.379 0.849641 132.641 1.01879Z" fill="#282828"/>
</svg>
