<svg width="102" height="16" viewBox="0 0 102 16" fill="none" xmlns="http://www.w3.org/2000/svg">
<path d="M16.7371 0.124967C16.9584 0.243442 16.977 0.400747 16.9753 2.1409C16.9742 3.17902 16.9204 4.11218 16.8558 4.21453C16.7545 4.37468 15.9311 4.4057 10.9365 4.43746C7.03256 4.46227 5.08224 4.51797 4.97413 4.60779C4.76896 4.77787 4.76523 5.59231 4.96842 5.86102C5.10706 6.04438 5.62403 6.07006 9.84018 6.10219C14.3066 6.13618 14.5906 6.15193 15.1938 6.39943C16.1453 6.78971 16.651 7.2357 17.1148 8.09393L17.5325 8.86669L17.5761 10.9136C17.6154 12.7578 17.5937 13.0297 17.3576 13.6579C17.032 14.5238 16.396 15.1921 15.496 15.6141L14.805 15.938L7.73012 15.9733C3.83891 15.9927 0.529589 15.9777 0.375926 15.94C0.100749 15.8722 0.0966531 15.8417 0.0966531 13.8856V11.8999L0.415025 11.7789C0.605799 11.7065 3.11913 11.658 6.68713 11.658H12.6409L12.7424 11.3839C12.8484 11.0976 12.8152 10.2399 12.6905 10.038C12.6476 9.96856 10.8766 9.92118 8.32255 9.92118C5.76987 9.92118 3.71032 9.8661 3.24686 9.78546C1.79637 9.533 0.595622 8.513 0.219534 7.21387C-0.00214684 6.44831 -0.0748826 4.23537 0.0897024 3.26214C0.405095 1.39606 1.54776 0.384246 3.63411 0.123601C4.8268 -0.0255166 16.4582 -0.0241499 16.7371 0.124967Z" fill="#C2C6CB"/>
<path d="M16.7371 0.124967C16.9584 0.243442 16.977 0.400747 16.9753 2.1409C16.9742 3.17902 16.9204 4.11218 16.8558 4.21453C16.7545 4.37468 15.9311 4.4057 10.9365 4.43746C7.03256 4.46227 5.08224 4.51797 4.97413 4.60779C4.76896 4.77787 4.76523 5.59231 4.96842 5.86102C5.10706 6.04438 5.62403 6.07006 9.84018 6.10219C14.3066 6.13618 14.5906 6.15193 15.1938 6.39943C16.1453 6.78971 16.651 7.2357 17.1148 8.09393L17.5325 8.86669L17.5761 10.9136C17.6154 12.7578 17.5937 13.0297 17.3576 13.6579C17.032 14.5238 16.396 15.1921 15.496 15.6141L14.805 15.938L7.73012 15.9733C3.83891 15.9927 0.529589 15.9777 0.375926 15.94C0.100749 15.8722 0.0966531 15.8417 0.0966531 13.8856V11.8999L0.415025 11.7789C0.605799 11.7065 3.11913 11.658 6.68713 11.658H12.6409L12.7424 11.3839C12.8484 11.0976 12.8152 10.2399 12.6905 10.038C12.6476 9.96856 10.8766 9.92118 8.32255 9.92118C5.76987 9.92118 3.71032 9.8661 3.24686 9.78546C1.79637 9.533 0.595622 8.513 0.219534 7.21387C-0.00214684 6.44831 -0.0748826 4.23537 0.0897024 3.26214C0.405095 1.39606 1.54776 0.384246 3.63411 0.123601C4.8268 -0.0255166 16.4582 -0.0241499 16.7371 0.124967Z" fill="#4D4E4F"/>
<path fill-rule="evenodd" clip-rule="evenodd" d="M31.8426 0.353854C32.6646 0.773044 33.3047 1.64715 34.4366 3.89669C35.0224 5.06085 35.5424 6.06919 35.5923 6.13742C35.642 6.20565 36.4532 7.76878 37.3948 9.61103C38.3365 11.4533 39.4059 13.5324 39.7714 14.2312C40.7706 16.1414 40.9078 16.0114 37.9361 15.9716L35.4359 15.938L34.7446 14.6044L34.0533 13.2707H29.5073H24.9614L24.3279 14.6354L23.6944 16H21.1426C18.6401 16 18.5907 15.995 18.5907 15.7417C18.5907 15.5131 23.5499 5.46887 25.017 2.72583C26.3265 0.277806 26.8822 -0.0340751 29.7787 0.0537577C31.0471 0.0922155 31.442 0.149655 31.8426 0.353854ZM26.7828 9.62778C26.7828 9.60285 27.3411 8.42628 28.0233 7.01327C29.0061 4.97798 29.3091 4.45259 29.4818 4.48447C29.6248 4.5109 30.1348 5.37707 30.9661 7.00582C31.6627 8.37046 32.2352 9.52878 32.2384 9.58002C32.2415 9.63125 31.0153 9.67306 29.5134 9.67306C28.0116 9.67306 26.7828 9.65272 26.7828 9.62778Z" fill="#C2C6CB"/>
<path fill-rule="evenodd" clip-rule="evenodd" d="M31.8426 0.353854C32.6646 0.773044 33.3047 1.64715 34.4366 3.89669C35.0224 5.06085 35.5424 6.06919 35.5923 6.13742C35.642 6.20565 36.4532 7.76878 37.3948 9.61103C38.3365 11.4533 39.4059 13.5324 39.7714 14.2312C40.7706 16.1414 40.9078 16.0114 37.9361 15.9716L35.4359 15.938L34.7446 14.6044L34.0533 13.2707H29.5073H24.9614L24.3279 14.6354L23.6944 16H21.1426C18.6401 16 18.5907 15.995 18.5907 15.7417C18.5907 15.5131 23.5499 5.46887 25.017 2.72583C26.3265 0.277806 26.8822 -0.0340751 29.7787 0.0537577C31.0471 0.0922155 31.442 0.149655 31.8426 0.353854ZM26.7828 9.62778C26.7828 9.60285 27.3411 8.42628 28.0233 7.01327C29.0061 4.97798 29.3091 4.45259 29.4818 4.48447C29.6248 4.5109 30.1348 5.37707 30.9661 7.00582C31.6627 8.37046 32.2352 9.52878 32.2384 9.58002C32.2415 9.63125 31.0153 9.67306 29.5134 9.67306C28.0116 9.67306 26.7828 9.65272 26.7828 9.62778Z" fill="#4D4E4F"/>
<path d="M41.5587 0.123601C41.6999 0.199152 42.9235 2.53094 44.5777 5.87628C46.1075 8.97052 47.4162 11.5374 47.486 11.5804C47.5557 11.6235 47.692 11.6283 47.7889 11.5912C47.8859 11.554 48.5716 10.2559 49.313 8.70653C52.7678 1.48551 53.4514 0.154245 53.744 0.075841C54.1127 -0.0229088 58.1055 -0.02626 58.3615 0.0718696C58.4695 0.113305 58.5578 0.255475 58.5578 0.387969C58.5578 0.607675 55.3703 7.05693 52.6196 12.4023C50.8359 15.8689 50.6625 16.0004 47.8752 15.9993C45.8333 15.9985 45.3241 15.8948 44.7076 15.3537C44.0502 14.7767 43.7314 14.2457 41.9309 10.7276C40.119 7.18719 38.2505 3.5533 37.3151 1.75062C36.6663 0.500242 36.5901 0.170744 36.9297 0.0820424C37.38 -0.0355642 41.3274 -0.000208855 41.5587 0.123601Z" fill="#C2C6CB"/>
<path d="M41.5587 0.123601C41.6999 0.199152 42.9235 2.53094 44.5777 5.87628C46.1075 8.97052 47.4162 11.5374 47.486 11.5804C47.5557 11.6235 47.692 11.6283 47.7889 11.5912C47.8859 11.554 48.5716 10.2559 49.313 8.70653C52.7678 1.48551 53.4514 0.154245 53.744 0.075841C54.1127 -0.0229088 58.1055 -0.02626 58.3615 0.0718696C58.4695 0.113305 58.5578 0.255475 58.5578 0.387969C58.5578 0.607675 55.3703 7.05693 52.6196 12.4023C50.8359 15.8689 50.6625 16.0004 47.8752 15.9993C45.8333 15.9985 45.3241 15.8948 44.7076 15.3537C44.0502 14.7767 43.7314 14.2457 41.9309 10.7276C40.119 7.18719 38.2505 3.5533 37.3151 1.75062C36.6663 0.500242 36.5901 0.170744 36.9297 0.0820424C37.38 -0.0355642 41.3274 -0.000208855 41.5587 0.123601Z" fill="#4D4E4F"/>
<path fill-rule="evenodd" clip-rule="evenodd" d="M75.5906 0.286491C76.7846 0.561278 77.4583 0.892389 78.0722 1.50635C79.3169 2.75102 79.5811 4.06677 79.5007 8.61708C79.4387 12.1241 79.3631 12.6099 78.6948 13.8005C78.2414 14.6083 77.3935 15.2672 76.3205 15.6456C75.5149 15.9297 75.4001 15.9355 69.8464 15.9742C65.1592 16.0068 64.0382 15.9814 63.2893 15.8253C61.5225 15.4571 60.4677 14.727 59.8661 13.4558C59.3042 12.2687 59.2404 11.7098 59.2434 7.99828C59.2458 5.07214 59.2807 4.39801 59.4652 3.7214C60.0788 1.46987 61.5025 0.412781 64.3141 0.121246C64.8687 0.0636831 67.4449 0.0341575 70.0391 0.0554954C73.7458 0.0861376 74.9344 0.135513 75.5906 0.286491ZM64.1488 5.30363C64.2194 5.0498 64.399 4.75678 64.5481 4.65232C64.7794 4.49043 65.4874 4.46264 69.3771 4.46264H73.935L74.2833 4.76199L74.6316 5.06147V8.06031V11.0592L74.2833 11.3586L73.935 11.658L69.4425 11.6561C64.4927 11.6541 64.4341 11.6458 64.1813 10.9104C63.9946 10.367 63.9689 5.95108 64.1488 5.30363Z" fill="#C2C6CB"/>
<path fill-rule="evenodd" clip-rule="evenodd" d="M75.5906 0.286491C76.7846 0.561278 77.4583 0.892389 78.0722 1.50635C79.3169 2.75102 79.5811 4.06677 79.5007 8.61708C79.4387 12.1241 79.3631 12.6099 78.6948 13.8005C78.2414 14.6083 77.3935 15.2672 76.3205 15.6456C75.5149 15.9297 75.4001 15.9355 69.8464 15.9742C65.1592 16.0068 64.0382 15.9814 63.2893 15.8253C61.5225 15.4571 60.4677 14.727 59.8661 13.4558C59.3042 12.2687 59.2404 11.7098 59.2434 7.99828C59.2458 5.07214 59.2807 4.39801 59.4652 3.7214C60.0788 1.46987 61.5025 0.412781 64.3141 0.121246C64.8687 0.0636831 67.4449 0.0341575 70.0391 0.0554954C73.7458 0.0861376 74.9344 0.135513 75.5906 0.286491ZM64.1488 5.30363C64.2194 5.0498 64.399 4.75678 64.5481 4.65232C64.7794 4.49043 65.4874 4.46264 69.3771 4.46264H73.935L74.2833 4.76199L74.6316 5.06147V8.06031V11.0592L74.2833 11.3586L73.935 11.658L69.4425 11.6561C64.4927 11.6541 64.4341 11.6458 64.1813 10.9104C63.9946 10.367 63.9689 5.95108 64.1488 5.30363Z" fill="#4D4E4F"/>
<path d="M85.0901 0.159828C85.1762 0.215406 86.5008 2.79295 88.0337 5.88744C89.5666 8.98206 90.8736 11.5466 90.938 11.5864C91.2047 11.7512 91.4416 11.4578 92.0118 10.2565C92.3422 9.56042 93.2513 7.67883 94.0319 6.07539C94.8123 4.47195 95.7749 2.48033 96.1706 1.64951L96.8901 0.138987L97.4283 0.0584712C97.7242 0.0141826 98.8483 -0.00393046 99.926 0.0182759C101.481 0.0502827 101.909 0.0960602 101.998 0.240215C102.139 0.468481 95.3598 14.0055 94.6641 14.8851C93.8983 15.8536 93.446 16 91.2206 16C89.1406 16 88.8178 15.9244 88.0612 15.2605C87.4609 14.7337 87.1025 14.1149 84.9333 9.85915C83.9247 7.88043 83.0589 6.20565 83.0092 6.13742C82.7441 5.77281 80.155 0.516367 80.155 0.34281C80.155 0.230042 80.2807 0.111443 80.4342 0.0791878C80.8989 -0.0184455 84.9222 0.0511538 85.0901 0.159828Z" fill="#C2C6CB"/>
<path d="M85.0901 0.159828C85.1762 0.215406 86.5008 2.79295 88.0337 5.88744C89.5666 8.98206 90.8736 11.5466 90.938 11.5864C91.2047 11.7512 91.4416 11.4578 92.0118 10.2565C92.3422 9.56042 93.2513 7.67883 94.0319 6.07539C94.8123 4.47195 95.7749 2.48033 96.1706 1.64951L96.8901 0.138987L97.4283 0.0584712C97.7242 0.0141826 98.8483 -0.00393046 99.926 0.0182759C101.481 0.0502827 101.909 0.0960602 101.998 0.240215C102.139 0.468481 95.3598 14.0055 94.6641 14.8851C93.8983 15.8536 93.446 16 91.2206 16C89.1406 16 88.8178 15.9244 88.0612 15.2605C87.4609 14.7337 87.1025 14.1149 84.9333 9.85915C83.9247 7.88043 83.0589 6.20565 83.0092 6.13742C82.7441 5.77281 80.155 0.516367 80.155 0.34281C80.155 0.230042 80.2807 0.111443 80.4342 0.0791878C80.8989 -0.0184455 84.9222 0.0511538 85.0901 0.159828Z" fill="#4D4E4F"/>
</svg>
