<svg width="16" height="12" fill="none" xmlns="http://www.w3.org/2000/svg"><path fill-rule="evenodd" clip-rule="evenodd" d="M9.178.52c-.304.287-.554.57-.554.63 0 .059.874.919 1.942 1.91 1.069.992 1.962 1.856 1.986 1.92.027.072-2.318.128-6.254.147L0 5.16v1.7l6.298.031c3.88.02 6.28.076 6.254.146-.024.063-.917.93-1.986 1.925-1.068.996-1.942 1.861-1.942 1.923 0 .215 1.157 1.156 1.37 1.115.117-.023 1.548-1.374 3.18-3.002 2.628-2.625 2.945-2.984 2.795-3.172C15.407 5.117 10.11 0 9.94 0c-.114 0-.456.234-.76.52z" fill="#fff"/><path fill-rule="evenodd" clip-rule="evenodd" d="M9.178.52c-.304.287-.554.57-.554.63 0 .059.874.919 1.942 1.91 1.069.992 1.962 1.856 1.986 1.92.027.072-2.318.128-6.254.147L0 5.16v1.7l6.298.031c3.88.02 6.28.076 6.254.146-.024.063-.917.93-1.986 1.925-1.068.996-1.942 1.861-1.942 1.923 0 .215 1.157 1.156 1.37 1.115.117-.023 1.548-1.374 3.18-3.002 2.628-2.625 2.945-2.984 2.795-3.172C15.407 5.117 10.11 0 9.94 0c-.114 0-.456.234-.76.52z" fill="#D6D6D6"/></svg>