<svg width="22" height="18" fill="none" xmlns="http://www.w3.org/2000/svg"><path fill-rule="evenodd" clip-rule="evenodd" d="M12.62 1.237c-.419.406-.761.807-.761.89 0 .085 1.201 1.303 2.67 2.709 1.469 1.405 2.697 2.628 2.73 2.719.037.103-3.188.181-8.6.209L0 7.809v2.407l8.66.045c5.335.027 8.636.107 8.6.207-.034.09-1.262 1.317-2.731 2.727-1.469 1.41-2.67 2.636-2.67 2.724 0 .305 1.59 1.638 1.882 1.58.162-.034 2.13-1.947 4.372-4.253 3.615-3.719 4.05-4.228 3.845-4.495C21.184 7.75 13.899.5 13.666.5c-.156 0-.627.332-1.046.737z" fill="#767779"/></svg>