<svg width="155" height="43" fill="none" xmlns="http://www.w3.org/2000/svg"><g clip-path="url(#clip0_60_100)"><path d="M.626 36.16c-.195 0-.292.097-.292.292v6.255c0 .195.097.293.292.293H5.12c2.091 0 2.947-.85 2.947-2.756v-1.329c0-1.906-.856-2.756-2.947-2.756H.626zm.914 1.23c0-.078.04-.117.117-.117h3.434c1.303 0 1.76.46 1.76 1.74v1.134c0 1.28-.457 1.739-1.76 1.739H1.657c-.078 0-.117-.04-.117-.117V37.39zm25.95-1.23c-.117 0-.175.058-.175.175v6.49c0 .116.058.175.175.175h.856c.116 0 .175-.059.175-.176v-6.489c0-.117-.059-.176-.175-.176h-.856zm22.981 0c-1.955 0-2.694.703-2.694 2.58v1.68c0 1.877.739 2.58 2.694 2.58h3.881c.769 0 1.196-.4 1.196-1.495v-2.17c0-.195-.097-.293-.291-.293H51.21c-.116 0-.175.059-.175.176v.606c0 .117.059.176.175.176h3.093c.078 0 .117.039.117.127v1.016c0 .538-.185.733-.593.733H50.51c-1.157 0-1.527-.371-1.527-1.554v-1.466c0-1.182.37-1.563 1.527-1.563h4.863c.127 0 .185-.059.185-.176v-.782c0-.117-.058-.176-.185-.176h-4.902zm24.52 0c-.117 0-.175.058-.175.175v6.49c0 .116.058.175.175.175h.856c.117 0 .175-.059.175-.176v-6.489c0-.117-.058-.176-.175-.176h-.856zm20.122 0c-.117 0-.175.058-.175.175v.782c0 .117.058.176.175.176h3.19v5.531c0 .117.059.176.185.176h.856c.117 0 .175-.059.175-.176v-5.531h3.191c.126 0 .184-.059.184-.176v-.782c0-.117-.058-.176-.184-.176h-7.597zm29.182 0c-.34 0-.583.126-.856.615l-3.385 6.03c-.058.117-.029.195.098.195h1.021c.107 0 .156-.03.194-.107l.759-1.378h4.932l.768 1.378c.049.078.097.107.195.107h.992c.136 0 .165-.078.097-.195l-3.404-6.03c-.273-.489-.516-.616-.934-.616h-.477zm.146 1.201c.039-.058.068-.068.117-.068h.058c.049 0 .078.01.117.068l1.799 3.225h-3.89l1.799-3.225zm23.293-1.202c-.117 0-.175.059-.175.176v4.085c0 1.877.739 2.58 2.694 2.58h3.978c.127 0 .185-.059.185-.176v-.782c0-.117-.058-.175-.185-.175h-3.939c-1.157 0-1.527-.382-1.527-1.564v-3.968c0-.117-.058-.176-.175-.176h-.856z" fill="#fff"/></g><path d="M14.892 2.054c-1.87 0-3.326.658-4.782 3.5L.164 25.272c-.312.59-.208 1.04.555 1.04h6.307c.554 0 .797-.139 1.005-.555l1.767-3.639h13.793l1.802 3.64c.208.415.45.554 1.005.554h6.134c.762 0 .866-.45.554-1.04L22.932 5.554c-1.455-2.842-2.91-3.5-5.267-3.5h-2.773zm1.248 6.965c.104-.173.208-.242.381-.242h.174c.173 0 .277.069.38.242l3.813 7.659h-8.456l3.708-7.659zm49.43-6.965c-.693 0-1.04.346-1.04 1.04v14.069c0 6.654 2.738 9.149 9.911 9.149H88.72c.693 0 1.04-.347 1.04-1.04v-4.678c0-.694-.347-1.04-1.04-1.04h-14c-2.461 0-2.911-.52-2.911-3.119V3.093c0-.693-.347-1.04-1.04-1.04H65.57zm40.118 0c-1.872 0-3.327.658-4.783 3.5L90.96 25.272c-.312.59-.208 1.04.554 1.04h6.307c.555 0 .797-.14 1.005-.555l1.768-3.639h13.792l1.802 3.64c.208.415.451.554 1.005.554h6.134c.762 0 .866-.45.554-1.04L113.728 5.554c-1.456-2.842-2.911-3.5-5.268-3.5h-2.772zm1.247 6.965c.104-.173.208-.243.382-.243h.173c.173 0 .277.07.381.243l3.812 7.659h-8.456l3.708-7.659zm20.737-6.965c-.694 0-1.04.346-1.04 1.04v22.178c0 .693.346 1.04 1.04 1.04h21.243c4.609 0 6.064-2.53 6.064-6.308V18.1c0-1.907-.693-3.362-2.044-4.332 1.178-1.005 1.871-2.391 1.871-4.193v-1.63c0-3.984-1.837-5.89-6.723-5.89h-20.411zm18.851 14.554c.867 0 1.283.416 1.283 1.213v.901c0 .728-.416 1.075-1.283 1.075H134.36c-.312 0-.451-.174-.451-.52v-2.669h12.614zm-12.614-7.52c0-.346.139-.52.451-.52h12.163c.867 0 1.283.347 1.283 1.04v.867c0 .693-.416 1.04-1.283 1.04h-12.614V9.087zM54.583 2.054c-.762 0-1.109.207-1.49.658L35.415 25.133c-.38.416-.38 1.179.45 1.179h6.204c.762 0 1.109-.208 1.49-.659l5.214-6.721 4.424 6.721c.381.45.728.659 1.49.659h6.55c.831 0 .831-.763.45-1.179l-8.594-11.656 8.144-10.245c.38-.416.38-1.178-.45-1.178h-6.204zM39.674.658l5.02 7.043a.514.514 0 01-.022.625l-3.816 4.633a.513.513 0 01-.815-.029l-8.35-11.752C31.31.762 31.31 0 32.141 0h6.043c.762 0 1.109.208 1.49.658z" fill="#fff"/><path d="M39.674.658l5.02 7.043a.514.514 0 01-.022.625l-3.816 4.633a.513.513 0 01-.815-.029l-8.35-11.752C31.31.762 31.31 0 32.141 0h6.043c.762 0 1.109.208 1.49.658z" fill="#FF562F"/><defs><clipPath id="clip0_60_100"><path fill="#fff" transform="translate(0 35.834)" d="M0 0h154.979v7.167H0z"/></clipPath></defs></svg>