<svg width="102" height="16" fill="none" xmlns="http://www.w3.org/2000/svg"><path d="M16.737.125c.221.118.24.276.238 2.016 0 1.038-.055 1.971-.12 2.074-.1.16-.924.19-5.918.222-3.904.025-5.855.081-5.963.17-.205.17-.209.985-.006 1.254.14.183.656.21 4.872.241 4.467.034 4.75.05 5.354.297.951.39 1.457.837 1.92 1.695l.418.773.044 2.047c.04 1.844.018 2.116-.218 2.744-.326.866-.962 1.534-1.862 1.956l-.691.324-7.075.035c-3.891.02-7.2.005-7.354-.033-.275-.068-.28-.098-.28-2.054V11.9l.319-.121c.19-.072 2.704-.121 6.272-.121h5.954l.101-.274c.106-.286.073-1.144-.052-1.346-.042-.07-1.813-.117-4.367-.117-2.553 0-4.613-.055-5.076-.136C1.797 9.533.596 8.513.22 7.214c-.222-.766-.295-2.979-.13-3.952C.405 1.396 1.548.384 3.634.124c1.193-.15 12.824-.148 13.103.001z" fill="#C2C6CB"/><path d="M16.737.125c.221.118.24.276.238 2.016 0 1.038-.055 1.971-.12 2.074-.1.16-.924.19-5.918.222-3.904.025-5.855.081-5.963.17-.205.17-.209.985-.006 1.254.14.183.656.21 4.872.241 4.467.034 4.75.05 5.354.297.951.39 1.457.837 1.92 1.695l.418.773.044 2.047c.04 1.844.018 2.116-.218 2.744-.326.866-.962 1.534-1.862 1.956l-.691.324-7.075.035c-3.891.02-7.2.005-7.354-.033-.275-.068-.28-.098-.28-2.054V11.9l.319-.121c.19-.072 2.704-.121 6.272-.121h5.954l.101-.274c.106-.286.073-1.144-.052-1.346-.042-.07-1.813-.117-4.367-.117-2.553 0-4.613-.055-5.076-.136C1.797 9.533.596 8.513.22 7.214c-.222-.766-.295-2.979-.13-3.952C.405 1.396 1.548.384 3.634.124c1.193-.15 12.824-.148 13.103.001z" fill="#4D4E4F"/><path fill-rule="evenodd" clip-rule="evenodd" d="M31.843.354c.822.419 1.462 1.293 2.594 3.543.585 1.164 1.105 2.172 1.155 2.24.05.069.861 1.632 1.803 3.474a814.618 814.618 0 002.376 4.62c1 1.91 1.137 1.78-1.835 1.74l-2.5-.033-.691-1.334-.692-1.333h-9.092l-.633 1.364L23.694 16h-2.551c-2.503 0-2.552-.005-2.552-.258 0-.229 4.959-10.273 6.426-13.016 1.31-2.448 1.865-2.76 4.762-2.672 1.268.038 1.663.096 2.064.3zm-5.06 9.274c0-.025.558-1.202 1.24-2.615.983-2.035 1.286-2.56 1.459-2.529.143.027.653.893 1.484 2.522.697 1.364 1.27 2.523 1.272 2.574.004.051-1.223.093-2.725.093-1.501 0-2.73-.02-2.73-.045z" fill="#C2C6CB"/><path fill-rule="evenodd" clip-rule="evenodd" d="M31.843.354c.822.419 1.462 1.293 2.594 3.543.585 1.164 1.105 2.172 1.155 2.24.05.069.861 1.632 1.803 3.474a814.618 814.618 0 002.376 4.62c1 1.91 1.137 1.78-1.835 1.74l-2.5-.033-.691-1.334-.692-1.333h-9.092l-.633 1.364L23.694 16h-2.551c-2.503 0-2.552-.005-2.552-.258 0-.229 4.959-10.273 6.426-13.016 1.31-2.448 1.865-2.76 4.762-2.672 1.268.038 1.663.096 2.064.3zm-5.06 9.274c0-.025.558-1.202 1.24-2.615.983-2.035 1.286-2.56 1.459-2.529.143.027.653.893 1.484 2.522.697 1.364 1.27 2.523 1.272 2.574.004.051-1.223.093-2.725.093-1.501 0-2.73-.02-2.73-.045z" fill="#4D4E4F"/><path d="M41.559.124c.14.075 1.364 2.407 3.019 5.752 1.53 3.095 2.838 5.661 2.908 5.704.07.043.206.048.303.011.097-.037.783-1.335 1.524-2.884C52.768 1.486 53.451.154 53.744.076c.369-.099 4.361-.102 4.617-.004.108.041.197.183.197.316 0 .22-3.188 6.669-5.938 12.014C50.836 15.87 50.663 16 47.875 16c-2.042 0-2.55-.104-3.167-.645-.658-.577-.977-1.108-2.777-4.626-1.812-3.54-3.68-7.175-4.616-8.977C36.666.5 36.59.17 36.93.082c.45-.118 4.397-.082 4.629.042z" fill="#C2C6CB"/><path d="M41.559.124c.14.075 1.364 2.407 3.019 5.752 1.53 3.095 2.838 5.661 2.908 5.704.07.043.206.048.303.011.097-.037.783-1.335 1.524-2.884C52.768 1.486 53.451.154 53.744.076c.369-.099 4.361-.102 4.617-.004.108.041.197.183.197.316 0 .22-3.188 6.669-5.938 12.014C50.836 15.87 50.663 16 47.875 16c-2.042 0-2.55-.104-3.167-.645-.658-.577-.977-1.108-2.777-4.626-1.812-3.54-3.68-7.175-4.616-8.977C36.666.5 36.59.17 36.93.082c.45-.118 4.397-.082 4.629.042z" fill="#4D4E4F"/><path fill-rule="evenodd" clip-rule="evenodd" d="M75.59.286c1.195.275 1.868.606 2.482 1.22 1.245 1.245 1.51 2.56 1.429 7.111-.062 3.507-.138 3.993-.806 5.183-.454.808-1.301 1.467-2.374 1.846-.806.284-.92.29-6.475.328-4.687.033-5.808.007-6.557-.149-1.767-.368-2.821-1.098-3.423-2.37-.562-1.186-.626-1.745-.623-5.457.003-2.926.038-3.6.222-4.277.614-2.251 2.037-3.308 4.85-3.6.554-.057 3.13-.087 5.724-.066 3.707.031 4.895.08 5.552.231zM64.15 5.304c.07-.254.25-.547.4-.652.23-.162.938-.19 4.828-.19h4.558l.348.3.349.3v5.998l-.349.299-.348.299-4.493-.002c-4.95-.002-5.008-.01-5.26-.746-.187-.543-.213-4.959-.033-5.606z" fill="#C2C6CB"/><path fill-rule="evenodd" clip-rule="evenodd" d="M75.59.286c1.195.275 1.868.606 2.482 1.22 1.245 1.245 1.51 2.56 1.429 7.111-.062 3.507-.138 3.993-.806 5.183-.454.808-1.301 1.467-2.374 1.846-.806.284-.92.29-6.475.328-4.687.033-5.808.007-6.557-.149-1.767-.368-2.821-1.098-3.423-2.37-.562-1.186-.626-1.745-.623-5.457.003-2.926.038-3.6.222-4.277.614-2.251 2.037-3.308 4.85-3.6.554-.057 3.13-.087 5.724-.066 3.707.031 4.895.08 5.552.231zM64.15 5.304c.07-.254.25-.547.4-.652.23-.162.938-.19 4.828-.19h4.558l.348.3.349.3v5.998l-.349.299-.348.299-4.493-.002c-4.95-.002-5.008-.01-5.26-.746-.187-.543-.213-4.959-.033-5.606z" fill="#4D4E4F"/><path d="M85.09.16c.086.055 1.41 2.633 2.944 5.727 1.533 3.095 2.84 5.66 2.904 5.7.267.164.504-.13 1.074-1.33.33-.697 1.24-2.578 2.02-4.182.78-1.603 1.743-3.595 2.139-4.425l.72-1.511.537-.08c.296-.045 1.42-.063 2.498-.04 1.555.031 1.983.077 2.072.221.141.228-6.638 13.766-7.334 14.645-.766.969-1.218 1.115-3.443 1.115-2.08 0-2.403-.076-3.16-.74-.6-.526-.959-1.145-3.128-5.4-1.008-1.98-1.874-3.654-1.924-3.723-.265-.364-2.854-5.62-2.854-5.794 0-.113.126-.232.28-.264.464-.097 4.487-.028 4.655.08z" fill="#C2C6CB"/><path d="M85.09.16c.086.055 1.41 2.633 2.944 5.727 1.533 3.095 2.84 5.66 2.904 5.7.267.164.504-.13 1.074-1.33.33-.697 1.24-2.578 2.02-4.182.78-1.603 1.743-3.595 2.139-4.425l.72-1.511.537-.08c.296-.045 1.42-.063 2.498-.04 1.555.031 1.983.077 2.072.221.141.228-6.638 13.766-7.334 14.645-.766.969-1.218 1.115-3.443 1.115-2.08 0-2.403-.076-3.16-.74-.6-.526-.959-1.145-3.128-5.4-1.008-1.98-1.874-3.654-1.924-3.723-.265-.364-2.854-5.62-2.854-5.794 0-.113.126-.232.28-.264.464-.097 4.487-.028 4.655.08z" fill="#4D4E4F"/></svg>