<svg width="183" height="55" fill="none" xmlns="http://www.w3.org/2000/svg"><path d="M7 5l112.5-1-7 46H7V5z" fill="#FEFEFE"/><path fill-rule="evenodd" clip-rule="evenodd" d="M5.229 1.44c-1.296.79-3.002 2.496-3.792 3.792C.095 7.432 0 8.902 0 27.465c0 18.562.095 20.033 1.437 22.232.79 1.296 2.496 3.002 3.792 3.792 2.294 1.4 3.746 1.437 55.965 1.439l53.61.003.395-1.988c.901-4.529 8.398-51.907 8.398-52.942 0 0-5.987-.002-58.009 0-56.604.003-58.06.037-60.36 1.44zm23.38 6.922c.696.876 3.202 19.1 3.192 23.216-.008 3.76 1.471 1.752 5.05-6.848 6.412-15.414 7.041-16.572 9.452-17.412 2.61-.91 5.31-.065 6.42 2.01.74 1.383.417 30.613-.383 34.57-.392 1.936-3.445 2.93-5.012 1.628-.876-.726-1.082-3.319-1.119-13.993l-.044-13.103-1.749 3.614c-.963 1.988-3.379 7.325-5.37 11.86-4.812 10.964-5.285 11.63-8.262 11.63-3.177 0-3.652-1.273-5.125-13.732-1.863-15.766-1.526-15.716-5.828-.852-2.104 7.271-4.215 13.69-4.691 14.264-1.128 1.36-3.883 1.337-5.025-.04-1.045-1.259-1.002-1.45 3.963-17.71 5.23-17.12 5.938-18.766 8.582-19.91 2.46-1.063 4.703-.759 5.95.808zm52.824.265c4.044 1.836 5.622 4.398 5.555 9.019-.131 9.066-6.557 14.878-16.449 14.878-5.167 0-5.009-.156-5.846 5.783-.916 6.505-2.686 8.689-6.152 7.589-1.94-.616-1.876-1.933.998-20.538C62.443 6.56 61.997 7.218 71.812 7.242c4.914.012 7.378.367 9.621 1.385zm32.618-.533c1.201 1.2 1.084 3.15-.268 4.502-.749.749-2.451 1.136-5.002 1.136-4.523 0-3.744-1.964-6.589 16.624-1.064 6.957-2.384 13.38-2.933 14.275-1.165 1.898-3.963 2.154-5.346.489-.784-.946-.606-3.37 1.052-14.275 1.097-7.226 2.17-14.032 2.385-15.126.388-1.977.37-1.987-3.644-1.987-3.112 0-4.183-.29-4.685-1.265-.786-1.529-.353-3.119 1.183-4.337 1.566-1.242 22.609-1.274 23.847-.036zm-45.643 6.903c-.192.696-.558 2.89-.813 4.878-.254 1.988-.63 4.183-.832 4.88-.322 1.104.177 1.264 3.94 1.264 3.757 0 4.596-.268 6.554-2.097 2.877-2.687 3.2-7.27.638-9.065-2.336-1.636-9.023-1.538-9.487.14z" fill="#0070AE"/><path fill-rule="evenodd" clip-rule="evenodd" d="M130.061.18c-.02.1-2.073 12.459-4.562 27.466l-4.526 27.285 26.426-.001c29.092-.001 29.578-.069 32.881-4.568 1.417-1.93 1.508-3.124 1.708-22.434.211-20.28.203-20.41-1.46-22.897-3.259-4.878-4.12-5.03-28.566-5.03C139.936 0 130.081.08 130.061.18zm28.55 10.3c-.019 1.59-.301 5.086-.626 7.77l-.59 4.878h6.53c7.919 0 8.817.294 8.817 2.88 0 3.207-1.653 3.95-9.662 4.348l-7.281.362-.904 6.767c-1.004 7.522-1.655 8.773-4.56 8.773-3.233 0-3.561-1.107-2.465-8.313.543-3.577.996-6.749 1.004-7.047.008-.297-2.993-.547-6.67-.553-3.678-.006-7.133-.294-7.68-.64-1.24-.786-1.294-4.041-.092-5.49.695-.837 2.599-1.087 8.3-1.087h7.398l.906-6.686c1.17-8.63 1.566-9.357 4.948-9.075 2.595.216 2.663.295 2.627 3.112z" fill="#01A1A1"/></svg>