<svg width="284" height="65" fill="none" xmlns="http://www.w3.org/2000/svg"><g opacity=".6"><path d="M96.124 10.415h2.625V27.88h10.336V10.415h2.638V27.88h1.813v7.835h-2.327v-5.498H96.124V10.415zm20.551 19.802V10.415h14.34v2.337h-11.716v6.065h10.972v2.323h-10.972v6.74h12.176v2.337h-14.8zm18.507 0V10.415h2.625v8.131h10.309v-8.131h2.624v19.802h-2.624v-9.334h-10.309v9.334h-2.625zm24.988 0V12.752h-6.534v-2.337h15.72v2.337h-6.561v17.465h-2.625zm11.892 0V10.415h7.481c1.317 0 2.323.063 3.017.189.974.162 1.791.473 2.449.932.659.45 1.186 1.085 1.583 1.905.406.819.609 1.72.609 2.701 0 1.684-.537 3.111-1.61 4.282-1.073 1.162-3.013 1.742-5.818 1.742h-5.086v8.051h-2.625zm2.625-10.387h5.127c1.696 0 2.9-.316 3.612-.946.713-.63 1.069-1.517 1.069-2.66 0-.83-.212-1.536-.636-2.122a2.902 2.902 0 00-1.65-1.175c-.442-.117-1.259-.175-2.449-.175h-5.073v7.078zM96.03 62.01V42.206h3.95l4.695 14.021c.432 1.306.748 2.283.947 2.931.225-.72.577-1.778 1.055-3.174l4.748-13.778h3.532V62.01h-2.53V45.436l-5.764 16.573h-2.367l-5.737-16.857v16.857h-2.53zm23.215 0V42.206h14.341v2.337H121.87v6.065h10.972v2.323H121.87v6.74h12.176v2.337h-14.801zm23.473 0V44.543h-6.535v-2.337h15.721v2.337h-6.562V62.01h-2.624zm11.892 0V42.206h7.481c1.317 0 2.323.063 3.017.19.974.162 1.79.472 2.449.931.658.45 1.186 1.085 1.583 1.905.406.82.609 1.72.609 2.702 0 1.683-.537 3.11-1.61 4.281-1.074 1.162-3.013 1.743-5.818 1.743h-5.087v8.05h-2.624zm2.624-10.388h5.128c1.695 0 2.899-.315 3.612-.946.712-.63 1.069-1.517 1.069-2.66 0-.829-.212-1.536-.636-2.121a2.9 2.9 0 00-1.651-1.175c-.442-.117-1.258-.176-2.448-.176h-5.074v7.078zm14.436.743c0-3.287.884-5.858 2.651-7.713 1.768-1.864 4.05-2.796 6.846-2.796 1.831 0 3.481.437 4.951 1.31 1.471.874 2.589 2.094 3.356 3.66.775 1.559 1.163 3.328 1.163 5.31 0 2.008-.406 3.804-1.217 5.389-.812 1.585-1.962 2.787-3.45 3.606a9.916 9.916 0 01-4.817 1.216c-1.867 0-3.535-.45-5.005-1.35a8.702 8.702 0 01-3.342-3.688 11.155 11.155 0 01-1.136-4.944zm2.705.04c0 2.387.641 4.269 1.922 5.647 1.289 1.368 2.904 2.053 4.843 2.053 1.975 0 3.599-.694 4.87-2.08 1.281-1.387 1.921-3.355 1.921-5.903 0-1.612-.275-3.017-.825-4.215-.541-1.206-1.339-2.138-2.395-2.796-1.046-.666-2.223-1-3.531-1-1.858 0-3.458.64-4.802 1.919-1.335 1.27-2.003 3.395-2.003 6.376zm20.781-10.198h12.419V62.01h-2.624V44.544h-7.171v10.198c0 2.072-.099 3.589-.297 4.552-.19.964-.596 1.716-1.218 2.256-.622.532-1.411.797-2.367.797-.578 0-1.272-.108-2.084-.324l.447-2.323c.433.18.802.27 1.109.27.595 0 1.042-.22 1.339-.662.298-.45.447-1.504.447-3.16v-13.94zm15.937 10.158c0-3.287.884-5.858 2.651-7.713 1.768-1.864 4.05-2.796 6.846-2.796 1.831 0 3.482.437 4.952 1.31 1.47.874 2.588 2.094 3.355 3.66.775 1.559 1.163 3.328 1.163 5.31 0 2.008-.406 3.804-1.217 5.389-.812 1.585-1.962 2.787-3.45 3.606a9.912 9.912 0 01-4.816 1.216c-1.867 0-3.536-.45-5.006-1.35a8.702 8.702 0 01-3.342-3.688 11.17 11.17 0 01-1.136-4.944zm2.706.04c0 2.387.64 4.269 1.921 5.647 1.289 1.368 2.904 2.053 4.843 2.053 1.975 0 3.599-.694 4.87-2.08 1.281-1.387 1.922-3.355 1.922-5.903 0-1.612-.276-3.017-.826-4.215-.541-1.206-1.339-2.138-2.394-2.796-1.047-.666-2.224-1-3.531-1-1.858 0-3.459.64-4.803 1.919-1.335 1.27-2.002 3.395-2.002 6.376zm19.698-10.198h12.825v2.337h-10.201V62.01h-2.624V42.207zm15.017 0h2.381V57.89l10.552-15.683h2.638V62.01h-2.381V46.368l-10.566 15.641h-2.624V42.207zm19.914 0h2.381V57.89l10.553-15.683H284V62.01h-2.381V46.368l-10.566 15.641h-2.625V42.207z" fill="#fff"/><path d="M.143 45.297A39.609 39.609 0 009.161 65l10.742-9.133a25.533 25.533 0 01-5.814-12.7L.143 45.296z" fill="#434343"/><path d="M8.501 14.396A39.605 39.605 0 000 34.326l13.997 1.768a25.532 25.532 0 015.48-12.848l-10.976-8.85z" fill="#767676"/><path d="M34.221 0A39.731 39.731 0 0014.3 8.58l8.915 10.917a25.611 25.611 0 0112.843-5.53L34.22 0z" fill="#969696"/><path d="M64.556 8.648a39.731 39.731 0 00-19.9-8.634l-1.873 13.962c4.71.63 9.153 2.557 12.828 5.565l8.945-10.893z" fill="#A7A7A7"/><path d="M78.9 35.472a39.601 39.601 0 00-7.917-20.17l-11.229 8.529a25.529 25.529 0 015.104 13.001l14.042-1.36z" fill="#CBCBCB"/><path d="M70.289 64.183a39.605 39.605 0 008.486-19.937L64.777 42.49a25.53 25.53 0 01-5.47 12.851l10.982 8.843z" fill="#fff"/><path fill-rule="evenodd" clip-rule="evenodd" d="M40.584 23.789a127.876 127.876 0 013.047 3.948c3.23 4.376 5.66 8.375 7.02 11.556 1.087 2.54 1.354 4.31.984 6.512-.268 1.597-.796 3.049-1.584 4.362-.561.933-1.038 1.53-1.956 2.444-1.004 1.001-1.644 1.489-2.7 2.058-1.485.8-2.945 1.27-4.586 1.473-.668.083-2.12.082-2.798-.002a12.372 12.372 0 01-6.16-2.534c-1.953-1.524-3.402-3.57-4.157-5.866-.583-1.773-.767-3.482-.539-5.006.143-.953.575-2.393 1.027-3.424.32-.726 1.375-2.832 1.85-3.689 1.554-2.804 3.936-6.305 6.807-10.009.836-1.079 2.55-3.228 2.582-3.24.015-.005.538.632 1.163 1.417zm6.297 14.197c.212.9.334 1.574.416 2.284.163 1.42.122 3.05-.106 4.17-.176.871-.318 1.363-.59 2.056a11.408 11.408 0 01-2.702 4.043c-.6.586-1.072.963-1.865 1.49a22.14 22.14 0 00-.646.44c0 .008.009.008.637-.048 1.892-.166 3.633-.967 4.93-2.267a7.161 7.161 0 001.842-3.172c.369-1.394.44-3.146.188-4.642-.203-1.21-.67-2.615-1.193-3.6-.287-.54-1.062-1.676-1.09-1.596-.005.019.075.398.18.842z" fill="#E0E0E0"/></g></svg>