<svg id="Слой_1" data-name="Слой 1" xmlns="http://www.w3.org/2000/svg" viewBox="0 0 153 113"><path d="M420.53-6.88C404.4 9.29 391.21 22.72 391.21 23c0 .52 3.5 4 4 4a66.29 66.29 0 005.86-5.61l5.5-5.61v61h6.15v-67L431.44-9.1l18.7-18.79L464-13.95 477.92 0l6.34-.11 6.33-.11.1-8.58.1-8.58h7.29v17h24.22V-6.6h-18.07v-17h-19.6v17.39h-4.28l-14.93-15c-8.22-8.27-15.08-15-15.26-15s-13.51 13.15-29.63 29.33z" transform="translate(-391.21 36.29)" style="isolation:isolate" fill-rule="evenodd" opacity=".6" fill="#11b7eb"/><path d="M502.8 11.11c1.29-1.06 2.56-3.6 2.05-4.1a6.62 6.62 0 00-2-.5c-1.54-.23-1.8-.16-2.32.64-1.1 1.68-3.67 1.52-4.23-.25-.13-.42-.36-.75-.5-.72l-1.8.31a7.3 7.3 0 00-1.77.43c-.41.49.7 2.83 1.9 4a6.6 6.6 0 008.67.19zm-38.04 28.61a13.52 13.52 0 008.75-.07 12.45 12.45 0 008.14-7.22c1.07-2.27 1.14-2.66 1-6-.2-4.23-1.19-6.54-3.89-9s-4.84-3.35-9.1-3.45a22.23 22.23 0 00-4.81.26 15 15 0 00-8.33 7.24c-.74 1.51-.89 2.44-.89 5.48 0 3.2.13 3.94 1 5.79a12.41 12.41 0 008.13 6.97zm.41-18.2c1.85-1.46 5.19-1.71 7-.51a5.73 5.73 0 012.72 3c2 4.86-.94 9.85-5.83 9.85a7.07 7.07 0 01-4.43-1.86c-2.76-2.62-2.47-8.1.54-10.48zm-21.1-7.28L442 17.8c-3 5-3.63 6-3.85 6a49.36 49.36 0 01-3.15-4.75l-2.88-4.8h-7.5v25.43h6.9l.11-7 .1-7 3 4.66a42.49 42.49 0 003.35 4.66 38.28 38.28 0 002.92-4.2c1.48-2.32 2.9-4.53 3.16-4.9.37-.55.47.75.48 6.55v7.23h6.92V14.23h-7.5zm49.29 25.44l1.52-2.22c.83-1.22 2.79-4.12 4.36-6.46s3.08-4.47 3.35-4.75.49.82.49 6.46v7H510V14.23h-3.46c-1.9 0-3.46.14-3.46.32a3 3 0 01-.67 1.13c-.37.44-2.14 3-3.94 5.7s-3.65 5.36-4.12 5.92l-.86 1V14.23h-6.92v25.45h6.81zm3.88 5.86A13.61 13.61 0 00487 53.18a10.54 10.54 0 00-1 5.4c0 2.8.14 3.6 1.05 5.52a13.74 13.74 0 0016 7.43 13 13 0 009.82-9.85 12.29 12.29 0 00-2.33-11.12c-2.92-3.94-7.69-5.74-13.3-5.02zm5.17 19.21a5.17 5.17 0 01-5 .17c-3.34-1.4-4.82-4.52-3.93-8.27a5.31 5.31 0 012-3.26 8 8 0 012.36-1.5 8.31 8.31 0 015 .9c2.22 1.38 3.08 3 3.07 5.79.09 3.1-1.06 5.01-3.5 6.17zm-21.24.39V45.85h-19.46l-.44 6.46c-.41 5.95-.93 9-2 11.77a1.35 1.35 0 01-1.56 1.06h-1.16v11.57h6.48l.21-1.64c.12-.9.26-2.08.32-2.61l.1-1 6.63-.11 6.63-.1v5.42h6l.47-4c.26-2.17.47-4.77.47-5.78v-1.75h-2.69zm-7.31-6.56v6.56h-3.67c-3.32 0-3.66-.07-3.49-.68a44.62 44.62 0 001.66-9l.24-3.46h5.26zm66.54-12.73h-3.82l-1.82 3c-2.57 4.21-4.12 6.65-4.21 6.65s-1-1.51-2.1-3.37-2.46-4-3-4.82l-1-1.45h-7.58v25.45h6.9l.11-7.22.1-7.22 2.19 3.46c1.21 1.9 2.66 4.13 3.24 5 1.24 1.78.84 2.12 4.95-4.26l2.69-4.19.11 7.24.1 7.23h6.9v-25.5z" transform="translate(-391.21 36.29)" style="isolation:isolate" fill-rule="evenodd" opacity=".6" fill="#06568a"/></svg>