<svg width="153" height="113" fill="none" xmlns="http://www.w3.org/2000/svg"><path opacity=".6" fill-rule="evenodd" clip-rule="evenodd" d="M29.312 29.412C13.191 45.586 0 59.015 0 59.252c0 .519 3.496 3.995 4.017 3.995.201 0 2.84-2.524 5.863-5.61l5.497-5.612V113h6.151V45.978l18.7-18.786L58.93 8.406l13.89 13.932L86.711 36.27l6.331-.106 6.331-.106.103-8.582.104-8.581h7.289v16.97h24.219v-6.171H113.02v-16.97H93.415V30.08h-4.277L74.203 15.038C65.99 6.766 59.123-.002 58.946 0c-.177.002-13.512 13.237-29.634 29.412zm73.432 13.372c-.895.146-1.69.341-1.768.434-.41.486.701 2.821 1.895 3.985 2.299 2.24 6.145 2.33 8.717.203 1.29-1.066 2.555-3.6 2.051-4.107-.125-.125-1.006-.346-1.957-.49-1.537-.235-1.795-.165-2.315.632-1.096 1.678-3.666 1.527-4.228-.248-.134-.425-.362-.75-.506-.724-.144.027-.994.169-1.889.315zm-29.127 7.74c-3.34 1.037-6.74 3.992-8.328 7.236-.743 1.517-.893 2.44-.895 5.488-.003 3.193.129 3.936 1.027 5.785 1.777 3.656 4.283 5.81 8.122 6.981 3.097.945 5.707.923 8.756-.074 3.986-1.305 6.336-3.388 8.14-7.215 1.068-2.27 1.133-2.664.977-5.978-.2-4.233-1.192-6.54-3.888-9.033-2.771-2.563-4.841-3.349-9.106-3.455-2.008-.05-4.17.069-4.805.266zM33.445 63.249v12.727h6.902l.105-6.971.105-6.971 3.04 4.657c1.674 2.561 3.144 4.652 3.268 4.645.125-.007 1.438-1.913 2.918-4.237 1.48-2.323 2.901-4.53 3.159-4.905.376-.546.47.748.48 6.55l.013 7.232h6.92V50.521l-3.749.006-3.748.006-2.113 3.561c-2.975 5.012-3.626 6.035-3.845 6.043-.106.003-1.49-2.155-3.076-4.796l-2.883-4.801-3.748-.01-3.748-.01v12.728zm61.892 0v12.727h6.812l1.512-2.218c.831-1.22 2.798-4.126 4.37-6.46 1.573-2.333 3.079-4.471 3.348-4.752.395-.413.488.815.488 6.46v6.97h6.919V50.521h-3.459c-1.903 0-3.46.146-3.46.326 0 .18-.303.686-.673 1.126-.37.44-2.143 3.006-3.94 5.705-1.797 2.698-3.651 5.358-4.12 5.912l-.853 1.008-.012-7.039-.013-7.038h-6.92v12.727zM80.92 57.304c1.666 1.123 2.129 1.643 2.712 3.041 2.02 4.854-.936 9.845-5.832 9.845-1.401 0-3.266-.796-4.388-1.873-2.753-2.644-2.469-8.128.544-10.504 1.853-1.46 5.19-1.705 6.964-.51zm25.103 24.528c-4.294.552-8.373 3.593-10.251 7.642-.808 1.74-.987 2.71-.999 5.4-.012 2.801.14 3.603 1.05 5.521 2.878 6.066 9.467 9.116 16.049 7.429 5.116-1.311 8.52-4.724 9.825-9.853 1.04-4.083.302-7.596-2.334-11.114-2.959-3.949-7.732-5.747-13.34-5.025zM70.05 88.606c-.409 5.947-.92 9.003-1.97 11.763-.317.834-.652 1.061-1.566 1.061h-1.163V113h6.488l.21-1.639c.116-.901.257-2.073.313-2.603l.1-.965 6.632-.105 6.631-.106V113h5.984l.468-3.953c.258-2.175.468-4.778.468-5.785v-1.832h-2.691V82.146h-19.46l-.444 6.46zm55.655 6.267v12.728h6.904l.104-7.218.105-7.218 2.19 3.457c1.204 1.902 2.661 4.134 3.237 4.961 1.241 1.781.842 2.124 4.952-4.264l2.691-4.181.105 7.231.104 7.232H153V82.146h-7.634l-1.825 2.989c-2.568 4.208-4.113 6.653-4.201 6.653-.041 0-.987-1.519-2.102-3.375-1.115-1.856-2.459-4.025-2.988-4.82l-.96-1.447h-7.584v12.727zm-14.043-5.792c2.227 1.38 3.084 2.994 3.076 5.792-.008 3.101-1.104 5.009-3.541 6.168-1.958.931-3.115.971-5.014.175-3.34-1.4-4.823-4.526-3.927-8.275.353-1.475.827-2.245 2.006-3.257.848-.729 1.912-1.405 2.363-1.503 1.384-.3 3.798.132 5.037.9zM82.65 94.873v6.557h-3.678c-3.32 0-3.66-.066-3.486-.675.911-3.203 1.452-6.154 1.656-9.033l.24-3.405h5.268v6.556z" fill="#fff"/></svg>