<svg width="1466" height="357" fill="none" xmlns="http://www.w3.org/2000/svg"><path d="M876 236v-97.5l17.5-17.5H929v115h-17.5V134.5h-6l-12 12V236H876z" fill="#3D8C6F"/><path fill-rule="evenodd" clip-rule="evenodd" d="M618.5 122h34l17 14.5V219l-17 17h-17v56h-17V122zm16 99.5V136h10l8 5.5V213l-8 8.5h-10zM426 88v16h12.5l-9.5 13v61.5l16.5 16.5H468v27l-16 2.5v11h49.5v-11l-16-2.5v-27h21l16.5-17.5V113l-19-25h-78zm42 16h-14l-7.5 10.5V172l11 11H468v-79zm16 0h14l7.5 10.5V172l-11 11H484v-79zm61.5 34v82.5L560 236h20.5l16-15.5V138l-16-16H560l-14.5 16zm22 0l-5.5 5.5v74l5.5 5.5h7l6-5.5v-74l-6-5.5h-7z" fill="#3D8C6F"/><path d="M236.647 199.148c13.181-28.588 47.041-41.078 75.629-27.897 26.478 12.208 39.147 42.156 30.399 69.225a175.66 175.66 0 01-2.756 6.947c-26.897 63.817-90.036 108.615-163.638 108.615-46.898 0-89.548-18.188-121.281-47.895 7.126 1.323 14.032 2.451 20.723 3.363 48.777 7.637 82.777 1.642 109.282-18.973 19.896-15.475 35.297-40.106 46.834-76.622a56.957 56.957 0 014.808-16.763z" fill="#3A9471"/><path d="M118.777 156.89c-13.181 28.588-47.041 41.078-75.63 27.897-26.478-12.208-39.146-42.156-30.399-69.225.872-2.339 1.79-4.655 2.757-6.947C42.402 44.798 105.54 0 179.143 0c46.898 0 89.548 18.188 121.281 47.895-7.126-1.323-14.032-2.45-20.724-3.363-48.776-7.637-82.776-1.642-109.281 18.973-19.896 15.475-35.298 40.106-46.834 76.622a56.978 56.978 0 01-4.808 16.763z" fill="#379571"/><path d="M156.89 239.647c28.588 13.181 41.078 47.041 27.897 75.629-12.208 26.478-42.156 39.147-69.225 30.399a176.273 176.273 0 01-6.947-2.756C44.798 316.022 0 252.883 0 179.281 0 132.383 18.188 89.733 47.895 58c-1.323 7.126-2.45 14.032-3.363 20.723C36.895 127.5 42.89 161.5 63.505 188.005c15.475 19.896 40.106 35.297 76.622 46.834a56.948 56.948 0 0116.763 4.808z" fill="#55E2AE"/><path d="M199.148 115.777c-28.588-13.181-41.078-47.041-27.897-75.629 12.208-26.479 42.156-39.147 69.225-30.4 2.339.872 4.655 1.79 6.947 2.757 63.817 26.897 108.615 90.036 108.615 163.638 0 46.898-18.188 89.548-47.895 121.281 1.323-7.126 2.451-14.032 3.363-20.723 7.637-48.777 1.642-82.777-18.973-109.282-15.475-19.896-40.106-35.297-76.622-46.834a56.978 56.978 0 01-16.763-4.808z" fill="#235441"/><path d="M691 235.5V121h20.5l20 22h8.5l22-22h18.5v114.5h-16V143L745 161v74.5h-18.5V161l-18-18v92.5H691zm539 0V121h20.5l20 22h8.5l22-22h18.5v114.5h-16V143l-19.5 18v74.5h-18.5V161l-18-18v92.5H1230zM803 122h17v91l5.5 9h11V122H854v151l-17.5 18.5H820L803 275v-23h14.5v15l8 8h7.5l6.5-8v-30.5H820L803 222V122z" fill="#3D8C6F"/><path fill-rule="evenodd" clip-rule="evenodd" d="M963 150.5h-14V136l15-15h24l15 15v90h9.5v9l-20.5.5h-28l-15-14v-42l17-17h22v-17l-6.5-6.5H967l-4 11.5zm25 26.5h-13.5L964 188v24l8 7h9.5l6.5-7v-35zm176-26.5h-14V136l15-15h24l15 15v90h9.5v9l-20.5.5h-28l-15-14v-42l17-17h22v-17l-6.5-6.5H1168l-4 11.5zm25 26.5h-13.5l-10.5 11v24l8 7h9.5l6.5-7v-35z" fill="#3D8C6F"/><path d="M1070 105V91h28.5v14h-6v34h10.5l6.5-6.5V105h-4.5V91h29v14h-6.5v31l-13 10.5v4.5l13 11v60h6.5v13.5h-29V222h7v-50l-13.5-16h-6v66h6v13.5H1070V222h6.5V117.5l10-12.5H1070zm272 17h16.5v49.5h18V122h17v114h-17v-50.5h-18V236H1342V122z" fill="#3D8C6F"/><path fill-rule="evenodd" clip-rule="evenodd" d="M1432 236h-17v-42l11.5-9.5v-3l-11.5-9v-35l17-15.5h34v114h-15v-45h-11.5l-7.5 6.5V236zm7.5-62l-10-7v-24l10-8.5h9l2.5 5.5v34h-11.5z" fill="#3D8C6F"/></svg>