<svg width="242" height="59" fill="none" xmlns="http://www.w3.org/2000/svg"><g opacity=".6"><path d="M144.606 39.108V22.951l2.889-2.9h5.86v19.057h-2.889v-16.82h-.991l-1.98 1.989v14.831h-2.889z" fill="#D0D0D0"/><path fill-rule="evenodd" clip-rule="evenodd" d="M102.099 20.217h5.612l2.807 2.403v13.67l-2.807 2.817h-2.806v9.28h-2.806v-28.17zm2.641 16.488V22.537h1.651l1.32.911v11.849l-1.32 1.408h-1.651zM70.322 14.583v2.651h2.063l-1.568 2.154V29.58l2.724 2.734h3.714v4.474l-2.641.415v1.822h8.171v-1.822l-2.641-.415v-4.474h3.466l2.724-2.9V18.725l-3.136-4.142H70.322zm6.933 2.651h-2.31l-1.239 1.74v9.529l1.816 1.822h1.733v-13.09zm2.641 0h2.311l1.238 1.74v9.529l-1.815 1.822h-1.734v-13.09zm10.152 5.634V36.54l2.394 2.568h3.384l2.641-2.568V22.868l-2.641-2.651h-3.384l-2.394 2.651zm3.632 0l-.908.912v12.262l.908.912h1.156l.99-.912V23.78l-.99-.912H93.68z" fill="#D0D0D0"/><path d="M39.065 33.001c2.175-4.737 7.765-6.807 12.484-4.623 4.37 2.023 6.462 6.986 5.018 11.472-.144.388-.295.771-.455 1.151C51.672 51.576 41.25 59 29.1 59c-7.742 0-14.783-3.014-20.02-7.937 1.175.22 2.315.406 3.42.557 8.052 1.266 13.664.273 18.04-3.144 3.284-2.564 5.826-6.646 7.73-12.697a9.471 9.471 0 01.794-2.778z" fill="#8D8D8D"/><path d="M19.607 25.999c-2.176 4.737-7.765 6.807-12.484 4.623C2.752 28.599.66 23.636 2.104 19.15c.144-.388.296-.771.455-1.151C7 7.424 17.422 0 29.572 0c7.742 0 14.782 3.014 20.02 7.937a71.964 71.964 0 00-3.42-.557c-8.052-1.266-13.665-.273-18.04 3.144-3.284 2.564-5.827 6.646-7.731 12.697a9.471 9.471 0 01-.794 2.778z" fill="#989898"/><path d="M25.899 39.712c4.719 2.185 6.78 7.796 4.605 12.533-2.016 4.388-6.96 6.487-11.428 5.038a29.018 29.018 0 01-1.146-.457C7.395 52.369 0 41.906 0 29.709c0-7.771 3.002-14.84 7.906-20.098a72.752 72.752 0 00-.555 3.434c-1.26 8.083-.27 13.718 3.132 18.11 2.555 3.297 6.62 5.849 12.648 7.76.935.119 1.867.38 2.768.797z" fill="#D3D3D3"/><path d="M32.874 19.186c-4.719-2.184-6.78-7.796-4.605-12.533 2.016-4.388 6.96-6.487 11.428-5.038.386.145.768.297 1.146.457 10.535 4.457 17.93 14.92 17.93 27.117a29.37 29.37 0 01-7.906 20.098c.218-1.18.404-2.325.555-3.434 1.26-8.083.27-13.717-3.132-18.11-2.555-3.297-6.62-5.849-12.648-7.76a9.378 9.378 0 01-2.768-.797z" fill="#4A4A4A"/><path d="M114.067 39.025V20.051h3.384l3.301 3.646h1.404l3.631-3.646h3.054v18.974H126.2V23.697l-3.219 2.983v12.345h-3.054V26.68l-2.971-2.983v15.328h-2.889zm88.975 0V20.051h3.384l3.302 3.646h1.403l3.632-3.646h3.053v18.974h-2.641V23.697l-3.219 2.983v12.345h-3.054V26.68l-2.971-2.983v15.328h-2.889zm-70.487-18.808h2.807v15.08l.907 1.491h1.816V20.217h2.889V45.24l-2.889 3.065h-2.723l-2.807-2.734V41.76h2.394v2.485l1.32 1.326h1.239l1.072-1.326v-5.054h-3.218l-2.807-2.403V20.217z" fill="#D0D0D0"/><path fill-rule="evenodd" clip-rule="evenodd" d="M158.967 24.94h-2.311v-2.403l2.476-2.486h3.962l2.476 2.486V37.45h1.568v1.492l-3.384.082h-4.622l-2.476-2.32v-6.96l2.806-2.817h3.632V24.11l-1.073-1.077h-2.393l-.661 1.906zm4.127 4.391h-2.228l-1.734 1.823v3.977l1.321 1.16h1.568l1.073-1.16v-5.8zm29.053-4.391h-2.311v-2.403l2.476-2.486h3.962l2.476 2.486V37.45h1.569v1.492l-3.384.082h-4.623l-2.476-2.32v-6.96l2.807-2.817h3.631V24.11l-1.073-1.077h-2.393l-.661 1.906zm4.127 4.391h-2.228l-1.734 1.823v3.977l1.321 1.16h1.568l1.073-1.16v-5.8z" fill="#D0D0D0"/><path d="M176.63 17.4v-2.32h4.705v2.32h-.991v5.634h1.734l1.073-1.077V17.4h-.743v-2.32h4.787v2.32h-1.073v5.137l-2.146 1.74v.746l2.146 1.822v9.943h1.073v2.237h-4.787v-2.237h1.155v-8.285l-2.228-2.652h-.991v10.937h.991v2.237h-4.705v-2.237h1.073V19.471l1.651-2.071h-2.724zm44.901 2.817h2.723v8.203h2.972v-8.203h2.806v18.891h-2.806V30.74h-2.972v8.368h-2.723V20.217z" fill="#D0D0D0"/><path fill-rule="evenodd" clip-rule="evenodd" d="M236.387 39.108h-2.806v-6.96l1.899-1.574v-.497l-1.899-1.492v-5.8l2.806-2.568H242v18.891h-2.476v-7.457h-1.898l-1.239 1.077v6.38zm1.239-10.274l-1.651-1.16v-3.977l1.651-1.409h1.485l.413.912v5.634h-1.898z" fill="#D0D0D0"/></g></svg>