<svg width="245" height="60" fill="none" xmlns="http://www.w3.org/2000/svg"><g opacity=".6"><path fill-rule="evenodd" clip-rule="evenodd" d="M155.363 3.866c-.183.63-.373 1.281-.645 1.89-.071.161.081.361.261.343.686-.066 1.389-.044 2.068-.023 1.378.043 2.68.083 3.658-.606 1.37-.966 1.666-2.823.662-4.14-1.004-1.318-2.933-1.604-4.303-.638-.977.69-1.329 1.896-1.701 3.174zm50.721 28.922c-.184.632-.373 1.286-.645 1.898-.072.16.081.361.261.344.686-.066 1.389-.045 2.068-.023 1.378.043 2.68.083 3.658-.61 1.369-.97 1.666-2.833.662-4.156-1.004-1.322-2.934-1.61-4.302-.64-.978.693-1.33 1.904-1.702 3.187zm12.262 2.756h-1.865c-3.117 0-4.811.617-6.775 3.488l-7.61 11.414V35.544h-5.056v21.783h5.818L213.29 41.88v15.447h5.056V35.544zm20.918.015h5.062v21.768h-5.062v-8.75h-11.181v8.75h-5.063V35.559h5.063v8.442h11.181v-8.442zm-67.242 8.006v5.732c0 7.83.688 8.03 8.242 8.03h12.583v-4.572h-12.826c-2.609 0-2.975-.426-2.975-3.197v-.971h12.705v-4.525h-12.705v-.734c0-2.771.366-3.198 2.975-3.198h12.689v-4.57h-13.632c-6.437 0-7.056.93-7.056 8.006zM134.16 6.756h-5.539c-6.421 0-8.284 1.744-8.284 7.966v5.704c0 6.174 2.5 7.966 8.921 7.966h4.289c6.47 0 8.921-1.792 8.921-7.966v-5.704c0-6.222-1.813-7.966-8.308-7.966zm3.26 13.67c0 2.757-.613 3.417-3.236 3.417h-5.538c-2.623 0-3.236-.66-3.236-3.418v-5.703c0-2.757.613-3.417 3.236-3.417h5.538c2.623 0 3.236.66 3.236 3.417v5.704zm5.024 15.133h-13.848c-6.42 0-8.283 1.755-8.259 8.015v5.738c0 6.213 1.863 8.015 8.284 8.015h13.847V52.75h-13.847c-2.622 0-3.235-.664-3.235-3.438v-5.738c0-2.775.613-3.439 3.235-3.439h8.847v2.26h4.519c.459-1.533.459-1.906.457-3.74V35.56zm11.445 0h13.848v3.096c.001 1.834.002 2.207-.457 3.74h-4.519v-2.26h-8.847c-2.622 0-3.235.664-3.235 3.439v5.738c0 2.774.613 3.438 3.235 3.438h13.847v4.577h-13.847c-6.421 0-8.284-1.802-8.284-8.015v-5.738c-.025-6.26 1.838-8.015 8.259-8.015zm-58.982 8.015c0-6.331 1.929-8.015 8.253-8.015h12.916v21.768h-5.03v-7.303h-11.11v7.303h-5.029V43.574zm5.03 1.944h11.109V40.16h-7.886c-2.906 0-3.223.972-3.223 3.438v1.921zm-9.963-5.311v-4.648h-20.36v21.768h13.737c4.98 0 7.432-2.466 7.432-6.521 0-.664-.123-1.328-.294-1.968-.663-2.348-2.92-3.913-5.446-3.913H74.667v-4.718h15.306zM83.4 48.53h-8.733v4.22H83.4c1.692 0 2.305-.9 2.305-2.181 0-1.257-.613-2.04-2.305-2.04zm32.058-36.023c0 2.286-.981 3.77-2.159 4.454 1.57.66 3.165 2.263 3.189 4.95 0 4.03-2.453 6.48-7.432 6.48H95.319V6.756h13.222c5.175 0 6.942 2.828 6.917 5.75zm-7.481-1.131h-7.605v3.888h7.605c1.741 0 2.428-.707 2.428-2.027 0-1.272-.687-1.861-2.428-1.861zm-7.605 12.467h8.733c1.693 0 2.305-.896 2.305-2.168 0-1.25-.612-2.027-2.305-2.027h-8.733v4.195zm67.389-17.15h-1.865c-3.118 0-4.811.59-6.776 3.475l-7.609 11.369V6.693h-5.056v21.699h5.817l10.433-15.388v15.388h5.056v-21.7zm-76.978.063v4.714l-8.2-.118v17.04H77.54v-17.04l-8.2.118V6.756h21.443zM14.79 3.922C6.817 3.922.354 10.385.354 18.358V45.4c0 7.973 6.463 14.436 14.436 14.436h26.054c7.973 0 14.436-6.463 14.436-14.436V18.358c0-7.973-6.463-14.436-14.436-14.436H14.79zm.643 6.625a8.602 8.602 0 00-8.603 8.602v25.46a8.602 8.602 0 008.603 8.602H40.2a8.602 8.602 0 008.603-8.602v-25.46a8.602 8.602 0 00-8.603-8.602H15.433z" fill="#fff"/><path d="M28.83 14.674c3.01 0 6.024-.07 9.029.033 1.92.065 3.523.935 4.757 2.444 2.448 3 1.663 7.445-1.486 9.595-1.253.855-2.645 1.196-4.131 1.084-1.935-.15-3.542-1.01-4.687-2.57-2.056-2.805-2.51-7.357-3.481-10.586z" fill="#929292"/></g></svg>