<svg id="Слой_1" data-name="Слой 1" xmlns="http://www.w3.org/2000/svg" viewBox="0 0 246.33 88.26"><defs><style>.cls-4{fill-rule:evenodd}</style></defs><rect width="83.09" height="88.26" rx="9.8" fill="#09a6a3"/><path d="M-156.28-108.61v11.47c10.34 0 17.54-3.76 24.39-8V-76h11.07v-29.14c6.8 3.75 13.09 8 23.88 8v-11.47c-14.73 0-23.88-11.11-23.88-21.76h-11.07c0 10.73-9.11 21.76-24.39 21.76z" transform="translate(168.15 147.3)" fill="#fff"/><path d="M-78.81-125.42v9.42h15.94c2.34 0 3.38.27 3.47 3.08v32h9v-32c0-1.33 0-3.07 3.06-3.07H-31v-9.39z" transform="translate(168.15 147.3)"/><path class="cls-4" d="M-79.21-125.82h48.61v10.19h-16.75c-1.46 0-2.06.41-2.34.85a3.4 3.4 0 00-.32 1.83v32.43h-9.79v-32.43c0-1.37-.32-2-.73-2.26a2.05 2.05 0 00-.89-.32 11.05 11.05 0 00-1.46-.11h-16.33zm.8 9.39h15.54a10.58 10.58 0 011.58.11 2.75 2.75 0 011.24.47c.72.53 1 1.46 1 2.88v31.65h8.19V-113a4 4 0 01.45-2.21c.48-.76 1.41-1.22 3-1.22h16V-125h-47z" transform="translate(168.15 147.3)"/><path d="M77.78-125.42v9.35H40.19c-2.08 0-2.7.81-2.7 2v21.77a2.41 2.41 0 002.7 2.24h37.59v9.14H41.65c-7.91 0-13.32-4.26-13.32-11.38V-114c0-6.5 5.41-11.38 13.32-11.38z" transform="translate(168.15 147.3)"/><path class="cls-4" d="M78.18-125.82v10.15h-38a2.88 2.88 0 00-1.87.46 1.42 1.42 0 00-.43 1.17v21.74c0 1 .8 1.84 2.3 1.84h38v9.94H41.65a15.21 15.21 0 01-9.88-3.11 10.89 10.89 0 01-3.84-8.67V-114c0-6.78 5.65-11.78 13.72-11.78zm-.8.8H41.65c-7.74 0-12.92 4.75-12.92 11v21.72a10.09 10.09 0 003.55 8 14.36 14.36 0 009.37 2.93h35.73v-8.34H40.19a2.81 2.81 0 01-3.1-2.64V-114a2.21 2.21 0 01.71-1.78 3.63 3.63 0 012.39-.65h37.19z" transform="translate(168.15 147.3)"/><path d="M-13.5-125.42h-10.91v12c0-7.1 0-12 10.91-12z" transform="translate(168.15 147.3)"/><path class="cls-4" d="M-24.41-92.67l8.76 1.08v-4.61c0-1.34.88-2.69 2.17-2.69h24.3c1.47 0 1.95 1.18 1.95 2.36v4.94c0 1.88-.78 2.44-1.95 2.44H-13.5a2.23 2.23 0 01-2.15-2.44l-8.76-1.08c0 7.11 0 11.75 6.82 11.75h28.42c6.23 0 10.91-4.36 10.91-11.47 0-4.24-.9-7.92-2.76-10.53 1.86-2.6 2.76-6.29 2.76-10.52 0-7.11-4.68-12-10.91-12H-13.5c-10.9 0-10.91 4.85-10.91 12v20.8zm35.24-24.51c1.17 0 1.95.56 1.95 2.43v5.45c0 1.18-.48 2.35-1.95 2.35H-13.5c-1.3 0-2.15-1.34-2.15-2.68v-5.12a2.22 2.22 0 012.15-2.43z" transform="translate(168.15 147.3)"/><path d="M-17.59-80.92c-6.82 0-6.82-4.64-6.82-11.75v11.75z" transform="translate(168.15 147.3)"/></svg>