<svg width="236" height="56" fill="none" xmlns="http://www.w3.org/2000/svg"><g opacity=".6"><path d="M1.113 22.742v11.473c10.34 0 17.532-3.767 24.385-7.973v29.136h11.069V26.242c6.803 3.752 13.096 7.973 23.885 7.973V22.742c-14.73 0-23.885-11.11-23.885-21.758H25.498c0 10.73-9.155 21.758-24.385 21.758z" fill="#414141"/><path fill-rule="evenodd" clip-rule="evenodd" d="M25.098.584h11.869v.4c0 10.425 8.973 21.358 23.485 21.358h.4v12.273h-.4c-9.813 0-15.966-3.464-22.04-6.883a409.78 409.78 0 00-1.445-.811v28.857H25.098V26.955c-6.695 4.067-13.841 7.66-23.985 7.66h-.4V22.342h.4c15.018 0 23.985-10.857 23.985-21.358v-.4zm.796.8C25.672 12.12 16.53 22.95 1.514 23.14v10.674c10.013-.095 17.03-3.773 23.775-7.912l.609-.374v29.451h10.269V25.564l.593.327c.686.379 1.365.76 2.043 1.143 5.987 3.368 11.886 6.687 21.25 6.78V23.138C45.517 22.942 36.394 12.033 36.17 1.384H25.894z" fill="#414141"/><path d="M78.583 5.93v9.387h15.934c2.34.04 3.386.277 3.469 3.078v32.039h8.992v-32.04c0-1.338 0-3.077 3.064-3.077h16.342V5.93H78.583z" fill="#AAADB1"/><path fill-rule="evenodd" clip-rule="evenodd" d="M78.183 5.53h48.601v10.187h-16.742c-1.461 0-2.063.41-2.343.851-.31.487-.321 1.13-.321 1.827v32.439h-9.792V18.4c-.041-1.373-.32-1.96-.725-2.258-.213-.156-.498-.261-.893-.327-.396-.067-.873-.089-1.455-.1h-16.33V5.53zm.8 9.387h15.54c.587.01 1.117.033 1.577.11.462.077.883.213 1.234.471.723.53 1.01 1.46 1.051 2.885v31.651h8.193V18.35c0-.64 0-1.51.446-2.211.485-.763 1.414-1.222 3.018-1.222h15.942V6.33H78.983v8.587z" fill="#AAADB1"/><path d="M235.171 5.93v9.348h-37.593c-2.08 0-2.704.812-2.704 2.032v21.744c0 1.219 1.04 2.235 2.704 2.235h37.593v9.145h-36.137c-7.904 0-13.312-4.268-13.312-11.38V17.31c0-6.503 5.408-11.38 13.312-11.38h36.137z" fill="#AAADB1"/><path fill-rule="evenodd" clip-rule="evenodd" d="M235.571 5.53v10.148h-37.993c-1.001 0-1.562.198-1.872.462-.295.252-.432.626-.432 1.17v21.744c0 .947.806 1.835 2.304 1.835h37.993v9.945h-36.537c-4.02 0-7.447-1.086-9.876-3.116-2.437-2.037-3.836-4.998-3.836-8.664V17.31c0-6.775 5.642-11.78 13.712-11.78h36.537zm-.8.8h-35.737c-7.738 0-12.912 4.749-12.912 10.98v21.744c0 3.446 1.306 6.175 3.549 8.05 2.251 1.881 5.48 2.93 9.363 2.93h35.737v-8.345h-37.193c-1.83 0-3.104-1.144-3.104-2.635V17.31c0-.676.175-1.318.712-1.777.522-.447 1.313-.655 2.392-.655h37.193V6.33z" fill="#AAADB1"/><path d="M143.884 5.93h-10.907v11.949c0-7.097.016-11.95 10.907-11.95z" fill="#AAADB1"/><path fill-rule="evenodd" clip-rule="evenodd" d="M132.977 38.678l8.765 1.086.002-4.613c0-1.343.887-2.687 2.178-2.687h24.301c1.467 0 1.948 1.176 1.948 2.351l-.003 4.949c0 1.872-.779 2.433-1.948 2.433h-24.336c-1.169 0-2.142-.936-2.142-2.433l-8.765-1.086c0 7.113 0 11.756 6.817 11.756h28.426c6.233 0 10.91-4.363 10.91-11.477 0-4.235-.902-7.92-2.759-10.524 1.856-2.603 2.756-6.29 2.756-10.523 0-7.113-4.674-11.98-10.906-11.98h-24.337c-10.891 0-10.907 4.852-10.907 11.949v20.799zm35.244-24.512c1.168 0 1.947.562 1.947 2.434v5.452c0 1.175-.48 2.351-1.947 2.351h-24.337c-1.291 0-2.142-1.343-2.142-2.687V16.6c0-1.498.973-2.434 2.142-2.434h24.337z" fill="#AAADB1"/><path d="M139.794 50.434c-6.817 0-6.817-4.643-6.817-11.756v11.756h6.817z" fill="#AAADB1"/><path fill-rule="evenodd" clip-rule="evenodd" d="M176.858 28.433c1.812 2.678 2.672 6.363 2.672 10.524 0 3.647-1.201 6.622-3.233 8.687-2.031 2.064-4.865 3.19-8.077 3.19h-35.643V5.53h35.644c6.482 0 11.306 5.076 11.306 12.38 0 4.16-.858 7.845-2.669 10.523zM137.713 6.33h-4.336v3.944c.172-.44.38-.858.634-1.249.781-1.2 1.959-2.107 3.702-2.695zm6.171 0c-5.408 0-7.951 1.208-9.202 3.131-.636.978-.967 2.181-1.135 3.604-.168 1.425-.17 3.034-.17 4.814v20.445l7.965.987.002-4.16c0-.754.248-1.512.686-2.09.442-.58 1.095-.997 1.892-.997h24.301c.858 0 1.471.353 1.853.908.367.532.495 1.211.495 1.843l-.003 4.949c0 .98-.202 1.707-.64 2.188-.446.49-1.064.645-1.708.645h-24.336c-1.316 0-2.379-.986-2.525-2.478l-7.982-.988c.001 1.602.009 3.058.106 4.355.105 1.42.314 2.617.716 3.584.398.957.983 1.684 1.852 2.18.878.5 2.08.784 3.743.784h28.426c3.021 0 5.642-1.056 7.507-2.951 1.865-1.896 3.003-4.659 3.003-8.126 0-4.186-.893-7.78-2.685-10.292l-.165-.232.165-.232c1.791-2.512 2.682-6.105 2.682-10.29 0-6.923-4.524-11.581-10.506-11.581h-24.337zm-8.066 43.704a6.107 6.107 0 01-.163-.09c-1.048-.596-1.741-1.474-2.195-2.567a10.766 10.766 0 01-.083-.209v2.866h2.441zm33.6-16.608c-.226-.327-.586-.562-1.195-.562h-24.301c-.494 0-.93.255-1.255.682a2.706 2.706 0 00-.523 1.605l-.002 4.613c0 1.306.823 2.033 1.742 2.033h24.336c.526 0 .881-.125 1.117-.384.244-.268.431-.757.431-1.65l.003-4.948c0-.543-.113-1.04-.353-1.39zm1.15-16.826v5.452c0 .632-.128 1.31-.494 1.843-.382.554-.994.907-1.851.908h-26.479v-.8h.427a3.196 3.196 0 01-.164-.201c-.429-.578-.665-1.335-.665-2.086V16.6c0-1.689 1.124-2.834 2.542-2.834h24.337c.643 0 1.261.155 1.707.646.438.48.64 1.208.64 2.188zm-26.684 7.403c-.493 0-.919-.253-1.234-.678-.319-.43-.508-1.016-.508-1.609V16.6c0-1.307.823-2.034 1.742-2.034h24.337c.525 0 .881.126 1.116.384.244.268.431.758.431 1.65v5.452c0 .543-.112 1.04-.353 1.39-.225.327-.586.561-1.194.561h-24.337z" fill="#AAADB1"/></g></svg>