<svg width="264" height="50" fill="none" xmlns="http://www.w3.org/2000/svg"><g opacity=".6"><path d="M42.903 38.11h-4.02v-1.009h9.132v1.01h-4.039v9.183h-1.073V38.11zm7.239 4.097c0-1.488.52-2.73 1.561-3.727 1.028-1.01 2.342-1.514 3.942-1.514 1.586 0 2.894.491 3.921 1.475 1.054.996 1.58 2.252 1.58 3.766 0 1.502-.526 2.75-1.58 3.747-1.04.997-2.348 1.495-3.921 1.495-1.6 0-2.914-.492-3.942-1.475-1.04-.997-1.56-2.252-1.56-3.767zm1.132 0c0 1.204.416 2.213 1.249 3.029.845.802 1.886 1.204 3.122 1.204 1.287 0 2.334-.402 3.14-1.204.82-.803 1.23-1.812 1.23-3.029 0-1.216-.423-2.226-1.268-3.028-.846-.803-1.88-1.204-3.102-1.204-1.236 0-2.277.401-3.122 1.204-.833.79-1.249 1.799-1.249 3.028zm14.114 5.067V37.121a98.65 98.65 0 013.142-.078c2.367 0 3.55.841 3.55 2.524 0 .621-.194 1.152-.585 1.592-.39.427-.904.699-1.541.815v.02c.82.09 1.444.343 1.873.757.442.401.663.951.663 1.65 0 .984-.364 1.721-1.092 2.213-.729.492-1.698.738-2.907.738-1.301 0-2.335-.026-3.103-.078zm3.24-4.698H66.46v3.689c.976.052 1.672.078 2.088.078 1.912 0 2.868-.66 2.868-1.98 0-.57-.24-1.01-.722-1.32-.48-.312-1.17-.467-2.068-.467zm-.118-4.523c-.507 0-1.19.02-2.049.058v3.514h2.186c.676 0 1.235-.168 1.678-.505.455-.336.682-.77.682-1.3 0-1.178-.832-1.767-2.497-1.767zm8.209 9.241h-1.093l4.82-10.27h.897l4.82 10.27H85.01l-1.502-3.242H78.22l-1.502 3.242zm6.322-4.232l-2.186-4.718-2.185 4.718h4.37zm7.925.427v3.805h-1.073V37.1c.43 0 .885-.006 1.366-.019.481-.013.956-.02 1.424-.02 1.38 0 2.394.292 3.044.874.65.57.976 1.353.976 2.35 0 .97-.345 1.76-1.034 2.368-.69.595-1.665.893-2.927.893-.586 0-1.177-.02-1.776-.058zm1.815-5.417c-.403 0-1.008.013-1.815.039v4.349c.69.051 1.262.077 1.717.077.924 0 1.633-.2 2.127-.602.507-.4.761-.95.761-1.65 0-1.475-.93-2.213-2.79-2.213zm17.998 9.222h-1.073V37.1h1.073v10.193zm-7.219-5.378c-.429 0-.943.02-1.542.058v4.31c.833.026 1.327.04 1.483.04 2.068 0 3.103-.764 3.103-2.292 0-.686-.261-1.21-.781-1.572-.52-.363-1.275-.544-2.263-.544zm-2.615-4.815h1.073v3.864a27.937 27.937 0 011.6-.059c1.353 0 2.374.272 3.064.816.702.53 1.053 1.294 1.053 2.29 0 1.05-.384 1.864-1.151 2.447-.767.582-1.834.874-3.2.874-.52 0-.962-.007-1.327-.02-.364-.013-.734-.02-1.112-.02V37.102zm20.741 12.115h-1.015v-2.932h1.21c.403-.479.787-1.346 1.151-2.601.377-1.256.618-2.77.722-4.543l.117-2.039h6.38v9.183h1.502v2.932h-1.014v-1.922h-9.053v1.922zm3.219-11.105l-.137 1.728c-.143 1.786-.383 3.216-.722 4.29-.351 1.1-.676 1.819-.975 2.155h6.107v-8.173h-4.273zm18.722 9.183h-1.073V38.11h-4.448l-.176 1.922c-.299 3.184-.8 5.248-1.502 6.193-.339.453-.677.757-1.015.913-.338.142-.735.194-1.19.155l.019-1.03c.43.027.807-.155 1.132-.543.247-.284.455-.66.624-1.126.43-1.087.748-2.905.956-5.455l.156-2.039h6.517v10.193zm11.664 0h-1.073v-3.805h-2.497l-2.985 3.805h-1.269l3.142-3.98a3.869 3.869 0 01-1.639-1.126 2.745 2.745 0 01-.625-1.767c0-1.01.365-1.825 1.093-2.446.742-.621 1.776-.932 3.102-.932.143 0 .644.013 1.503.039.429.013.845.02 1.248.02v10.192zm-3.687-4.815h2.614v-4.368a46.713 46.713 0 00-1.795-.058c-.936 0-1.665.213-2.185.64-.507.428-.761.984-.761 1.67 0 .53.215.996.644 1.398.416.401.911.64 1.483.718zm15.063 4.815V37.1h6.38v1.01h-5.307v3.126c.468-.052 1.106-.078 1.912-.078 1.301 0 2.296.259 2.985.776.69.518 1.035 1.25 1.035 2.194 0 1.049-.371 1.851-1.113 2.408-.728.543-1.775.815-3.141.815-.169 0-.683-.013-1.541-.039a38.84 38.84 0 00-1.21-.02zm2.888-5.145c-.703 0-1.308.026-1.815.078v4.077c.286 0 .559.006.82.02.273.012.598.019.975.019 2.042 0 3.063-.725 3.063-2.175 0-1.346-1.014-2.019-3.043-2.019zm8.347 5.145h-1.092l4.819-10.27h.897l4.82 10.27h-1.151l-1.503-3.242h-5.287l-1.503 3.242zm6.322-4.232l-2.185-4.718-2.186 4.718h4.371zm14.178 2.446l.43.815c-.377.35-.885.628-1.522.835a6.534 6.534 0 01-1.951.291c-1.691 0-3.038-.472-4.039-1.417-1.015-.945-1.522-2.22-1.522-3.825 0-1.501.488-2.744 1.463-3.727.989-1.01 2.316-1.514 3.981-1.514 1.339 0 2.465.323 3.375.97l-.507.796c-.794-.505-1.75-.757-2.868-.757-1.288 0-2.329.395-3.122 1.184-.794.79-1.19 1.806-1.19 3.048 0 1.269.409 2.291 1.229 3.068.832.776 1.925 1.165 3.278 1.165 1.144 0 2.133-.311 2.965-.932zm11.681 0l.43.815c-.378.35-.885.628-1.522.835a6.538 6.538 0 01-1.951.291c-1.691 0-3.038-.472-4.039-1.417-1.015-.945-1.522-2.22-1.522-3.825 0-1.501.488-2.744 1.463-3.727.989-1.01 2.316-1.514 3.981-1.514 1.339 0 2.464.323 3.375.97l-.507.796c-.794-.505-1.75-.757-2.868-.757-1.288 0-2.329.395-3.122 1.184-.794.79-1.19 1.806-1.19 3.048 0 1.269.409 2.291 1.229 3.068.832.776 1.925 1.165 3.278 1.165 1.144 0 2.133-.311 2.965-.932zm10.871 1.786h-6.478V37.1h6.322v1.01h-5.248v3.514h4.78v1.01h-4.78v3.65h5.404v1.009zm12.711-8.504l-7.18 8.504h-.957V37.1h1.074v8.504l7.18-8.504h.956v10.193h-1.073V38.79zm-6.302-4.387h.956c0 .466.156.828.468 1.087.312.246.748.369 1.307.369.52 0 .93-.123 1.229-.369.312-.259.469-.621.469-1.087h.956c0 .699-.241 1.249-.722 1.65-.469.388-1.112.582-1.932.582-.871 0-1.548-.194-2.029-.582-.468-.388-.702-.938-.702-1.65zm21.392 12.891h-1.074v-4.698h-6.731v4.698h-1.073V37.1h1.073v4.485h6.731V37.1h1.074v10.193zm4.815 0h-1.093l4.82-10.27h.897l4.82 10.27h-1.152l-1.502-3.242h-5.288l-1.502 3.242zm6.322-4.232l-2.185-4.718-2.186 4.718h4.371z" fill="#CBD3D9"/><path d="M42.62 2.28c-2.19 0-3.231.826-3.231 3.734v20.613c0 .539.287.79.826.79h3.77c.539 0 .79-.252.79-.79V7.882c0-.252.072-.36.287-.36h.324c.215 0 .323.072.466.252l13.395 17.524c1.436 1.903 1.974 2.119 4.165 2.119H66.5c2.19 0 3.232-.826 3.232-3.735V3.07c0-.539-.251-.79-.79-.79h-3.77c-.54 0-.79.251-.79.79v18.745c0 .251-.108.359-.288.359h-.323c-.215 0-.359-.072-.467-.251L49.946 4.398c-1.365-1.83-1.867-2.118-4.165-2.118h-3.16zm39.987 5.422c-6.464 0-8.547 2.083-8.547 7.29v5.171c0 5.207 2.083 7.254 8.547 7.254h10.162c6.464 0 8.547-2.047 8.547-7.254v-5.171c0-5.207-2.083-7.29-8.547-7.29H82.607zm-3.412 8.152c0-3.017.826-3.914 3.915-3.914h9.156c3.124 0 3.95.897 3.95 3.914v3.411c0 3.017-.825 3.95-3.95 3.95H83.11c-3.089 0-3.915-.933-3.915-3.95v-3.411zm24.162-8.152c-.503 0-.718.431-.467.898l9.839 17.2c.682 1.186 1.401 1.617 2.981 1.617h2.944c1.616 0 2.334-.431 3.016-1.616L131.51 8.6c.251-.467.036-.898-.467-.898h-3.986c-.467 0-.682.18-.862.503l-8.475 14.83c-.107.18-.215.216-.395.216h-.143c-.18 0-.287-.036-.395-.215l-8.439-14.831c-.179-.36-.431-.503-.862-.503h-4.129zm37.252 0c-6.464 0-8.547 2.083-8.547 7.29v5.171c0 5.207 2.083 7.254 8.547 7.254h10.162c6.464 0 8.546-2.047 8.546-7.254v-5.171c0-5.207-2.082-7.29-8.546-7.29h-10.162zm-3.412 8.152c0-3.017.826-3.914 3.914-3.914h9.157c3.124 0 3.95.897 3.95 3.914v3.411c0 3.017-.826 3.95-3.95 3.95h-9.157c-3.088 0-3.914-.933-3.914-3.95v-3.411z" fill="#fff"/><path d="M165.113 2.28c-.718 0-1.077.36-1.077 1.078v23.27c0 .538.287.79.826.79h3.878c.539 0 .79-.252.79-.79v-6.895h14.867c5.494 0 7.72-2.55 7.72-7.398V9.678c0-4.848-2.226-7.398-7.72-7.398h-19.284zm4.417 5.387c0-.323.144-.431.467-.431h13.286c2.442 0 3.34 1.041 3.34 3.196v1.365c0 2.154-.898 3.196-3.34 3.196H169.53V7.667zm34.253.036c-6.464 0-8.547 2.083-8.547 7.29v5.17c0 5.208 2.083 7.255 8.547 7.255h10.162c6.464 0 8.546-2.047 8.546-7.254v-5.171c0-5.207-2.082-7.29-8.546-7.29h-10.162zm-3.412 8.151c0-3.016.826-3.914 3.914-3.914h9.157c3.124 0 3.95.898 3.95 3.914v3.412c0 3.016-.826 3.95-3.95 3.95h-9.157c-3.088 0-3.914-.934-3.914-3.95v-3.412zm34.587-8.151c-6.464 0-8.547 2.083-8.547 7.29v5.17c0 5.208 2.083 7.255 8.547 7.255h10.162c6.464 0 8.546-2.047 8.546-7.254v-5.171c0-5.207-2.082-7.29-8.546-7.29h-10.162zm-3.412 8.151c0-3.016.826-3.914 3.914-3.914h9.157c3.124 0 3.95.898 3.95 3.914v3.412c0 3.016-.826 3.95-3.95 3.95h-9.157c-3.088 0-3.914-.934-3.914-3.95v-3.412zM258.736.485c-.539 0-.79.251-.79.79v25.352c0 .54.251.79.79.79h3.519c.538 0 .79-.25.79-.79V1.275c0-.539-.252-.79-.79-.79h-3.519z" fill="#5F5F5F"/><path fill-rule="evenodd" clip-rule="evenodd" d="M.084 10.091v23.226c0 1.88 2.048 3.048 3.668 2.09l19.377-11.44a2.43 2.43 0 001.194-2.093V3.505a2.431 2.431 0 00-3.214-2.3L1.732 7.792a2.43 2.43 0 00-1.648 2.3zm12.29 10.72a.663.663 0 10-.662-1.151l-6.949 3.995a.663.663 0 10.663 1.15l6.948-3.995zm-2.167 5.151a.663.663 0 10-.661-1.15l-4.781 2.74a.663.663 0 10.66 1.15l4.782-2.74z" fill="#5F5F5F"/></g></svg>