<svg id="Слой_1" data-name="Слой 1" xmlns="http://www.w3.org/2000/svg" viewBox="0 0 224 84.99"><path d="M-82.46 389.78a40.81 40.81 0 00-25.81 12 40 40 0 00-11 21.08c-.93 4.88-.51 7.62 1.38 8.76 2.52 1.54 8.11-.21 14.58-4.61 2.93-2 5.18-3 6.38-2.86l1 .09.15 2.77c.15 2.56.24 2.86 1 3.61s1 .84 3 .81a8.71 8.71 0 003.92-.81c1-.45 1.8-.81 1.86-.81a38.71 38.71 0 011.92 6.68 28.15 28.15 0 010 8.1c-1 5.36-5.57 9.51-12.43 11.29a29.64 29.64 0 01-12.25-.15c-2.9-.75-3.83-.63-4.22.57-.3 1 1 2.71 4.46 6.17a40 40 0 0016.32 10.09c5.3 1.78 8.65 2.23 15 2 7.43-.24 11.35-1.2 17.67-4.34 11.5-5.69 19.37-16.17 22.22-29.6a50 50 0 000-16.77 43 43 0 00-25.89-31.19 44.83 44.83 0 00-19.26-2.88zm-15.09 10.78a10.71 10.71 0 00-1.53 4.55c-.12 1.66-.06 1.81.66 2.29 1.08.72 2.61.45 8.26-1.54 6.23-2.2 9.85-3.13 12.16-3.13 3.14 0 4.13.87 3.47 3.07s-.66 2.59-.18 3.07c.69.72 2.34.57 5.51-.45 11.56-3.76 21.26 2.08 24.73 14.93l.39 1.51-.75-.9c-5.6-6.62-10.39-8.88-18.86-8.88-3.65 0-6.71.63-12.67 2.56s-7.19 2.17-8.38 1.66-1.62-1.66-1.41-4.28c.21-2.32.12-2.65-.93-3.22-1.83-1-5.42.06-10.66 3-6.74 3.79-8.26 4.52-9.91 4.7-1.86.18-2.4-.18-2.87-2.08-.84-3.1 2.16-8.76 7.4-13.85a83.3 83.3 0 016.89-5.84 22.2 22.2 0 01-1.32 2.83zm30.55 22.7c1.5 2.35 2.43 10.57 1.71 15.21a23.21 23.21 0 01-7 13.73 23.72 23.72 0 01-16.11 7.32l-3.14.12 2-.57c7.13-2 11.65-6.56 13.77-13.94 1.35-4.67 1-12.77-.66-17.22a10.44 10.44 0 01-.57-2c0-.63 3-1.93 6-2.71 3-.75 3.51-.72 4 .06zm13.3.85c3 1.35 6.83 5.21 8.62 8.7a5.63 5.63 0 01.78 3.31c-.15 3.37-1.71 8.73-3.8 13-6.14 12.53-17.07 19.27-31.29 19.3a40.47 40.47 0 01-17.31-3.73c-2.37-1.08-5.24-2.68-5.06-2.86a12.17 12.17 0 012.46.48c9.4 2.41 19.4 1.81 26.68-1.63A30.42 30.42 0 00-57 443.23a37.27 37.27 0 001.08-18.76c-.15-.81-.12-1 .36-1a6.12 6.12 0 011.88.64zm30.7-13.52a4.68 4.68 0 00-1 1.41c-.15.42-.27 6.23-.27 13.37 0 10.63.06 12.8.45 13.52a3.07 3.07 0 005 .93l1-.87.09-9 .09-9 3.65 3.64a22.12 22.12 0 004.46 3.82c1.38.3 2.37-.33 6-4L0 421v8.64c0 9.3.09 9.91 1.53 10.66A3.23 3.23 0 005.9 439c.27-.57.36-4.4.36-14v-13.3l-.87-.87a2.59 2.59 0 00-2.31-.83H1.65l-5.33 5.33-5.32 5.32-5.33-5.36-5.3-5.33H-21a2.72 2.72 0 00-2 .63zm44.66-.06a15.64 15.64 0 00-10.36 16.74 15 15 0 002.87 7.2 14.65 14.65 0 0012.16 6.2 14.26 14.26 0 0010.78-4.52 15.37 15.37 0 00.42-21.35c-3.23-3.52-6.35-4.8-11.26-4.8a14.87 14.87 0 00-4.61.53zm8.86 6.83a10.09 10.09 0 014.22 4.85 12.42 12.42 0 01-.12 6.47 11 11 0 01-1.86 2.62 8.72 8.72 0 01-14.16-1.75c-.72-1.23-.81-1.69-.81-4.25 0-3.43.51-4.61 2.84-6.71a7.33 7.33 0 016.17-2.2 7.17 7.17 0 013.72.97zm17.1-6.77a4.68 4.68 0 00-1 1.39c-.15.42-.27 6.23-.27 13.37 0 13.58 0 13.76 1.56 14.84a3.55 3.55 0 003.5 0c1.08-.78 1.53-2.23 1.53-5.06v-2.53l5.78-.12c5.63-.09 5.78-.12 7.64-1a12.27 12.27 0 005.78-6.11 10.72 10.72 0 00.66-4.34 8.28 8.28 0 00-.93-4.58 11.64 11.64 0 00-5.54-5.66l-1.82-.79H56.4c-7.82 0-8.12 0-8.78.59zm16.65 6.47c3 2.29 2.93 6.5-.21 8.37-.93.54-1.65.63-6.05.75l-5 .09v-10l5.21.09c4.78.07 5.27.13 6.05.7zm14.55-6.38l-.84.72-.09 13.34c-.09 14.39-.06 14.69 1.47 15.48 1.26.66 22.07.66 23.33 0s1.5-1.29 1.5-2.86a2.51 2.51 0 00-.87-2.14l-.87-.87H84.13v-5.72h6.59c7.52 0 8.35-.18 9.16-1.9a3.33 3.33 0 00-.66-3.85c-.75-.72-.84-.72-7.94-.81l-7.16-.07v-5.69H93c7.73 0 9-.06 9.7-.51a3.2 3.2 0 00.63-4.94l-.87-.87h-22.8zM-23.2 448.83c-1.05.84-1 1.48.12 1.48a3 3 0 001.47-.36c.63-.39 1.65-.12 1.47.42a3.34 3.34 0 01-1.59.72c-1.65.42-2.55 1.29-2.55 2.53s.93 1.9 2.46 1.69a8.26 8.26 0 013.62-.09l1.11.24v-1.08q0-1-.36-1c-.27.06-.45-.54-.54-2-.12-1.72-.27-2.17-.87-2.65a4.05 4.05 0 00-4.34.1zm3.05 3.94a2 2 0 01-.87.75c-.87.45-1.44 0-.87-.66s1.89-.63 1.74-.09zm9.95-1.11v3.46h.9c.87 0 .9-.06.9-1.35 0-1 .12-1.35.42-1.35s.78.6 1.2 1.35c.75 1.23.9 1.35 2 1.35h1.18l-1.08-1.63-1.08-1.63.78-1.17a4.41 4.41 0 00.78-1.81c0-.6-.15-.69-1-.69s-1 .12-1 .54c0 .66-1 1.87-1.65 1.87-.33 0-.45-.36-.45-1.2 0-1.14-.06-1.2-.9-1.2h-.9zm13.47-.03v3.49h2.58a12.38 12.38 0 003.14-.3c.72-.39.78-2.17.12-2.71-.33-.27-.39-.48-.15-.72a2.45 2.45 0 00.3-1.29c0-1.29-.66-1.63-3.62-1.81l-2.37-.18zm4-1.18c0 .15-.45.33-1 .39-.75.09-1 0-1-.39s.24-.48 1-.39c.59.06 1.04.21 1.04.39zm0 2.56c0 .3-.36.48-1 .54-.84.09-1 0-1-.54s.15-.63 1-.54c.73.06 1.04.24 1.04.53zm9.73-3.85l-1 1 1.2.09c.66.06 1.23 0 1.29-.21.15-.48 1.47-.39 1.65.12s.09.6-1.32.87c-1.65.3-2.67 1.23-2.67 2.41a2.23 2.23 0 00.54 1.48 3.12 3.12 0 003.23.09c.3-.24.69-.33.87-.18a5.31 5.31 0 001.44.42l1.11.21v-1.08q0-1-.36-1c-.27.06-.42-.48-.48-1.78-.12-2.47-1-3.4-3.11-3.4a2.6 2.6 0 00-2.39.96zm3.39 3.55c0 .15-.42.51-.9.75-.84.42-.93.42-1.11 0a.65.65 0 01.24-.75c.52-.39 1.72-.36 1.72 0zm10.46-4.09c-1 .57-1.5 1.63-1.53 3.28a2.7 2.7 0 001 2.5 2.62 2.62 0 002.37 1 2.93 2.93 0 003-1.81c.12-.51 0-.6-.87-.6a3.37 3.37 0 00-1.59.36c-1 .63-1.53.12-1.53-1.57s.51-2.2 1.53-1.57a3 3 0 001.47.36c1.14 0 1.2-.66.12-1.66a3.78 3.78 0 00-3.97-.29zm12.55.63c0 1 .06 1.05 1.05 1.05h1v4.82h1.8v-4.82h1.05c1 0 1-.06 1-1.05v-1.05h-6zM57.89 451c.57 1.54 1.11 3 1.23 3.31.24.6-.63 1.14-1.77 1.14-.57 0-.78.15-.78.6s.21.6 1.77.6a3.5 3.5 0 002.07-.39c.27-.3 3.05-7.59 3.05-8a2.67 2.67 0 00-1-.09c-1 0-1.38.42-1.86 2.5-.24 1.05-.45.87-1-.93-.42-1.29-.54-1.42-1.56-1.51l-1.11-.09zm13.86-2.59a14.47 14.47 0 00-.48 1.75c-.78 3.07-1 3.46-1.56 3.46s-.57.21-.57 1.35 0 1.35.9 1.35c.69 0 .9-.12.9-.6s.21-.6 2-.6 2 .09 2.13.6.42.6 1 .6c.84 0 .87-.06.87-1.35s-.09-1.35-.6-1.35-.6-.21-.6-2.71v-2.71h-1.92a5.24 5.24 0 00-2.07.21zm2.19 3.4c0 1.72 0 1.81-.75 1.81-.87 0-.87 0-.42-2.11.48-2.23 1.17-2.05 1.17.3zm9.28-.15v3.46h1c.81 0 1.17-.27 2.31-1.72l1.35-1.72.09 1.72.09 1.75h2.07v-6.95h-1.06c-.63 0-1 .15-1 .36a6.87 6.87 0 01-1.35 1.9L85.35 452v-3.8h-2.1zm14.37-2.35a2 2 0 00.33 2.86l.63.54-.63 1c-.84 1.32-.81 1.39.42 1.39.9 0 1.11-.15 1.65-1.2.33-.66.75-1.2.9-1.2s.3.54.3 1.2c0 1.17 0 1.2 1 1.2h1.05v-6.6h-2.52c-2.35 0-2.53.03-3.13.81zm3.6 1.47c0 .33-.24.42-.81.36-1.17-.12-1.26-.84-.12-.84.63 0 .93.15.93.48z" transform="translate(119.8 -389.65)" fill="#393c97"/></svg>