<svg width="225" height="86" fill="none" xmlns="http://www.w3.org/2000/svg"><path opacity=".6" fill-rule="evenodd" clip-rule="evenodd" d="M38.128.936c-10.075.914-18.97 5.035-25.819 11.961-5.794 5.86-9.521 12.956-11.05 21.036-1.577 8.337.85 10.8 8.174 8.293 2.262-.774 5.948-2.765 8.433-4.555 2.055-1.48 4.605-2.572 5.75-2.462l.979.095.153 2.775c.14 2.528.228 2.848.982 3.603.758.759 1.01.826 2.99.798 1.653-.022 2.578-.217 3.922-.825.967-.438 1.804-.796 1.858-.796.22 0 1.627 4.905 1.912 6.67.392 2.419.394 6.011.007 8.077-1.004 5.345-5.57 9.485-12.423 11.263-3.13.812-9.1.739-12.266-.15-2.678-.753-3.622-.657-4.11.415-.47 1.037.583 2.561 4.366 6.314 4.85 4.81 9.903 7.923 16.315 10.05 4.664 1.545 8.205 2.102 13.385 2.102 7.367 0 12.92-1.272 19.27-4.413 11.513-5.696 19.371-16.135 22.22-29.518.953-4.485.96-12.31.014-16.722-3.775-17.602-17.522-30.92-34.64-33.558C44.794.811 41.222.655 38.128.936zM23.035 11.663c-1.07 2.108-1.425 3.164-1.524 4.532-.12 1.66-.074 1.82.654 2.298 1.094.72 2.617.435 8.255-1.542 6.238-2.188 9.862-3.117 12.16-3.117 3.155 0 4.145.871 3.48 3.062-.631 2.08-.662 2.592-.184 3.072.704.705 2.348.568 5.519-.462 11.55-3.75 21.199 2.04 24.71 14.829l.393 1.434-2.636-2.785c-3.931-4.154-7.093-5.808-12.51-6.547-5.626-.766-10.18-.103-18.428 2.686-4.25 1.437-5.9 1.725-7.079 1.235-1.24-.515-1.61-1.652-1.385-4.266.2-2.327.105-2.655-.937-3.205-1.829-.965-5.413.04-10.669 2.994-6.747 3.791-8.265 4.509-9.893 4.677-1.866.194-2.4-.185-2.903-2.06-.837-3.118 2.183-8.759 7.398-13.818 1.582-1.534 6.798-5.937 6.907-5.83.037.036-.56 1.302-1.328 2.813zM97.548 21.67c-.37.346-.8.963-.955 1.37-.159.42-.28 6.22-.28 13.35 0 10.596.07 12.744.447 13.474 1.034 2.006 3.334 2.432 5.012.929l.978-.876.092-8.937.092-8.936 3.651 3.622c2.164 2.145 3.978 3.697 4.454 3.807 1.382.32 2.386-.34 6.01-3.954l3.518-3.509v8.614c0 9.285.084 9.861 1.541 10.617 1.629.845 3.716.267 4.39-1.215.26-.573.358-4.398.358-14.009v-13.22l-.875-.879c-.723-.724-1.125-.877-2.302-.877h-1.427l-5.338 5.323-5.338 5.322-5.314-5.322-5.314-5.323h-1.363c-.97 0-1.558.181-2.037.629zm44.707-.067c-6.95 2.378-11.461 9.643-10.367 16.697.659 4.255 2.397 7.383 5.556 10 4.441 3.68 10.551 4.425 16.064 1.959 3.196-1.43 6.606-5.223 7.835-8.715.787-2.238 1.034-5.834.564-8.253-1.024-5.285-5.057-9.913-10.129-11.627-2.394-.809-7.248-.84-9.523-.061zm25.963.067c-.371.346-.801.963-.955 1.37-.159.42-.281 6.22-.281 13.35 0 13.55.018 13.726 1.562 14.81.868.61 2.611.599 3.493-.021 1.087-.763 1.533-2.228 1.533-5.033v-2.539l5.764-.098c5.631-.095 5.808-.118 7.645-.969 2.421-1.121 4.841-3.676 5.776-6.1.505-1.311.67-2.37.673-4.32.003-2.262-.112-2.829-.922-4.564-1.158-2.482-3.132-4.486-5.545-5.631l-1.863-.884h-8.103c-7.813 0-8.128.022-8.777.629zm31.196.095l-.841.724-.084 13.305c-.09 14.345-.061 14.65 1.459 15.438 1.27.66 22.062.644 23.336-.017 1.115-.578 1.491-1.297 1.491-2.853 0-.974-.189-1.434-.875-2.121l-.875-.878h-18.313v-5.705h6.598c7.497 0 8.338-.175 9.16-1.902.63-1.326.364-2.861-.664-3.83-.761-.718-.831-.725-7.931-.815l-7.163-.09v-5.675h8.863c7.73 0 8.97-.064 9.706-.5 1.732-1.026 2.043-3.5.619-4.928l-.875-.877h-22.771l-.84.724zm-48.306 6.659c1.771.966 3.629 3.09 4.239 4.849.537 1.55.469 5.072-.125 6.453-.265.616-1.101 1.784-1.858 2.596-4.164 4.464-11.028 3.626-14.167-1.73-.73-1.244-.812-1.675-.812-4.237.001-2.354.115-3.063.649-4.054.937-1.735 3.054-3.677 4.76-4.366 2.173-.878 5.175-.677 7.314.489zm33.745-.3c3.058 2.276 2.955 6.503-.205 8.365-.919.541-1.658.63-6.063.722l-5.015.105V27.308l5.219.094c4.743.086 5.297.152 6.064.723zM53.615 34.329c1.506 2.326 2.43 10.522 1.71 15.15-.856 5.486-3.074 9.839-6.977 13.69-4.7 4.638-10.003 7.034-16.118 7.284l-3.144.128 1.968-.55c7.134-1.998 11.649-6.556 13.776-13.909 1.347-4.657 1.047-12.735-.64-17.183-.319-.843-.58-1.754-.58-2.024 0-.606 2.972-1.921 6.055-2.68 2.915-.719 3.432-.706 3.95.094zm13.292.824c3.001 1.366 6.812 5.21 8.618 8.693 1.004 1.937 1.035 3.596.137 7.393-1.639 6.925-4.791 12.996-9.327 17.96-5.408 5.918-13.792 9.632-23.175 10.264-5.262.354-12.078-.866-17.704-3.17-2.886-1.183-6.842-3.262-6.623-3.482.068-.067 1.184.15 2.482.482 9.395 2.41 19.402 1.796 26.677-1.636 7.255-3.422 12.956-9.782 15.63-17.435 1.885-5.392 2.306-12.924 1.053-18.842-.216-1.025.352-1.082 2.232-.227zm30.494 24.646c-1.073.846-1.024 1.48.113 1.48.496 0 1.152-.157 1.458-.348.633-.397 1.64-.126 1.467.394-.063.19-.776.514-1.584.72-1.652.42-2.543 1.305-2.543 2.523 0 1.288.916 1.919 2.456 1.69 2.05-.304 2.419-.311 3.608-.073l1.123.225v-1.064c0-.692-.131-1.038-.374-.99-.259.052-.421-.556-.524-1.978-.124-1.692-.275-2.155-.857-2.628-.992-.804-3.294-.779-4.343.05zm12.985 2.83v3.454h.899c.865 0 .898-.05.898-1.351 0-.96.121-1.352.421-1.352.231 0 .776.608 1.21 1.352.726 1.241.886 1.35 1.978 1.35h1.188l-1.078-1.627-1.078-1.628.776-1.144c.426-.63.775-1.45.775-1.825 0-.578-.158-.681-1.048-.681-.812 0-1.048.122-1.048.543 0 .669-1.062 1.859-1.659 1.859-.31 0-.437-.348-.437-1.201 0-1.135-.05-1.201-.898-1.201h-.899v3.453zm13.475-.042v3.496h2.565c1.411 0 2.826-.14 3.145-.31.716-.385.792-2.142.117-2.703-.32-.267-.367-.48-.15-.698.172-.172.312-.754.312-1.293 0-1.291-.657-1.622-3.631-1.826l-2.358-.162v3.496zm13.677-2.434l-.95.975 1.19.098c.667.054 1.238-.045 1.298-.226.16-.482 1.465-.389 1.659.119.204.532.062.624-1.347.879-1.627.294-2.65 1.224-2.65 2.409 0 .57.229 1.19.547 1.48.671.608 2.426.647 3.212.07.32-.234.716-.319.881-.189.165.13.806.328 1.423.44l1.123.203v-1.065c0-.692-.131-1.038-.374-.99-.26.052-.401-.49-.463-1.774-.119-2.487-.96-3.405-3.119-3.405-1.275 0-1.611.135-2.43.975zm13.82-.462c-1.031.641-1.445 1.58-1.445 3.283 0 1.155.159 1.526 1.018 2.388.854.856 1.234 1.021 2.356 1.021 1.465 0 2.729-.756 2.999-1.794.137-.523.016-.608-.865-.608-.563 0-1.274.156-1.579.348-1.019.638-1.533.118-1.533-1.55 0-1.666.514-2.186 1.533-1.548.305.191.961.348 1.457.348 1.146 0 1.19-.662.11-1.666-.951-.884-2.822-.986-4.051-.222zm12.629.537c0 1 .05 1.05 1.048 1.05h1.048v4.805h1.797v-4.804h1.048c.998 0 1.048-.05 1.048-1.051v-1.051h-5.989v1.05zm14.493 1.708c.56 1.537 1.11 3.022 1.222 3.298.24.596-.612 1.15-1.771 1.15-.568 0-.768.155-.768.6 0 .532.2.6 1.76.6 1.069 0 1.885-.151 2.079-.386.257-.31 3.048-7.566 3.048-7.923 0-.054-.455-.098-1.012-.098-1.059 0-1.376.424-1.858 2.491-.242 1.038-.442.86-1.047-.936-.437-1.299-.556-1.412-1.573-1.499l-1.1-.093 1.02 2.796zm13.869-2.534c-.067.124-.291.9-.498 1.726-.769 3.067-.941 3.453-1.536 3.453-.482 0-.575.219-.575 1.352 0 1.3.033 1.351.898 1.351.699 0 .898-.133.898-.6 0-.54.2-.601 1.975-.601 1.722 0 1.994.077 2.131.6.111.426.408.601 1.02.601.824 0 .863-.062.863-1.351 0-1.151-.088-1.352-.599-1.352-.554 0-.598-.2-.598-2.702v-2.702h-1.929c-1.061 0-1.983.1-2.05.225zm11.465 3.228v3.453l.973-.017c.818-.014 1.188-.29 2.321-1.727l1.347-1.71.09 1.727.09 1.727h2.066v-6.906h-1.048c-.635 0-1.05.147-1.054.375-.004.206-.605 1.05-1.336 1.877l-1.33 1.501-.012-1.877-.011-1.876h-2.096v3.453zm14.378-2.34c-.744.948-.615 2.054.335 2.86l.613.521-.626 1.016c-.823 1.336-.805 1.396.416 1.396.914 0 1.117-.147 1.653-1.201.336-.66.743-1.201.904-1.201.162 0 .294.54.294 1.2 0 1.173.024 1.202 1.048 1.202h1.048v-6.606h-2.524c-2.386 0-2.558.044-3.161.813zm-90.288 1.139c0 .165-.438.342-.973.394-.738.071-.974-.024-.974-.394s.236-.466.974-.395c.535.052.973.23.973.395zm66.627 1.35c0 1.722-.033 1.803-.749 1.803-.855 0-.862-.038-.424-2.088.476-2.226 1.173-2.056 1.173.286zm27.25-1.03c0 .333-.234.443-.801.375-1.166-.138-1.268-.845-.123-.845.639 0 .924.145.924.47zm-121.35 2.007c-.068.206-.448.539-.845.739-.88.443-1.45.026-.889-.651.464-.561 1.914-.635 1.734-.088zm27.473.225c0 .289-.35.484-.973.544-.823.08-.974-.004-.974-.544s.151-.624.974-.544c.623.06.973.255.973.544zm13.026-.308c0 .16-.407.504-.904.761-.826.429-.92.426-1.092-.022-.105-.276-.004-.608.23-.757.564-.358 1.766-.346 1.766.018z" fill="#fff"/></svg>