<svg width="263" height="89" fill="none" xmlns="http://www.w3.org/2000/svg"><g opacity=".6" fill="#fff"><path d="M41.795 31.987c-2.869-2.578-6.762-3.866-11.68-3.866-4.917 0-8.806 1.288-11.666 3.866a12.77 12.77 0 00-4.303 10.007 12.78 12.78 0 004.302 9.973c2.861 2.577 6.75 3.866 11.668 3.866 4.917 0 8.81-1.29 11.679-3.866a12.769 12.769 0 004.303-9.973 12.781 12.781 0 00-4.303-10.007zM38.79 51.166a10.89 10.89 0 01-8.675 3.598 10.845 10.845 0 01-8.64-3.599 13.452 13.452 0 01-3.155-9.171 13.696 13.696 0 013.154-9.195 10.798 10.798 0 018.664-3.657 10.834 10.834 0 018.675 3.657 13.696 13.696 0 013.108 9.195c.132 3.34-.984 6.61-3.131 9.172zm25.598-21.942l-2.007-.21a66.159 66.159 0 00-6.263-.301h-6.402l.128 2.032v22.418l-.128 2.031h4.233c2.83 0 5.653-.116 8.467-.348l1.972-.163c8.365-1.695 12.544-5.952 12.537-12.77-.008-6.819-4.187-11.048-12.537-12.69zM53.532 53.987V29.793c13.106 0 19.716 3.9 19.716 12.166s-6.61 12.028-19.716 12.028zm30.571-.174V41.994h14.625v-.766H84.104V29.793h10.322c1.971 0 5.798.22 6.773.685v-1.742H80.265l.08 1.01c.047.69.07 1.374.07 2.055V52.13c0 .688-.023 1.373-.07 2.054l-.08 1.01h21.746v-2.031c-.917.569-4.64.65-6.634.65H84.104zm46.171-25.088l-5.022 10.355-5.972 11.82-10.821-22.28-4.187.105 12.827 26.47h.94c.707-1.336 1.403-2.67 2.11-3.994 5.706-12.051 9.406-19.543 11.099-22.476h-.974zm8.583.011c-.707 1.335-1.403 2.659-2.111 3.97-5.694 11.993-9.475 19.563-11.18 22.488h.997l5.103-10.448 5.973-11.76 10.798 22.185h4.291l-12.955-26.435h-.916z"/><path d="M251.587 51.886a.635.635 0 00-.835-.314c-1.739.801-6.645 2.589-8.385 1.277a.773.773 0 01-.336-.58c-.128-1.161 1.67-3.263 2.435-4.145.592-.685.893-1.022.557-1.474a.675.675 0 00-.881-.175c-1.439.674-2.018-.092-2.065-.174a.627.627 0 00-.522-.29.611.611 0 00-.533.255c-3.596 4.946-5.938 5.991-7.214 5.945a2.402 2.402 0 01-1.925-1.161 1.246 1.246 0 00-1.52-.523c-.359.14-.788.349-1.287.592.162-.162.302-.336.441-.499 1.16-1.393 1.473-2.798.974-3.68a1.868 1.868 0 00-2.064-.755c-3.712.546-8.188 3.402-8.722 5.573a1.789 1.789 0 000 .743c-3.874.754-9.093 1.103-10.032-.279a1.276 1.276 0 01-.093-.174c3.561-1.486 5.567-3.03 5.579-4.354a1.255 1.255 0 00-.94-1.161c-1.287-.394-3.479.523-5.022 2.752a5.483 5.483 0 00-.881 1.95 55.535 55.535 0 01-3.607 1.231c-2.946.905-5.625.662-7.504-.697 9.673-10.448 8.641-15.707 7.748-17.507a4.067 4.067 0 00-4.245-2.229c-2.32.232-5.544 2.264-6.854 7.175-1.462 5.526-.905 9.996 1.554 12.643-10.682 11.26-17.757 14.454-20.876 13.63a2.144 2.144 0 01-1.659-1.696c-.441-1.915 3.166-8.58 5.799-13.444 3.375-6.222 4.164-7.894 3.572-8.684a.745.745 0 00-.557-.29c-1.159 0-4.442 3.355-16.979 17.322l-4.755 5.363 2.807-3.703c9.777-12.91 17.872-23.811 17.872-26.458a1.48 1.48 0 00-.673-1.277c-2.25-1.51-10.519 1.718-20.296 5.805l-.533.22v-7.442l.069-2.53h-3.56l.127 2.53v8.73l-1.055.395c-1.879.627-2.818.43-3.282.14a1.162 1.162 0 01-.557-.743.629.629 0 00-.707-.546.629.629 0 00-.545.708 2.314 2.314 0 001.159 1.637c.998.639 2.471.639 4.373 0l.661-.244v11.378l-.081 2.53h3.479l-.07-2.53v-12.77l1.009-.43c5.602-2.322 17.246-7.152 19.125-5.898a.229.229 0 01.104.232c0 2.438-11.029 16.997-17.617 25.692-7.283 9.601-7.457 9.961-7.306 10.518a.711.711 0 00.383.442.739.739 0 00.266.058c.603 0 1.856-1.29 10.577-11.006 5.138-5.724 12.561-13.932 15.24-16.254-.603 1.486-2.076 4.215-3.329 6.513-3.792 6.966-6.448 12.12-5.926 14.338a3.412 3.412 0 002.563 2.624c2.146.58 8.559.313 22.094-14.001a9.352 9.352 0 008.223 1.16h.081l.383-.115.255-.07a67.97 67.97 0 003.085-1.045c.055.148.129.289.22.418 1.775 2.624 9.765 1.161 11.957.685 2.749 1.718 6.692-.197 9.07-1.358.37-.204.758-.371 1.16-.5a3.618 3.618 0 002.946 1.672h.058c2.215 0 4.824-1.985 7.77-5.886.385.25.829.395 1.287.418-1.032 1.23-2.319 2.96-2.134 4.4a2.012 2.012 0 00.847 1.451 4.278 4.278 0 002.621.709 20.35 20.35 0 007.04-1.835.63.63 0 00.48-.65.62.62 0 00-.086-.279zm-41.357-1.881a4.816 4.816 0 013.096-2.206h.545c0 .29-.742 1.382-4.001 2.844.116-.267.232-.453.36-.638zm-13.976.917c-2.099-2.322-2.516-6.35-1.16-11.389 1.056-4.017 3.654-6.025 5.799-6.246h.383a2.78 2.78 0 012.598 1.567c1.171 2.496-.151 8.034-7.62 16.068zm24.704 1.52c-.07-.069-.093-.15-.058-.313.336-1.37 4.175-4.11 7.677-4.643.406 0 .696 0 .777.139.082.14 0 1.16-.869 2.252a7.158 7.158 0 01-7.527 2.566z"/></g></svg>