<svg width="31" height="39" fill="none" xmlns="http://www.w3.org/2000/svg"><path fill-rule="evenodd" clip-rule="evenodd" d="M29.655 22.372c-.74-.742-1.47-1.35-1.623-1.35-.154 0-2.376 2.13-4.938 4.734s-4.793 4.782-4.959 4.84c-.187.066-.33-5.652-.38-15.245L17.672 0h-4.391L13.2 15.35c-.05 9.46-.195 15.31-.378 15.246-.163-.058-2.4-2.236-4.973-4.84-2.572-2.604-4.807-4.734-4.967-4.734-.555 0-2.987 2.818-2.88 3.337.06.288 3.55 3.775 7.755 7.75 6.78 6.41 7.708 7.181 8.195 6.816C17.781 37.554 31 24.64 31 24.225c0-.276-.605-1.11-1.345-1.853z" fill="#c2c6cb"/></svg>