<svg id="Слой_2" data-name="Слой 2" xmlns="http://www.w3.org/2000/svg" viewBox="0 0 1256.6 879.28"><path d="M960 979.87c-187.23 5.81-434.06-16.64-434.06-16.64s-131.23-3.09-164.13-111.1c-67.75-321.68 0-619.74 0-619.74s23.22-97.55 142.45-113C647.48 101.55 960 101.55 960 101.55s312.52 0 455.74 17.8c119.23 15.49 142.45 113 142.45 113s67.75 298.06 0 619.74c-32.9 108-164.13 111.1-164.13 111.1S1147.23 985.68 960 979.87z" transform="translate(-331.7 -101.55)"/><path fill="#fff" d="M504.95 248.52v380.9l326.71-190.45-326.71-190.45z"/></svg>