<svg width="32" height="25" fill="none" xmlns="http://www.w3.org/2000/svg"><path fill-rule="evenodd" clip-rule="evenodd" d="M13.643 23.916c.61-.597 1.108-1.186 1.108-1.31 0-.124-1.747-1.916-3.884-3.982-2.136-2.066-3.923-3.865-3.971-3.999-.054-.15 4.637-.266 12.508-.307L32 14.252v-3.54l-12.596-.066c-7.76-.04-12.562-.158-12.508-.305.048-.131 1.835-1.936 3.971-4.01 2.136-2.075 3.884-3.877 3.884-4.006 0-.448-2.312-2.41-2.738-2.322-.236.048-3.098 2.862-6.36 6.254-5.257 5.467-5.89 6.216-5.591 6.608C1.186 14.34 11.783 25 12.122 25c.227 0 .912-.488 1.521-1.084z" fill="#C2C6CB"/><path fill-rule="evenodd" clip-rule="evenodd" d="M13.643 23.916c.61-.597 1.108-1.186 1.108-1.31 0-.124-1.747-1.916-3.884-3.982-2.136-2.066-3.923-3.865-3.971-3.999-.054-.15 4.637-.266 12.508-.307L32 14.252v-3.54l-12.596-.066c-7.76-.04-12.562-.158-12.508-.305.048-.131 1.835-1.936 3.971-4.01 2.136-2.075 3.884-3.877 3.884-4.006 0-.448-2.312-2.41-2.738-2.322-.236.048-3.098 2.862-6.36 6.254-5.257 5.467-5.89 6.216-5.591 6.608C1.186 14.34 11.783 25 12.122 25c.227 0 .912-.488 1.521-1.084z" fill="#4D4E4F"/></svg>