<svg width="63" height="22" viewBox="0 0 63 22" fill="none" xmlns="http://www.w3.org/2000/svg">
<path fill-rule="evenodd" clip-rule="evenodd" d="M50.9439 0.992522L49.8754 2.06642L53.3586 5.46967C55.2744 7.3412 56.8421 8.97278 56.8421 9.09502C56.8421 9.21727 44.0526 9.31713 28.4211 9.31713H0V10.9814V12.6456H28.4506H56.9008L53.3841 16.3064L49.8676 19.9668L51.0206 20.9966C51.6549 21.5627 52.2808 22.0142 52.4112 21.9997C52.542 21.9848 54.1165 20.4092 55.9103 18.4981C57.7041 16.5869 60.033 14.1053 61.0857 12.9836L63 10.9442L57.8454 5.51627C55.0101 2.5306 52.5379 0.0499491 52.3513 0.00334991C52.1649 -0.0432492 51.5312 0.401863 50.9439 0.992522Z" fill="#C2C6CB"/>
<path fill-rule="evenodd" clip-rule="evenodd" d="M50.9439 0.992522L49.8754 2.06642L53.3586 5.46967C55.2744 7.3412 56.8421 8.97278 56.8421 9.09502C56.8421 9.21727 44.0526 9.31713 28.4211 9.31713H0V10.9814V12.6456H28.4506H56.9008L53.3841 16.3064L49.8676 19.9668L51.0206 20.9966C51.6549 21.5627 52.2808 22.0142 52.4112 21.9997C52.542 21.9848 54.1165 20.4092 55.9103 18.4981C57.7041 16.5869 60.033 14.1053 61.0857 12.9836L63 10.9442L57.8454 5.51627C55.0101 2.5306 52.5379 0.0499491 52.3513 0.00334991C52.1649 -0.0432492 51.5312 0.401863 50.9439 0.992522Z" fill="#4D4E4F"/>
</svg>
