<svg width="63" height="22" fill="none" xmlns="http://www.w3.org/2000/svg"><path fill-rule="evenodd" clip-rule="evenodd" d="M50.944.993l-1.069 1.073L53.36 5.47c1.915 1.871 3.483 3.503 3.483 3.625 0 .122-12.79.222-28.42.222H0v3.329h56.9l-3.516 3.66-3.516 3.66 1.153 1.03c.634.567 1.26 1.018 1.39 1.004.131-.015 1.706-1.59 3.5-3.502l5.175-5.514L63 10.944l-5.155-5.428C55.01 2.531 52.538.05 52.351.003c-.186-.046-.82.399-1.407.99z" fill="#C2C6CB"/><path fill-rule="evenodd" clip-rule="evenodd" d="M50.944.993l-1.069 1.073L53.36 5.47c1.915 1.871 3.483 3.503 3.483 3.625 0 .122-12.79.222-28.42.222H0v3.329h56.9l-3.516 3.66-3.516 3.66 1.153 1.03c.634.567 1.26 1.018 1.39 1.004.131-.015 1.706-1.59 3.5-3.502l5.175-5.514L63 10.944l-5.155-5.428C55.01 2.531 52.538.05 52.351.003c-.186-.046-.82.399-1.407.99z" fill="#4D4E4F"/></svg>