<svg width="159" height="26" fill="none" xmlns="http://www.w3.org/2000/svg"><path d="M26.09.965c.345.184.374.429.372 3.137-.002 1.616-.086 3.069-.187 3.228-.158.25-1.441.298-9.227.347-6.085.039-9.126.125-9.294.265-.32.265-.326 1.533-.01 1.95.217.286 1.023.326 7.595.376 6.962.053 7.405.078 8.345.463 1.484.607 2.272 1.302 2.995 2.637l.651 1.203.068 3.186c.061 2.87.027 3.294-.34 4.272-.508 1.348-1.5 2.388-2.902 3.044l-1.078.505-11.028.055c-6.066.03-11.224.006-11.464-.052-.429-.106-.435-.153-.435-3.198v-3.09l.496-.189c.297-.113 4.215-.188 9.777-.188h9.28l.16-.427c.164-.445.113-1.78-.082-2.095-.067-.108-2.827-.182-6.809-.182-3.979 0-7.19-.085-7.912-.21-2.26-.394-4.133-1.981-4.719-4.003-.345-1.192-.459-4.637-.202-6.151.49-2.905 2.273-4.48 5.525-4.886C7.525.73 25.655.732 26.09.965z" fill="#C2C6CB"/><path d="M26.09.965c.345.184.374.429.372 3.137-.002 1.616-.086 3.069-.187 3.228-.158.25-1.441.298-9.227.347-6.085.039-9.126.125-9.294.265-.32.265-.326 1.533-.01 1.95.217.286 1.023.326 7.595.376 6.962.053 7.405.078 8.345.463 1.484.607 2.272 1.302 2.995 2.637l.651 1.203.068 3.186c.061 2.87.027 3.294-.34 4.272-.508 1.348-1.5 2.388-2.902 3.044l-1.078.505-11.028.055c-6.066.03-11.224.006-11.464-.052-.429-.106-.435-.153-.435-3.198v-3.09l.496-.189c.297-.113 4.215-.188 9.777-.188h9.28l.16-.427c.164-.445.113-1.78-.082-2.095-.067-.108-2.827-.182-6.809-.182-3.979 0-7.19-.085-7.912-.21-2.26-.394-4.133-1.981-4.719-4.003-.345-1.192-.459-4.637-.202-6.151.49-2.905 2.273-4.48 5.525-4.886C7.525.73 25.655.732 26.09.965z" fill="#282828"/><path fill-rule="evenodd" clip-rule="evenodd" d="M49.637 1.32c1.281.653 2.28 2.014 4.044 5.515.913 1.812 1.723 3.382 1.801 3.488.078.106 1.342 2.54 2.81 5.407s3.135 6.103 3.705 7.191c1.557 2.973 1.771 2.771-2.861 2.709l-3.898-.052-1.077-2.076-1.078-2.076H38.91l-.987 2.124-.988 2.124h-3.977c-3.901 0-3.978-.008-3.978-.402 0-.356 7.73-15.99 10.017-20.26C41.038 1.203 41.905.718 46.42.855c1.977.06 2.593.149 3.217.467zM41.75 15.757c0-.039.87-1.87 1.934-4.07 1.532-3.168 2.004-3.985 2.273-3.936.223.041 1.018 1.39 2.314 3.925 1.086 2.124 1.978 3.927 1.983 4.006.005.08-1.907.145-4.248.145-2.34 0-4.256-.031-4.256-.07z" fill="#C2C6CB"/><path fill-rule="evenodd" clip-rule="evenodd" d="M49.637 1.32c1.281.653 2.28 2.014 4.044 5.515.913 1.812 1.723 3.382 1.801 3.488.078.106 1.342 2.54 2.81 5.407s3.135 6.103 3.705 7.191c1.557 2.973 1.771 2.771-2.861 2.709l-3.898-.052-1.077-2.076-1.078-2.076H38.91l-.987 2.124-.988 2.124h-3.977c-3.901 0-3.978-.008-3.978-.402 0-.356 7.73-15.99 10.017-20.26C41.038 1.203 41.905.718 46.42.855c1.977.06 2.593.149 3.217.467zM41.75 15.757c0-.039.87-1.87 1.934-4.07 1.532-3.168 2.004-3.985 2.273-3.936.223.041 1.018 1.39 2.314 3.925 1.086 2.124 1.978 3.927 1.983 4.006.005.08-1.907.145-4.248.145-2.34 0-4.256-.031-4.256-.07z" fill="#282828"/><path d="M64.783.962c.22.118 2.127 3.747 4.706 8.955 2.384 4.816 4.424 8.811 4.533 8.878.109.067.321.075.472.017.152-.058 1.22-2.079 2.376-4.49C82.256 3.082 83.321 1.01 83.777.888c.575-.154 6.8-.159 7.198-.006.169.064.306.286.306.492 0 .342-4.969 10.38-9.256 18.7-2.78 5.396-3.051 5.6-7.396 5.599-3.183-.001-3.977-.162-4.938-1.005-1.025-.898-1.521-1.724-4.328-7.2a3434.729 3434.729 0 00-7.195-13.973c-1.012-1.946-1.13-2.46-.601-2.597.702-.183 6.855-.128 7.216.064z" fill="#C2C6CB"/><path d="M64.783.962c.22.118 2.127 3.747 4.706 8.955 2.384 4.816 4.424 8.811 4.533 8.878.109.067.321.075.472.017.152-.058 1.22-2.079 2.376-4.49C82.256 3.082 83.321 1.01 83.777.888c.575-.154 6.8-.159 7.198-.006.169.064.306.286.306.492 0 .342-4.969 10.38-9.256 18.7-2.78 5.396-3.051 5.6-7.396 5.599-3.183-.001-3.977-.162-4.938-1.005-1.025-.898-1.521-1.724-4.328-7.2a3434.729 3434.729 0 00-7.195-13.973c-1.012-1.946-1.13-2.46-.601-2.597.702-.183 6.855-.128 7.216.064z" fill="#282828"/><path fill-rule="evenodd" clip-rule="evenodd" d="M117.832 1.216c1.862.428 2.912.943 3.869 1.899 1.94 1.937 2.352 3.985 2.227 11.068-.097 5.458-.215 6.214-1.257 8.068-.706 1.257-2.028 2.283-3.701 2.871-1.256.443-1.435.452-10.092.512-7.306.05-9.054.011-10.221-.232-2.754-.573-4.398-1.71-5.336-3.688-.876-1.848-.976-2.717-.971-8.495.004-4.554.058-5.603.346-6.657.956-3.504 3.175-5.15 7.558-5.603.865-.09 4.881-.136 8.925-.103 5.778.048 7.631.125 8.653.36zm-17.835 7.81c.11-.396.39-.852.622-1.015.361-.252 1.464-.295 7.528-.295h7.105l.543.466.542.466v9.336l-.542.466-.543.466-7.003-.003c-7.716-.003-7.808-.016-8.202-1.16-.29-.847-.33-7.72-.05-8.728z" fill="#C2C6CB"/><path fill-rule="evenodd" clip-rule="evenodd" d="M117.832 1.216c1.862.428 2.912.943 3.869 1.899 1.94 1.937 2.352 3.985 2.227 11.068-.097 5.458-.215 6.214-1.257 8.068-.706 1.257-2.028 2.283-3.701 2.871-1.256.443-1.435.452-10.092.512-7.306.05-9.054.011-10.221-.232-2.754-.573-4.398-1.71-5.336-3.688-.876-1.848-.976-2.717-.971-8.495.004-4.554.058-5.603.346-6.657.956-3.504 3.175-5.15 7.558-5.603.865-.09 4.881-.136 8.925-.103 5.778.048 7.631.125 8.653.36zm-17.835 7.81c.11-.396.39-.852.622-1.015.361-.252 1.464-.295 7.528-.295h7.105l.543.466.542.466v9.336l-.542.466-.543.466-7.003-.003c-7.716-.003-7.808-.016-8.202-1.16-.29-.847-.33-7.72-.05-8.728z" fill="#282828"/><path d="M132.641 1.019c.134.086 2.198 4.098 4.588 8.915 2.39 4.817 4.427 8.808 4.527 8.87.416.257.785-.2 1.674-2.07.515-1.083 1.932-4.012 3.149-6.508 1.217-2.495 2.717-5.595 3.334-6.889l1.122-2.35.839-.126c.461-.069 2.213-.097 3.893-.063 2.424.05 3.091.122 3.23.346.219.355-10.348 21.426-11.432 22.795-1.194 1.507-1.899 1.735-5.368 1.735-3.243 0-3.746-.117-4.925-1.15-.936-.82-1.495-1.784-4.876-8.408-1.572-3.08-2.922-5.687-2.999-5.793-.414-.568-4.45-8.75-4.45-9.02 0-.175.196-.36.436-.41.724-.152 6.996-.043 7.258.126z" fill="#C2C6CB"/><path d="M132.641 1.019c.134.086 2.198 4.098 4.588 8.915 2.39 4.817 4.427 8.808 4.527 8.87.416.257.785-.2 1.674-2.07.515-1.083 1.932-4.012 3.149-6.508 1.217-2.495 2.717-5.595 3.334-6.889l1.122-2.35.839-.126c.461-.069 2.213-.097 3.893-.063 2.424.05 3.091.122 3.23.346.219.355-10.348 21.426-11.432 22.795-1.194 1.507-1.899 1.735-5.368 1.735-3.243 0-3.746-.117-4.925-1.15-.936-.82-1.495-1.784-4.876-8.408-1.572-3.08-2.922-5.687-2.999-5.793-.414-.568-4.45-8.75-4.45-9.02 0-.175.196-.36.436-.41.724-.152 6.996-.043 7.258.126z" fill="#282828"/></svg>