<svg viewBox="0 0 1256.6 879.28" xmlns="http://www.w3.org/2000/svg" xmlns:xlink="http://www.w3.org/1999/xlink"><style>:root&gt;svg{display:none}:root&gt;svg:target{display:block}</style><svg fill="none" viewBox="0 0 31 39" id="arrow-bottom-dark" xmlns="http://www.w3.org/2000/svg"><path fill-rule="evenodd" clip-rule="evenodd" d="M29.655 22.372c-.74-.742-1.47-1.35-1.623-1.35-.154 0-2.376 2.13-4.938 4.734s-4.793 4.782-4.959 4.84c-.187.066-.33-5.652-.38-15.245L17.672 0h-4.391L13.2 15.35c-.05 9.46-.195 15.31-.378 15.246-.163-.058-2.4-2.236-4.973-4.84-2.572-2.604-4.807-4.734-4.967-4.734-.555 0-2.987 2.818-2.88 3.337.06.288 3.55 3.775 7.755 7.75 6.78 6.41 7.708 7.181 8.195 6.816C17.781 37.554 31 24.64 31 24.225c0-.276-.605-1.11-1.345-1.853z" fill="#4D4E4F"/></svg><svg fill="none" viewBox="0 0 31 39" id="arrow-bottom-light" xmlns="http://www.w3.org/2000/svg"><path fill-rule="evenodd" clip-rule="evenodd" d="M29.655 22.372c-.74-.742-1.47-1.35-1.623-1.35-.154 0-2.376 2.13-4.938 4.734s-4.793 4.782-4.959 4.84c-.187.066-.33-5.652-.38-15.245L17.672 0h-4.391L13.2 15.35c-.05 9.46-.195 15.31-.378 15.246-.163-.058-2.4-2.236-4.973-4.84-2.572-2.604-4.807-4.734-4.967-4.734-.555 0-2.987 2.818-2.88 3.337.06.288 3.55 3.775 7.755 7.75 6.78 6.41 7.708 7.181 8.195 6.816C17.781 37.554 31 24.64 31 24.225c0-.276-.605-1.11-1.345-1.853z" fill="#c2c6cb"/></svg><svg id="close" data-name="Слой 1" viewBox="0 0 50.96 51.31" xmlns="http://www.w3.org/2000/svg"><defs><style>.ccls-1{fill:#fff}</style></defs><rect class="ccls-1" x="726.22" y="286.45" width="70.52" height="3.74" rx="1.87" transform="rotate(-45 76.621 1045.502)"/><rect class="ccls-1" x="759.61" y="252.71" width="3.74" height="70.52" rx="1.87" transform="rotate(-45 76.626 1045.15)"/></svg><svg data-name="Слой 2" viewBox="0 0 1256.6 879.28" id="youtube" xmlns="http://www.w3.org/2000/svg"><path d="M628.3 878.32c-187.23 5.81-434.06-16.64-434.06-16.64s-131.23-3.09-164.13-111.1c-67.75-321.68 0-619.74 0-619.74s23.22-97.55 142.45-113C315.78 0 628.3 0 628.3 0s312.52 0 455.74 17.8c119.23 15.49 142.45 113 142.45 113s67.75 298.06 0 619.74c-32.9 108-164.13 111.1-164.13 111.1s-246.83 22.49-434.06 16.68z"/><path fill="#fff" d="M504.95 248.52v380.9l326.71-190.45-326.71-190.45z"/></svg></svg>