<svg width="159" height="25" viewBox="0 0 159 25" fill="none" xmlns="http://www.w3.org/2000/svg">
<path d="M26.0902 0.194513C26.4352 0.378921 26.4642 0.623768 26.4615 3.33234C26.4598 4.94818 26.376 6.40065 26.2752 6.55996C26.1173 6.80924 24.8337 6.85752 17.0482 6.90695C10.9625 6.94557 7.92231 7.03227 7.75379 7.17208C7.43396 7.43681 7.42815 8.70449 7.74489 9.12274C7.96101 9.40814 8.76687 9.44811 15.3391 9.49812C22.3014 9.55103 22.7441 9.57555 23.6844 9.96078C25.1677 10.5683 25.9559 11.2624 26.679 12.5983L27.33 13.8011L27.398 16.9872C27.4593 19.8576 27.4254 20.2809 27.0574 21.2587C26.5499 22.6065 25.5585 23.6467 24.1556 24.3035L23.0784 24.8076L12.0499 24.8627C5.98419 24.8928 0.825535 24.8694 0.586003 24.8107C0.15705 24.7053 0.150665 24.6578 0.150665 21.613V18.5223L0.64695 18.3341C0.944334 18.2213 4.86218 18.1458 10.4241 18.1458H19.7049L19.8631 17.7192C20.0284 17.2736 19.9767 15.9385 19.7823 15.6243C19.7153 15.5162 16.9547 15.4424 12.9734 15.4424C8.99421 15.4424 5.78374 15.3567 5.06127 15.2312C2.80023 14.8382 0.928469 13.2506 0.342215 11.2285C-0.00334655 10.0369 -0.116729 6.5924 0.13983 5.07755C0.631471 2.17298 2.41268 0.598083 5.66494 0.192386C7.52412 -0.0397169 25.6555 -0.0375896 26.0902 0.194513Z" fill="#C2C6CB"/>
<path d="M26.0902 0.194513C26.4352 0.378921 26.4642 0.623768 26.4615 3.33234C26.4598 4.94818 26.376 6.40065 26.2752 6.55996C26.1173 6.80924 24.8337 6.85752 17.0482 6.90695C10.9625 6.94557 7.92231 7.03227 7.75379 7.17208C7.43396 7.43681 7.42815 8.70449 7.74489 9.12274C7.96101 9.40814 8.76687 9.44811 15.3391 9.49812C22.3014 9.55103 22.7441 9.57555 23.6844 9.96078C25.1677 10.5683 25.9559 11.2624 26.679 12.5983L27.33 13.8011L27.398 16.9872C27.4593 19.8576 27.4254 20.2809 27.0574 21.2587C26.5499 22.6065 25.5585 23.6467 24.1556 24.3035L23.0784 24.8076L12.0499 24.8627C5.98419 24.8928 0.825535 24.8694 0.586003 24.8107C0.15705 24.7053 0.150665 24.6578 0.150665 21.613V18.5223L0.64695 18.3341C0.944334 18.2213 4.86218 18.1458 10.4241 18.1458H19.7049L19.8631 17.7192C20.0284 17.2736 19.9767 15.9385 19.7823 15.6243C19.7153 15.5162 16.9547 15.4424 12.9734 15.4424C8.99421 15.4424 5.78374 15.3567 5.06127 15.2312C2.80023 14.8382 0.928469 13.2506 0.342215 11.2285C-0.00334655 10.0369 -0.116729 6.5924 0.13983 5.07755C0.631471 2.17298 2.41268 0.598083 5.66494 0.192386C7.52412 -0.0397169 25.6555 -0.0375896 26.0902 0.194513Z" fill="#4D4E4F"/>
<path fill-rule="evenodd" clip-rule="evenodd" d="M49.6369 0.550777C50.9184 1.20325 51.9162 2.56381 53.6805 6.06524C54.5938 7.87726 55.4043 9.44676 55.4821 9.55296C55.5597 9.65916 56.8241 12.0922 58.2918 14.9597C59.7598 17.8272 61.4268 21.0633 61.9967 22.151C63.5542 25.1243 63.768 24.9219 59.1356 24.86L55.2383 24.8076L54.1608 22.7318L53.0831 20.656H45.9967H38.9104L37.9229 22.7801L36.9353 24.9042H32.9575C29.0567 24.9042 28.9797 24.8965 28.9797 24.5021C28.9797 24.1463 36.7101 8.51236 38.9971 4.24279C41.0383 0.432408 41.9046 -0.0530383 46.4197 0.0836744C48.3969 0.143534 49.0126 0.23294 49.6369 0.550777ZM41.7496 14.9857C41.7496 14.9469 42.6199 13.1156 43.6835 10.9162C45.2155 7.74828 45.6877 6.93051 45.9569 6.98013C46.1798 7.02126 46.9748 8.36947 48.2708 10.9046C49.3566 13.0287 50.2489 14.8317 50.254 14.9114C50.2588 14.9912 48.3474 15.0562 46.0062 15.0562C43.6651 15.0562 41.7496 15.0246 41.7496 14.9857Z" fill="#C2C6CB"/>
<path fill-rule="evenodd" clip-rule="evenodd" d="M49.6369 0.550777C50.9184 1.20325 51.9162 2.56381 53.6805 6.06524C54.5938 7.87726 55.4043 9.44676 55.4821 9.55296C55.5597 9.65916 56.8241 12.0922 58.2918 14.9597C59.7598 17.8272 61.4268 21.0633 61.9967 22.151C63.5542 25.1243 63.768 24.9219 59.1356 24.86L55.2383 24.8076L54.1608 22.7318L53.0831 20.656H45.9967H38.9104L37.9229 22.7801L36.9353 24.9042H32.9575C29.0567 24.9042 28.9797 24.8965 28.9797 24.5021C28.9797 24.1463 36.7101 8.51236 38.9971 4.24279C41.0383 0.432408 41.9046 -0.0530383 46.4197 0.0836744C48.3969 0.143534 49.0126 0.23294 49.6369 0.550777ZM41.7496 14.9857C41.7496 14.9469 42.6199 13.1156 43.6835 10.9162C45.2155 7.74828 45.6877 6.93051 45.9569 6.98013C46.1798 7.02126 46.9748 8.36947 48.2708 10.9046C49.3566 13.0287 50.2489 14.8317 50.254 14.9114C50.2588 14.9912 48.3474 15.0562 46.0062 15.0562C43.6651 15.0562 41.7496 15.0246 41.7496 14.9857Z" fill="#4D4E4F"/>
<path d="M64.7826 0.192386C65.0028 0.309982 66.9102 3.93943 69.4887 9.14649C71.8734 13.9627 73.9135 17.9581 74.0222 18.0251C74.131 18.0921 74.3434 18.0996 74.4945 18.0419C74.6456 17.984 75.7146 15.9634 76.8703 13.5518C82.2557 2.31221 83.3212 0.240085 83.7775 0.118047C84.3521 -0.0356578 90.5763 -0.040874 90.9752 0.111866C91.1436 0.17636 91.2813 0.39765 91.2813 0.603878C91.2813 0.945853 86.3125 10.9842 82.0247 19.3044C79.2442 24.7001 78.9739 24.9048 74.629 24.903C71.446 24.9019 70.6523 24.7404 69.6913 23.8981C68.6664 23 68.1696 22.1736 65.3629 16.6976C62.5384 11.1869 59.6257 5.53075 58.1676 2.72486C57.1563 0.778632 57.0375 0.265764 57.5669 0.1277C58.2688 -0.0553561 64.4222 -0.000325085 64.7826 0.192386Z" fill="#C2C6CB"/>
<path d="M64.7826 0.192386C65.0028 0.309982 66.9102 3.93943 69.4887 9.14649C71.8734 13.9627 73.9135 17.9581 74.0222 18.0251C74.131 18.0921 74.3434 18.0996 74.4945 18.0419C74.6456 17.984 75.7146 15.9634 76.8703 13.5518C82.2557 2.31221 83.3212 0.240085 83.7775 0.118047C84.3521 -0.0356578 90.5763 -0.040874 90.9752 0.111866C91.1436 0.17636 91.2813 0.39765 91.2813 0.603878C91.2813 0.945853 86.3125 10.9842 82.0247 19.3044C79.2442 24.7001 78.9739 24.9048 74.629 24.903C71.446 24.9019 70.6523 24.7404 69.6913 23.8981C68.6664 23 68.1696 22.1736 65.3629 16.6976C62.5384 11.1869 59.6257 5.53075 58.1676 2.72486C57.1563 0.778632 57.0375 0.265764 57.5669 0.1277C58.2688 -0.0553561 64.4222 -0.000325085 64.7826 0.192386Z" fill="#4D4E4F"/>
<path fill-rule="evenodd" clip-rule="evenodd" d="M117.832 0.445926C119.694 0.873636 120.744 1.38901 121.701 2.34465C123.641 4.28199 124.053 6.32998 123.928 13.4126C123.831 18.8712 123.713 19.6274 122.671 21.4806C121.965 22.738 120.643 23.7636 118.97 24.3525C117.714 24.7947 117.535 24.8038 108.878 24.864C101.572 24.9148 99.8242 24.8752 98.6569 24.6323C95.9027 24.0592 94.2585 22.9228 93.3206 20.9441C92.4447 19.0964 92.3453 18.2265 92.3499 12.4494C92.3538 7.89484 92.4082 6.84555 92.6957 5.7924C93.6523 2.28788 95.8715 0.642498 100.254 0.18872C101.119 0.0991234 105.135 0.0531665 109.179 0.0863792C114.957 0.134074 116.81 0.210927 117.832 0.445926ZM99.9966 8.25515C100.107 7.86008 100.387 7.40398 100.619 7.24139C100.98 6.9894 102.083 6.94615 108.147 6.94615H115.252L115.795 7.41209L116.337 7.87823V12.546V17.2137L115.795 17.6798L115.252 18.1458L108.249 18.1429C100.533 18.1398 100.441 18.1269 100.047 16.9822C99.7563 16.1364 99.7162 9.26293 99.9966 8.25515Z" fill="#C2C6CB"/>
<path fill-rule="evenodd" clip-rule="evenodd" d="M117.832 0.445926C119.694 0.873636 120.744 1.38901 121.701 2.34465C123.641 4.28199 124.053 6.32998 123.928 13.4126C123.831 18.8712 123.713 19.6274 122.671 21.4806C121.965 22.738 120.643 23.7636 118.97 24.3525C117.714 24.7947 117.535 24.8038 108.878 24.864C101.572 24.9148 99.8242 24.8752 98.6569 24.6323C95.9027 24.0592 94.2585 22.9228 93.3206 20.9441C92.4447 19.0964 92.3453 18.2265 92.3499 12.4494C92.3538 7.89484 92.4082 6.84555 92.6957 5.7924C93.6523 2.28788 95.8715 0.642498 100.254 0.18872C101.119 0.0991234 105.135 0.0531665 109.179 0.0863792C114.957 0.134074 116.81 0.210927 117.832 0.445926ZM99.9966 8.25515C100.107 7.86008 100.387 7.40398 100.619 7.24139C100.98 6.9894 102.083 6.94615 108.147 6.94615H115.252L115.795 7.41209L116.337 7.87823V12.546V17.2137L115.795 17.6798L115.252 18.1458L108.249 18.1429C100.533 18.1398 100.441 18.1269 100.047 16.9822C99.7563 16.1364 99.7162 9.26293 99.9966 8.25515Z" fill="#4D4E4F"/>
<path d="M132.641 0.248775C132.775 0.335282 134.839 4.34725 137.229 9.16387C139.619 13.9807 141.656 17.9724 141.756 18.0344C142.172 18.2908 142.541 17.8341 143.43 15.9644C143.945 14.8809 145.362 11.9522 146.579 9.45641C147.796 6.96063 149.296 3.86065 149.913 2.56748L151.035 0.216334L151.874 0.091011C152.335 0.0220754 154.087 -0.0061178 155.767 0.0284466C158.191 0.0782656 158.858 0.149519 158.997 0.373897C159.216 0.729196 148.649 21.7998 147.565 23.1688C146.371 24.6763 145.666 24.9042 142.197 24.9042C138.954 24.9042 138.451 24.7866 137.272 23.7531C136.336 22.9332 135.777 21.9701 132.396 15.3459C130.824 12.266 129.474 9.65916 129.397 9.55296C128.983 8.98545 124.947 0.803731 124.947 0.533588C124.947 0.358063 125.143 0.173462 125.383 0.123257C126.107 -0.0287107 132.379 0.0796215 132.641 0.248775Z" fill="#C2C6CB"/>
<path d="M132.641 0.248775C132.775 0.335282 134.839 4.34725 137.229 9.16387C139.619 13.9807 141.656 17.9724 141.756 18.0344C142.172 18.2908 142.541 17.8341 143.43 15.9644C143.945 14.8809 145.362 11.9522 146.579 9.45641C147.796 6.96063 149.296 3.86065 149.913 2.56748L151.035 0.216334L151.874 0.091011C152.335 0.0220754 154.087 -0.0061178 155.767 0.0284466C158.191 0.0782656 158.858 0.149519 158.997 0.373897C159.216 0.729196 148.649 21.7998 147.565 23.1688C146.371 24.6763 145.666 24.9042 142.197 24.9042C138.954 24.9042 138.451 24.7866 137.272 23.7531C136.336 22.9332 135.777 21.9701 132.396 15.3459C130.824 12.266 129.474 9.65916 129.397 9.55296C128.983 8.98545 124.947 0.803731 124.947 0.533588C124.947 0.358063 125.143 0.173462 125.383 0.123257C126.107 -0.0287107 132.379 0.0796215 132.641 0.248775Z" fill="#4D4E4F"/>
</svg>
